<?xml version="1.0" encoding="UTF-8"?>
<svg version="1.1" xmlns="http://www.w3.org/2000/svg" width="512" height="430">
<path d="M0 0 C29.92785395 -2.64350748 29.92785395 -2.64350748 37.39746094 1.24951172 C40.97943618 4.82180594 42.35236072 9.46100008 43.91601562 14.17480469 C46.0747463 19.80111805 49.41361208 24.84391666 52.5 30 C53.78630145 32.22700527 55.0689165 34.45614424 56.34765625 36.6875 C58.60285197 40.5976851 60.87621772 44.49538014 63.18359375 48.375 C63.88935547 49.56222656 63.88935547 49.56222656 64.609375 50.7734375 C65.47133784 52.21849285 66.33701079 53.66134401 67.20703125 55.1015625 C70 59.78219289 70 59.78219289 70 62 C79.51048671 61.96187042 89.02053597 61.90240364 98.53070831 61.81609726 C102.94724459 61.77667834 107.36358315 61.74446263 111.78027344 61.72900391 C116.04694898 61.71380029 120.31308078 61.67928974 124.57951355 61.63169098 C126.20284789 61.61691521 127.82625989 61.60896118 129.44966125 61.60811615 C141.32060952 61.72289099 141.32060952 61.72289099 152 57 C156.04419539 52.84937842 157.8161663 49.13247096 158.3125 43.375 C158.29833608 40.0696713 158.29833608 40.0696713 156.625 38.125 C152.65416947 35.37596348 148.72066869 35.82517147 144.05224609 35.79467773 C143.12536484 35.78477814 142.19848358 35.77487854 141.24351501 35.76467896 C138.17018211 35.7330118 135.09683372 35.70828592 132.0234375 35.68359375 C129.89636832 35.66302873 127.76930326 35.64203238 125.64224243 35.62062073 C120.03628884 35.56535342 114.43029808 35.5159647 108.82427979 35.46777344 C103.10677777 35.4175924 97.3893299 35.36188862 91.671875 35.30664062 C80.4479629 35.19900207 69.22400383 35.09756978 58 35 C59.52603415 31.78369859 61.09800771 29.71230701 63.6875 27.25 C66.2764232 24.73017617 68.73771513 22.20194626 71.0625 19.4375 C71.63073486 18.82720947 72.19896973 18.21691895 72.78442383 17.58813477 C74.54998093 15.5256917 75.91813964 13.59001862 77.37817383 11.32714844 C81.74016054 5.26882325 86.23157145 0.84156072 93.7015686 -0.82662964 C103.75683949 -2.14068674 114.008348 -1.61874622 124.11224365 -1.26312256 C127.4599006 -1.16237328 130.80647519 -1.13252019 134.1554203 -1.10570812 C138.20050745 -1.07034908 142.24461849 -0.99655699 146.2890625 -0.91796875 C147.41549604 -0.8998668 147.41549604 -0.8998668 148.56468582 -0.88139915 C162.08951459 -0.61627875 175.69413571 1.19752142 185.93359375 10.81640625 C192.89165214 18.20843918 194.50357155 24.76166738 194.41992188 34.79614258 C193.8235048 51.31804249 185.32514613 66.38156554 173.53417969 77.62744141 C156.3787479 92.97560142 136.81087366 97.19215217 114.43359375 97.09765625 C113.15895767 97.0962413 111.88432159 97.09482635 110.57106018 97.09336853 C107.21248433 97.08874507 103.85397883 97.07978925 100.49542236 97.06866455 C97.05619916 97.05836228 93.61696863 97.05385218 90.17773438 97.04882812 C83.45180378 97.03784189 76.72590595 97.02113603 70 97 C69.70248337 98.2110717 69.70248337 98.2110717 69.3989563 99.4466095 C69.13468842 100.5145726 68.87042053 101.58253571 68.59814453 102.68286133 C68.2078154 104.26518303 68.2078154 104.26518303 67.80960083 105.87947083 C66.68451516 110.21600624 65.31830704 114.44823887 63.875 118.6875 C63.61074219 119.48349609 63.34648437 120.27949219 63.07421875 121.09960938 C61.13404923 126.86595077 61.13404923 126.86595077 60 128 C57.55169574 128.08843793 55.13179401 128.11528752 52.68359375 128.09765625 C51.58701195 128.09553383 51.58701195 128.09553383 50.46827698 128.09336853 C48.12464368 128.08775408 45.78110461 128.07519922 43.4375 128.0625 C41.85221492 128.05748686 40.26692834 128.05292363 38.68164062 128.04882812 C34.7877239 128.03777997 30.89387795 128.02050572 27 128 C28.51979477 120.45701858 30.73753314 113.24753545 33.125 105.9375 C33.49753906 104.78572266 33.87007813 103.63394531 34.25390625 102.44726562 C35.16562019 99.63030331 36.0810604 96.81461174 37 94 C30.1701852 99.78917733 23.37033241 105.59013436 16.8125 111.6875 C12.07757823 116.07286379 7.21462958 120.18740557 2.1796875 124.22265625 C-0.03388959 125.96645184 -0.03388959 125.96645184 -2 128 C-4.72000357 128.24556371 -7.34574257 128.37356486 -10.0703125 128.4140625 C-11.26465408 128.44311172 -11.26465408 128.44311172 -12.48312378 128.4727478 C-15.03030634 128.53260474 -17.57753395 128.57895279 -20.125 128.625 C-21.8502803 128.66317421 -23.57554143 128.70222561 -25.30078125 128.7421875 C-29.53369876 128.83831109 -33.76670549 128.92231908 -38 129 C-36.76574477 125.29723431 -35.37754451 124.4964943 -32.3125 122.125 C-27.67600584 118.43264278 -23.30825783 114.568943 -19 110.5 C-14.10976467 105.89345783 -9.09225594 101.57380475 -3.84375 97.375 C-0.44364588 94.5353526 2.77582408 91.53608085 6 88.5 C10.94368953 83.84565796 16.00910876 79.45680727 21.3125 75.2109375 C26.03861414 71.3228843 30.51159265 67.15850507 35 63 C34.58492188 62.27941406 34.16984375 61.55882812 33.7421875 60.81640625 C30.39778094 54.9881831 27.07690379 49.14868117 23.80859375 43.27734375 C22.64336384 41.18482083 21.47799528 39.09237512 20.3125 37 C19.72049805 35.93716797 19.12849609 34.87433594 18.51855469 33.77929688 C13.79692661 25.33967181 8.91521791 17.00385197 3.91137695 8.72851562 C3.39663818 7.87064453 2.88189941 7.01277344 2.3515625 6.12890625 C1.89604004 5.37681885 1.44051758 4.62473145 0.97119141 3.84985352 C0 2 0 2 0 0 Z " fill="#7C559E" transform="translate(224,113)"/>
<path d="M0 0 C1.09815285 -0.00021904 1.09815285 -0.00021904 2.2184906 -0.0004425 C4.63169343 0.00025263 7.04481851 0.00802631 9.45800781 0.01586914 C11.13380898 0.01773474 12.80961069 0.01915797 14.4854126 0.02015686 C18.89127107 0.02397087 23.29709647 0.03379163 27.70294189 0.04486084 C32.20071973 0.05509896 36.69850293 0.05965963 41.19628906 0.06469727 C50.01791816 0.07541489 58.83952273 0.09247792 67.66113281 0.11352539 C65.07950206 5.49375448 61.57530285 9.67648857 56.66113281 13.11352539 C52.86314156 13.84090418 49.47162267 13.69044068 45.66113281 13.11352539 C45.52384766 14.49217773 45.52384766 14.49217773 45.38378906 15.89868164 C44.61274367 21.29599941 42.79531125 26.38707538 41.09863281 31.55102539 C40.76927734 32.56874023 40.43992187 33.58645508 40.10058594 34.63500977 C39.2924975 37.12954365 38.47923153 39.62226022 37.66113281 42.11352539 C42.80682817 37.06101164 47.85747876 31.99836231 52.54394531 26.51586914 C56.13225305 22.44426535 59.87397813 18.51368976 63.59960938 14.56787109 C66.29812308 11.69798152 68.94301997 8.81969361 71.44238281 5.77368164 C73.75469358 3.00135131 75.31723612 1.46700739 78.66113281 0.11352539 C82.28613281 -0.01147461 82.28613281 -0.01147461 85.66113281 1.11352539 C88.21987097 6.0595726 89.57909723 11.15179429 90.84863281 16.55102539 C91.02587891 17.28256836 91.203125 18.01411133 91.38574219 18.76782227 C91.81634173 20.54840954 92.23952497 22.33078765 92.66113281 24.11352539 C93.65113281 22.62852539 93.65113281 22.62852539 94.66113281 21.11352539 C97.24527287 20.82469962 99.60320252 20.72044071 102.18847656 20.74243164 C103.71777568 20.7250496 105.24707251 20.70746521 106.77636719 20.68969727 C109.19039104 20.67961732 111.6042665 20.67602937 114.01831055 20.67773438 C116.34631854 20.67416855 118.67317331 20.64684219 121.00097656 20.61743164 C121.72292709 20.62561417 122.44487762 20.63379669 123.18870544 20.64222717 C126.49513124 20.59299772 128.20622616 20.55181855 130.63989258 18.20703125 C131.80727609 16.20215573 131.80727609 16.20215573 131.66113281 14.11352539 C120.44113281 13.78352539 109.22113281 13.45352539 97.66113281 13.11352539 C100.40320581 7.6293794 103.57459085 3.6060172 108.66113281 0.11352539 C113.28399837 -1.01744218 117.61786782 -0.88343135 122.34863281 -0.63647461 C124.14397461 -0.61327148 124.14397461 -0.61327148 125.97558594 -0.58959961 C132.88279259 -0.40509993 138.4455051 -0.17008599 143.50878906 5.00024414 C145.62922833 8.88891412 145.23939347 12.81977387 144.66113281 17.11352539 C142.0303516 23.58086255 137.21221979 29.0331799 130.77416992 31.97607422 C124.67309253 34.28394695 119.06396877 34.4764938 112.59863281 34.30102539 C111.63763672 34.28749023 110.67664063 34.27395508 109.68652344 34.26000977 C107.34447842 34.22505387 105.00272695 34.17126333 102.66113281 34.11352539 C101.67113281 37.74352539 100.68113281 41.37352539 99.66113281 45.11352539 C84.81113281 45.11352539 69.96113281 45.11352539 54.66113281 45.11352539 C56.35326805 41.72925492 57.75248057 39.67576264 60.22363281 36.92602539 C60.84367187 36.2312207 61.46371094 35.53641602 62.10253906 34.82055664 C65.15294108 31.47964015 67.10007512 31.8426011 71.72363281 31.55102539 C73.01398438 31.46723633 74.30433594 31.38344727 75.63378906 31.29711914 C76.6328125 31.2365332 77.63183594 31.17594727 78.66113281 31.11352539 C77.67113281 27.81352539 76.68113281 24.51352539 75.66113281 21.11352539 C73.54831784 20.88977613 73.54831784 20.88977613 72.06054688 22.56298828 C71.43889648 23.23064209 70.81724609 23.8982959 70.17675781 24.58618164 C69.48839844 25.3215918 68.80003906 26.05700195 68.09082031 26.81469727 C67.011875 27.98355469 67.011875 27.98355469 65.91113281 29.17602539 C65.20730469 29.92819336 64.50347656 30.68036133 63.77832031 31.45532227 C62.73804688 32.57197266 62.73804688 32.57197266 61.67675781 33.71118164 C60.9808252 34.44796143 60.28489258 35.18474121 59.56787109 35.94384766 C57.6457071 38.02108699 57.6457071 38.02108699 56.31298828 40.21875 C54.8906152 42.37748436 53.8327293 43.69147819 51.66113281 45.11352539 C46.84031553 45.96082748 42.1610253 45.77350042 37.28613281 45.55102539 C35.97773438 45.51944336 34.66933594 45.48786133 33.32128906 45.45532227 C30.09894035 45.37299949 26.8811929 45.25804377 23.66113281 45.11352539 C25.62216654 37.61759443 27.85861714 30.26199008 30.34863281 22.92602539 C31.98832031 18.06883789 31.98832031 18.06883789 33.66113281 13.11352539 C19.47113281 13.11352539 5.28113281 13.11352539 -9.33886719 13.11352539 C-9.33886719 13.77352539 -9.33886719 14.43352539 -9.33886719 15.11352539 C-8.28759644 15.08995972 -8.28759644 15.08995972 -7.21508789 15.06591797 C-4.02726368 15.00340127 -0.83956868 14.96448158 2.34863281 14.92602539 C3.45142578 14.90088867 4.55421875 14.87575195 5.69042969 14.84985352 C6.75712891 14.84018555 7.82382813 14.83051758 8.92285156 14.82055664 C9.90213623 14.80484619 10.8814209 14.78913574 11.89038086 14.77294922 C15.18364738 15.177752 17.00228677 16.15526509 19.66113281 18.11352539 C22.38892171 22.20520874 22.50964492 25.31034078 21.66113281 30.11352539 C18.71962016 36.79681517 14.18641469 40.99697285 7.66113281 44.11352539 C3.83957902 45.38737666 0.25428811 45.23705727 -3.72558594 45.21118164 C-4.54259476 45.20976669 -5.35960358 45.20835175 -6.20137024 45.20689392 C-8.80973986 45.20129833 -11.41802352 45.18874668 -14.02636719 45.17602539 C-15.79524616 45.17100982 -17.56412647 45.16644701 -19.33300781 45.16235352 C-23.66832737 45.15133035 -28.00358271 45.13406877 -32.33886719 45.11352539 C-29.86596775 39.62891208 -26.3378115 35.47130366 -21.33886719 32.11352539 C-16.29193443 30.91404936 -11.44398771 30.94150953 -6.27636719 31.05102539 C-4.92023199 31.04794437 -3.56409967 31.04081319 -2.20800781 31.02954102 C1.08388546 31.01782609 4.37004992 31.04686813 7.66113281 31.11352539 C8.15613281 29.62852539 8.15613281 29.62852539 8.66113281 28.11352539 C7.92999268 28.09894287 7.19885254 28.08436035 6.44555664 28.06933594 C3.1210591 27.99469629 -0.20245186 27.89808738 -3.52636719 27.80102539 C-4.67685547 27.7784668 -5.82734375 27.7559082 -7.01269531 27.73266602 C-8.12451172 27.6972168 -9.23632812 27.66176758 -10.38183594 27.62524414 C-11.40301514 27.59906006 -12.42419434 27.57287598 -13.47631836 27.54589844 C-16.77217592 27.04807637 -18.66406508 26.07925998 -21.33886719 24.11352539 C-23.84390211 20.35597301 -23.48462613 18.69941478 -22.87011719 14.39086914 C-21.51436258 8.57906816 -17.78604044 5.37074479 -13.12011719 2.09399414 C-8.95093249 -0.20088603 -4.64934962 -0.02433411 0 0 Z " fill="#502671" transform="translate(186.3388671875,271.886474609375)"/>
<path d="M0 0 C4.83741072 -0.32338703 9.66845939 -0.55803078 14.51416016 -0.71411133 C16.15817831 -0.77918099 17.80145253 -0.86768697 19.44287109 -0.98071289 C30.21952811 -1.70373693 30.21952811 -1.70373693 35 0 C38.97302187 3.76397266 40.84531388 8.02782904 43 13 C44.09532987 14.97711187 45.21174929 16.94272575 46.3515625 18.89453125 C47.44544919 20.86566894 48.5365319 22.83836497 49.625 24.8125 C53.34474694 31.5432507 57.10755487 38.23046381 61.0859375 44.8125 C61.74126465 45.90328857 62.3965918 46.99407715 63.07177734 48.11791992 C64.33740057 50.21473936 65.61600149 52.30379122 66.90869141 54.3840332 C67.47507324 55.32593506 68.04145508 56.26783691 68.625 57.23828125 C69.13289063 58.06368408 69.64078125 58.88908691 70.1640625 59.73950195 C71 62 71 62 70.32568359 64.13330078 C68.21605579 67.1038743 65.42015659 69.26816869 62.625 71.5625 C61.3487445 72.63100444 60.07403165 73.70135389 58.80078125 74.7734375 C58.16092285 75.31194336 57.52106445 75.85044922 56.86181641 76.40527344 C54.11129677 78.76121289 51.4602101 81.21735616 48.8125 83.6875 C45.16665597 87.07605384 41.44376463 90.31902726 37.5625 93.4375 C32.14236109 97.80024187 27.07430728 102.48176696 21.98828125 107.22265625 C19.12506074 109.89148807 16.24426449 112.5291074 13.23242188 115.03051758 C10.87612629 117.05204817 10.87612629 117.05204817 8.42700195 119.70019531 C1.582634 126.59767479 -3.7870905 129.16313599 -13.5319519 129.33509827 C-15.96082342 129.32215172 -18.38463799 129.25642526 -20.8125 129.1875 C-22.48761682 129.18052373 -24.16276215 129.17853823 -25.83789062 129.18164062 C-29.89455203 129.17848951 -33.94484011 129.10832079 -38 129 C-36.76071219 125.28213657 -35.32529278 124.44896275 -32.25 122.0625 C-27.82286329 118.53570068 -23.62411226 114.87515333 -19.5 111 C-15.62592025 107.36986274 -11.71092782 103.88246059 -7.5625 100.5625 C-3.187478 97.05356678 0.92019159 93.34153921 5 89.5 C9.92159693 84.86614564 14.96556678 80.50333925 20.24609375 76.27734375 C25.34804681 72.05828186 30.16224689 67.51692481 35 63 C34.39478516 61.95392578 34.39478516 61.95392578 33.77734375 60.88671875 C30.31833693 54.87201262 26.90228627 48.83717798 23.55078125 42.76171875 C22.28403297 40.46604716 21.01710077 38.17047705 19.75 35.875 C19.26959259 35.00433899 19.26959259 35.00433899 18.77947998 34.11608887 C13.88612058 25.25974353 8.82218353 16.52488728 3.50488281 7.91552734 C2.80830566 6.77978271 2.80830566 6.77978271 2.09765625 5.62109375 C1.48676147 4.63774048 1.48676147 4.63774048 0.86352539 3.63452148 C0 2 0 2 0 0 Z " fill="#F48271" transform="translate(175,113)"/>
<path d="M0 0 C29.92785395 -2.64350748 29.92785395 -2.64350748 37.39746094 1.24951172 C40.97943618 4.82180594 42.35236072 9.46100008 43.91601562 14.17480469 C46.07481607 19.80129991 49.41430324 24.84332311 52.5 30 C53.78469192 32.23109455 55.06600029 34.46414115 56.34375 36.69921875 C58.58545861 40.58879422 60.8649335 44.44679723 63.21875 48.26953125 C63.69376953 49.04748047 64.16878906 49.82542969 64.65820312 50.62695312 C65.52468746 52.03830097 66.40283925 53.44258191 67.29492188 54.83789062 C68.92980848 57.51239743 69.98936429 59.48416793 70.0546875 62.65234375 C68.63075452 65.82191308 66.74808018 67.47616845 64.125 69.75 C63.38733398 70.39787476 63.38733398 70.39787476 62.63476562 71.05883789 C59.32736997 73.94016936 55.92078781 76.69199739 52.5 79.4375 C48.5848448 82.5907571 45.01691076 85.90815506 41.5 89.5 C37.21242071 93.87854632 32.73899593 97.74199753 27.94921875 101.5546875 C24.50477413 104.41061112 21.25460701 107.43177434 18 110.5 C12.86852054 115.33471582 7.62432881 119.89569049 2.109375 124.29296875 C-0.0466478 125.97675198 -0.0466478 125.97675198 -2 128 C-4.72000357 128.24556371 -7.34574257 128.37356486 -10.0703125 128.4140625 C-11.26465408 128.44311172 -11.26465408 128.44311172 -12.48312378 128.4727478 C-15.03030634 128.53260474 -17.57753395 128.57895279 -20.125 128.625 C-21.8502803 128.66317421 -23.57554143 128.70222561 -25.30078125 128.7421875 C-29.53369876 128.83831109 -33.76670549 128.92231908 -38 129 C-36.76574477 125.29723431 -35.37754451 124.4964943 -32.3125 122.125 C-27.67600584 118.43264278 -23.30825783 114.568943 -19 110.5 C-14.10976467 105.89345783 -9.09225594 101.57380475 -3.84375 97.375 C-0.44364588 94.5353526 2.77582408 91.53608085 6 88.5 C10.94368953 83.84565796 16.00910876 79.45680727 21.3125 75.2109375 C26.03861414 71.3228843 30.51159265 67.15850507 35 63 C34.58492188 62.27941406 34.16984375 61.55882812 33.7421875 60.81640625 C30.39778094 54.9881831 27.07690379 49.14868117 23.80859375 43.27734375 C22.64336384 41.18482083 21.47799528 39.09237512 20.3125 37 C19.72049805 35.93716797 19.12849609 34.87433594 18.51855469 33.77929688 C13.79692661 25.33967181 8.91521791 17.00385197 3.91137695 8.72851562 C3.39663818 7.87064453 2.88189941 7.01277344 2.3515625 6.12890625 C1.89604004 5.37681885 1.44051758 4.62473145 0.97119141 3.84985352 C0 2 0 2 0 0 Z " fill="#EE6723" transform="translate(224,113)"/>
<path d="M0 0 C1.39120471 0.00015906 2.78241534 0.00585033 4.17358398 0.01586914 C4.90463852 0.01728409 5.63569305 0.01869904 6.38890076 0.02015686 C8.73253406 0.02577131 11.07607313 0.03832617 13.41967773 0.05102539 C15.00496282 0.05603853 16.59024939 0.06060176 18.17553711 0.06469727 C22.06945383 0.07574542 25.96329979 0.09301967 29.85717773 0.11352539 C28.19206077 8.72194541 25.4173938 16.92873709 22.66577148 25.23461914 C22.15502607 26.78627219 21.6446201 28.33803702 21.13453674 29.88990784 C20.07052063 33.12409698 19.00368996 36.35733816 17.93457031 39.58984375 C16.5630318 43.73688602 15.19668248 47.88561426 13.83216763 52.03497219 C12.78092429 55.23092192 11.72795966 58.42630216 10.67436409 61.62147713 C10.16969407 63.15202864 9.66533254 64.68268191 9.16128349 66.21343803 C8.45922734 68.34399899 7.75509333 70.47386114 7.05029297 72.60351562 C6.64995346 73.81547104 6.24961395 75.02742645 5.83714294 76.27610779 C4.85717773 79.11352539 4.85717773 79.11352539 3.85717773 81.11352539 C-7.03282227 81.11352539 -17.92282227 81.11352539 -29.14282227 81.11352539 C-26.89297302 70.98920379 -26.89297302 70.98920379 -25.55810547 66.94287109 C-25.26051834 66.03354324 -24.96293121 65.12421539 -24.65632629 64.18733215 C-24.33862778 63.23098373 -24.02092926 62.27463531 -23.69360352 61.28930664 C-23.35789841 60.26661179 -23.0221933 59.24391693 -22.67631531 58.19023132 C-21.60668426 54.93415245 -20.53127326 51.68002071 -19.45532227 48.42602539 C-18.40241904 45.23039732 -17.35076952 42.03436027 -16.29977417 38.83810425 C-15.60634218 36.7293808 -14.91211332 34.62091923 -14.21707153 32.51272583 C-11.50700725 24.27570322 -8.87243783 16.01594405 -6.29670715 7.73591614 C-5.89218575 6.44786324 -5.89218575 6.44786324 -5.47949219 5.13378906 C-5.24437424 4.37845383 -5.00925629 3.62311859 -4.76701355 2.84489441 C-3.68372592 -0.15990666 -3.4280093 0.12382695 0 0 Z " fill="#512974" transform="translate(123.142822265625,159.886474609375)"/>
<path d="M0 0 C2.54802957 2.01213647 3.47286303 3.76169383 4.25854492 6.87304688 C4.45852585 7.64394653 4.65850677 8.41484619 4.86454773 9.20910645 C5.06780167 10.03728882 5.2710556 10.86547119 5.48046875 11.71875 C5.80704216 13.00017883 5.80704216 13.00017883 6.14021301 14.30749512 C6.59797382 16.11179968 7.05071255 17.91738478 7.4987793 19.72412109 C8.18554682 22.49212774 8.88726567 25.25599838 9.59179688 28.01953125 C10.03473296 29.77321577 10.47681919 31.52711521 10.91796875 33.28125 C11.12729538 34.10943237 11.33662201 34.93761475 11.55229187 35.79089355 C12.32747545 38.92743995 13 41.75597974 13 45 C-1.19 45 -15.38 45 -30 45 C-27.39239587 39.78479174 -24.76301684 35.48066615 -20 32 C-15.29615818 30.96030964 -10.80326505 30.83134603 -6 31 C-6.495 29.14375 -6.495 29.14375 -7 27.25 C-7.79891159 24.25408155 -8 22.19892281 -8 19 C-9.05574219 20.05767578 -9.05574219 20.05767578 -10.1328125 21.13671875 C-12.03751542 23.04209187 -13.94953503 24.93969647 -15.8671875 26.83203125 C-21.47245394 32.37832398 -26.90105063 37.97696919 -32 44 C-33 45 -33 45 -36.16015625 45.09765625 C-37.44792969 45.08605469 -38.73570312 45.07445312 -40.0625 45.0625 C-41.35285156 45.05347656 -42.64320313 45.04445313 -43.97265625 45.03515625 C-44.97167969 45.02355469 -45.97070312 45.01195312 -47 45 C-45.63626792 42.00442347 -44.06688306 39.73055188 -41.875 37.28125 C-41.25238281 36.58515625 -40.62976563 35.8890625 -39.98828125 35.171875 C-36.03153796 30.84977428 -31.9985118 26.6018831 -27.9609375 22.35546875 C-24.04990495 18.22547878 -20.24532823 14.0283884 -16.51806641 9.73193359 C-14.80345938 7.77577048 -13.03112168 5.89748645 -11.1875 4.0625 C-10.62417969 3.49660156 -10.06085938 2.93070312 -9.48046875 2.34765625 C-6.47574079 -0.38751828 -3.95875447 -0.32316363 0 0 Z " fill="#7D569E" transform="translate(357,272)"/>
<path d="M0 0 C7.94851263 2.32639394 13.36487858 15.02447768 17.5625 21.75 C19.27950545 19.17449182 20.13247075 17.39422008 21.0703125 14.51953125 C21.33457031 13.71708984 21.59882813 12.91464844 21.87109375 12.08789062 C22.14050781 11.25451172 22.40992188 10.42113281 22.6875 9.5625 C22.96464844 8.71751953 23.24179688 7.87253906 23.52734375 7.00195312 C24.20979604 4.919297 24.88668681 2.83481994 25.5625 0.75 C29.5225 0.75 33.4825 0.75 37.5625 0.75 C36.95827387 6.11173955 35.69900522 10.89092242 33.9453125 15.984375 C33.68748993 16.74421692 33.42966736 17.50405884 33.16403198 18.28692627 C32.62081629 19.88132943 32.07438943 21.47464183 31.52490234 23.06689453 C30.68640569 25.50317955 29.86420907 27.94457066 29.04296875 30.38671875 C28.511393 31.94043854 27.9788736 33.49383588 27.4453125 35.046875 C27.07951584 36.13908356 27.07951584 36.13908356 26.70632935 37.25335693 C24.43956973 43.74273119 24.43956973 43.74273119 21.5625 45.75 C18.62109375 46.23828125 18.62109375 46.23828125 15.5625 45.75 C13.47265625 43.73046875 13.47265625 43.73046875 11.625 40.9375 C10.95597656 39.94492187 10.28695312 38.95234375 9.59765625 37.9296875 C8.59025391 36.35574219 8.59025391 36.35574219 7.5625 34.75 C6.88058594 33.70070313 6.19867188 32.65140625 5.49609375 31.5703125 C3.82938997 28.97766217 2.19298938 26.36557672 0.5625 23.75 C-2.0775 31.01 -4.7175 38.27 -7.4375 45.75 C-11.3975 45.75 -15.3575 45.75 -19.4375 45.75 C-17.90365037 38.03790691 -15.66917764 30.58521159 -13.28881836 23.10107422 C-12.8446976 21.69537239 -12.40756184 20.2874454 -11.97729492 18.87744141 C-11.34763584 16.81426246 -10.6977217 14.75845903 -10.04296875 12.703125 C-9.66293701 11.48786133 -9.28290527 10.27259766 -8.89135742 9.02050781 C-6.98562031 4.73347938 -4.60647775 1.41737777 0 0 Z " fill="#512772" transform="translate(129.4375,271.25)"/>
<path d="M0 0 C1.7953418 0.02320313 1.7953418 0.02320313 3.62695312 0.046875 C10.53415978 0.23137468 16.09687229 0.46638862 21.16015625 5.63671875 C23.28059552 9.52538873 22.89076065 13.45624848 22.3125 17.75 C19.68171878 24.21733715 14.86358698 29.66965451 8.42553711 32.61254883 C2.32445972 34.92042156 -3.28466404 35.11296841 -9.75 34.9375 C-10.71099609 34.92396484 -11.67199219 34.91042969 -12.66210938 34.89648438 C-15.00415439 34.86152848 -17.34590586 34.80773794 -19.6875 34.75 C-20.6775 38.38 -21.6675 42.01 -22.6875 45.75 C-26.6475 45.75 -30.6075 45.75 -34.6875 45.75 C-30.25271739 24.31521739 -30.25271739 24.31521739 -27.6875 21.75 C-25.20358521 21.63944733 -22.74275608 21.58841088 -20.2578125 21.57421875 C-18.72524669 21.55102 -17.19269456 21.52690263 -15.66015625 21.50195312 C-13.2350959 21.46681801 -10.81053792 21.43748915 -8.38525391 21.42407227 C-6.05048235 21.40861493 -3.71719344 21.36842111 -1.3828125 21.32421875 C-0.65772491 21.32612717 0.06736267 21.32803558 0.81442261 21.33000183 C4.12346427 21.24942731 5.86001369 21.18648144 8.29345703 18.83911133 C9.45863707 16.83780848 9.45863707 16.83780848 9.3125 14.75 C-1.9075 14.42 -13.1275 14.09 -24.6875 13.75 C-18.99123356 2.35746712 -12.40539506 -0.64758995 0 0 Z " fill="#7C559D" transform="translate(308.6875,271.25)"/>
<path d="M0 0 C10.89 0 21.78 0 33 0 C32.28227771 5.02405606 31.54438943 8.86320026 29.96875 13.5546875 C29.57042969 14.74578125 29.17210937 15.936875 28.76171875 17.1640625 C28.13716797 19.00097656 28.13716797 19.00097656 27.5 20.875 C27.08363281 22.1228125 26.66726562 23.370625 26.23828125 24.65625 C23.14043257 33.85956743 23.14043257 33.85956743 22 35 C19.55169574 35.08843793 17.13179401 35.11528752 14.68359375 35.09765625 C13.95253922 35.0962413 13.22148468 35.09482635 12.46827698 35.09336853 C10.12464368 35.08775408 7.78110461 35.07519922 5.4375 35.0625 C3.85221492 35.05748686 2.26692834 35.05292363 0.68164062 35.04882812 C-3.2122761 35.03777997 -7.10612205 35.02050572 -11 35 C-8.91972784 26.98920615 -6.46629741 19.15010311 -3.8125 11.3125 C-2.554375 7.579375 -1.29625 3.84625 0 0 Z " fill="#512974" transform="translate(135,113)"/>
<path d="M0 0 C5.28 0 10.56 0 16 0 C16.99 2.248125 17.98 4.49625 19 6.8125 C19.31324219 7.51608643 19.62648438 8.21967285 19.94921875 8.94458008 C21.19189908 11.80595016 22 13.84895033 22 17 C23.12960204 16.04709549 24.25324896 15.08713429 25.375 14.125 C26.48294922 13.18333984 26.48294922 13.18333984 27.61328125 12.22265625 C30.07949891 10.02148505 30.07949891 10.02148505 32.23046875 7.30859375 C38.54440904 -0.12641467 38.54440904 -0.12641467 43.97265625 -0.63671875 C47.67672294 -0.7276775 51.32117022 -0.44145957 55 0 C53.5046685 3.62455354 51.45667772 5.58936816 48.5 8.125 C43.89972577 12.15438882 39.57927511 16.37095658 35.31640625 20.75390625 C33.36039693 22.65054261 31.47955846 24.09125978 29.25 25.625 C23.73412699 30.07962429 22.10481447 38.50822789 20 45 C16.04 45 12.08 45 8 45 C9.85129432 36.40470495 9.85129432 36.40470495 11.19140625 32.75756836 C12.17006783 28.20968779 11.47387461 26.41798513 9.5703125 22.2265625 C9.30113007 21.61734955 9.03194763 21.0081366 8.75460815 20.38046265 C7.89769686 18.45243547 7.01242022 16.53914758 6.125 14.625 C5.53577361 13.31729965 4.94851303 12.00871166 4.36328125 10.69921875 C3.29885281 8.31758074 2.22140776 5.94386792 1.13330078 3.57275391 C0 1 0 1 0 0 Z " fill="#7D569E" transform="translate(363,272)"/>
<path d="M0 0 C1.65322266 0.01740234 1.65322266 0.01740234 3.33984375 0.03515625 C4.44457031 0.04417969 5.54929687 0.05320312 6.6875 0.0625 C7.54214844 0.07410156 8.39679688 0.08570313 9.27734375 0.09765625 C6.79750298 9.7954391 3.69604859 19.27532937 0.58984375 28.78515625 C0.07333007 30.37296959 -0.44294772 31.96085969 -0.95898438 33.54882812 C-2.21082681 37.39932685 -3.46584653 41.24877614 -4.72265625 45.09765625 C-8.68265625 45.09765625 -12.64265625 45.09765625 -16.72265625 45.09765625 C-16.10296652 39.58515154 -14.77125625 34.61501258 -13.03515625 29.35546875 C-12.77259033 28.54649139 -12.51002441 27.73751404 -12.23950195 26.90402222 C-11.68746857 25.20725781 -11.13265556 23.51139545 -10.57519531 21.81640625 C-9.71909089 19.21180905 -8.87256721 16.60423983 -8.02734375 13.99609375 C-7.48883827 12.34487032 -6.94979503 10.69382215 -6.41015625 9.04296875 C-6.15596924 8.26075958 -5.90178223 7.47855042 -5.63989258 6.67263794 C-3.47934851 0.12479729 -3.47934851 0.12479729 0 0 Z " fill="#512772" transform="translate(110.72265625,271.90234375)"/>
</svg>
