<svg width="37" height="25" viewBox="0 0 37 25" fill="none" xmlns="http://www.w3.org/2000/svg">
<g clip-path="url(#clip0_3189_4760)">
<path d="M34.1 24.5H2.9C2.26348 24.5 1.65303 24.2471 1.20294 23.7971C0.752856 23.347 0.5 22.7365 0.5 22.1L0.5 2.9C0.5 2.26348 0.752856 1.65303 1.20294 1.20294C1.65303 0.752856 2.26348 0.5 2.9 0.5L34.1 0.5C34.7365 0.5 35.347 0.752856 35.7971 1.20294C36.2471 1.65303 36.5 2.26348 36.5 2.9V22.1C36.5 22.7365 36.2471 23.347 35.7971 23.7971C35.347 24.2471 34.7365 24.5 34.1 24.5ZM18.34 15.262L17.981 17.512C18.8981 17.8994 19.8891 18.0806 20.884 18.043H20.873C22.0387 18.1108 23.193 17.7819 24.148 17.11L24.131 17.121C24.5206 16.8342 24.8374 16.4599 25.0559 16.0283C25.2744 15.5967 25.3885 15.1198 25.389 14.636V14.621C25.389 13.521 24.653 12.608 23.202 11.902C22.8062 11.7107 22.4275 11.4859 22.07 11.23L22.093 11.246C21.993 11.1816 21.9097 11.0943 21.8501 10.9914C21.7904 10.8885 21.7561 10.7728 21.75 10.654V10.652C21.7578 10.5282 21.7967 10.4084 21.8629 10.3036C21.9291 10.1988 22.0206 10.1122 22.129 10.052L22.133 10.05C22.4686 9.85613 22.8543 9.76666 23.241 9.793H23.235H23.315L23.392 9.792C24.036 9.792 24.647 9.931 25.198 10.18L25.17 10.169L25.404 10.294L25.763 8.123C25.0372 7.84058 24.2648 7.69741 23.486 7.701H23.437H23.44C22.3133 7.6519 21.2024 7.97986 20.283 8.633L20.299 8.622C19.9168 8.89157 19.6049 9.24901 19.3897 9.66422C19.1744 10.0794 19.062 10.5403 19.062 11.008V11.013C19.052 12.071 19.814 12.985 21.328 13.733C21.728 13.908 22.073 14.122 22.382 14.379L22.375 14.373C22.464 14.4482 22.5363 14.5411 22.5874 14.6458C22.6386 14.7504 22.6674 14.8646 22.672 14.981V14.985C22.672 15.304 22.482 15.578 22.208 15.701L22.203 15.703C21.903 15.861 21.547 15.953 21.169 15.953H21.123H21.125H21.05C20.193 15.953 19.381 15.763 18.653 15.423L18.688 15.438L18.345 15.266L18.34 15.262ZM28.465 16.403H31.78C31.8333 16.6317 31.9377 17.1317 32.093 17.903H34.5L32.406 7.872H30.406C30.12 7.84601 29.8332 7.9133 29.5886 8.06381C29.344 8.21432 29.1547 8.43996 29.049 8.707L29.046 8.716L25.206 17.903H27.926L28.472 16.404L28.465 16.403ZM15.391 7.872L13.765 17.903H16.359L17.984 7.872H15.391ZM5.422 9.919L7.532 17.887H10.266L14.341 7.872H11.595L9.061 14.716L8.795 13.325L7.891 8.716C7.84301 8.44992 7.69328 8.213 7.47356 8.05544C7.25385 7.89789 6.98141 7.83209 6.714 7.872L6.72 7.871H2.533L2.502 8.074C5.726 8.893 7.844 10.66 8.798 13.324C8.50594 12.5622 8.05376 11.872 7.472 11.3L7.471 11.299C6.90047 10.7131 6.21794 10.2479 5.464 9.931L5.424 9.916L5.422 9.919ZM31.359 14.34H29.199C29.345 13.9547 29.689 13.0213 30.231 11.54L30.277 11.399L30.437 10.993C30.5017 10.8263 30.5483 10.691 30.577 10.587L30.765 11.446L31.358 14.336L31.359 14.34Z" fill="#1858A8"/>
</g>
<defs>
<clipPath id="clip0_3189_4760">
<rect width="36" height="24" fill="white" transform="translate(0.5 0.5)"/>
</clipPath>
</defs>
</svg>
