<svg width="43" height="33" viewBox="0 0 43 33" fill="none" xmlns="http://www.w3.org/2000/svg">
<g clip-path="url(#clip0_3189_4742)">
<path d="M8.13553 32.8359V30.6517C8.13553 29.8143 7.6312 29.2684 6.76676 29.2684C6.33462 29.2684 5.86638 29.414 5.5422 29.8873C5.2902 29.4868 4.93008 29.2684 4.38982 29.2684C4.02954 29.2684 3.66959 29.3775 3.38133 29.778V29.3412H2.625V32.8359H3.38133V30.9065C3.38133 30.2877 3.70552 29.9964 4.20984 29.9964C4.71384 29.9964 4.96617 30.3241 4.96617 30.9065V32.8359H5.7225V30.9065C5.7225 30.2877 6.08245 29.9964 6.55069 29.9964C7.05502 29.9964 7.30702 30.3241 7.30702 30.9065V32.8359H8.13553ZM19.3362 29.3412H18.1118V28.2855H17.3555V29.3412H16.6712V30.0327H17.3554V31.6346C17.3554 32.4356 17.6795 32.9087 18.544 32.9087C18.8682 32.9087 19.2281 32.7996 19.4805 32.654L19.2642 31.9986C19.0481 32.1442 18.7961 32.1807 18.616 32.1807C18.2559 32.1807 18.1118 31.9623 18.1118 31.5981V30.0327H19.3362V29.3412ZM25.7471 29.2682C25.315 29.2682 25.0269 29.4868 24.8468 29.778V29.3412H24.0904V32.8359H24.8468V30.8701C24.8468 30.2877 25.0988 29.9601 25.567 29.9601C25.7111 29.9601 25.8912 29.9965 26.0352 30.0329L26.2513 29.3049C26.1073 29.2684 25.8912 29.2684 25.7471 29.2684M16.0589 29.6326C15.6986 29.3777 15.1945 29.2686 14.6542 29.2686C13.7899 29.2686 13.2138 29.7054 13.2138 30.397C13.2138 30.9796 13.6459 31.3071 14.4022 31.4164L14.7623 31.4529C15.1586 31.5255 15.3746 31.6348 15.3746 31.8169C15.3746 32.0716 15.0865 32.2536 14.5822 32.2536C14.0779 32.2536 13.6818 32.0716 13.4297 31.8897L13.0695 32.472C13.4658 32.7632 14.006 32.9088 14.5461 32.9088C15.5546 32.9088 16.131 32.4357 16.131 31.7804C16.131 31.1615 15.6627 30.8338 14.9423 30.7247L14.5822 30.6882C14.258 30.6517 14.006 30.5791 14.006 30.3607C14.006 30.1058 14.258 29.9602 14.6542 29.9602C15.0865 29.9602 15.5187 30.1421 15.7347 30.2514L16.0589 29.6326ZM36.1558 29.2686C35.7235 29.2686 35.4354 29.487 35.2552 29.7782V29.3414H34.4989V32.836H35.2552V30.8703C35.2552 30.2879 35.5074 29.9602 35.9755 29.9602C36.1197 29.9602 36.2998 29.9967 36.4439 30.033L36.6599 29.305C36.5159 29.2686 36.2998 29.2686 36.1558 29.2686ZM26.5035 31.0887C26.5035 32.1444 27.2237 32.9088 28.3403 32.9088C28.8445 32.9088 29.2046 32.7997 29.5647 32.5085L29.2046 31.8897C28.9165 32.108 28.6284 32.2172 28.3042 32.2172C27.6919 32.2172 27.2598 31.7804 27.2598 31.0887C27.2598 30.4335 27.6919 29.9965 28.3042 29.9602C28.6284 29.9602 28.9165 30.0693 29.2046 30.2879L29.5647 29.669C29.2046 29.3777 28.8445 29.2686 28.3403 29.2686C27.2237 29.2686 26.5035 30.033 26.5035 31.0887ZM33.4906 31.0887V29.3414H32.7342V29.7782C32.4821 29.4506 32.122 29.2686 31.6537 29.2686C30.6813 29.2686 29.925 30.033 29.925 31.0887C29.925 32.1444 30.6813 32.9088 31.6537 32.9088C32.1579 32.9088 32.5182 32.7269 32.7342 32.3992V32.836H33.4906V31.0887ZM30.7173 31.0887C30.7173 30.4698 31.1135 29.9602 31.7617 29.9602C32.374 29.9602 32.8063 30.4335 32.8063 31.0887C32.8063 31.7076 32.374 32.2172 31.7617 32.2172C31.1135 32.1807 30.7173 31.7076 30.7173 31.0887ZM21.6774 29.2686C20.6689 29.2686 19.9485 29.9965 19.9485 31.0887C19.9485 32.1808 20.6688 32.9088 21.7133 32.9088C22.2175 32.9088 22.7218 32.7632 23.118 32.4357L22.7578 31.8897C22.4697 32.108 22.1096 32.2536 21.7494 32.2536C21.2812 32.2536 20.813 32.0352 20.7049 31.4162H23.2621V31.1252C23.2982 29.9965 22.65 29.2686 21.6774 29.2686ZM21.6773 29.9237C22.1453 29.9237 22.4697 30.2151 22.5415 30.7612H20.7408C20.8128 30.2879 21.137 29.9237 21.6773 29.9237ZM40.4414 31.0887V27.958H39.6851V29.7782C39.4329 29.4506 39.0728 29.2686 38.6046 29.2686C37.6322 29.2686 36.8758 30.033 36.8758 31.0887C36.8758 32.1444 37.6322 32.9088 38.6046 32.9088C39.1089 32.9088 39.469 32.7269 39.6851 32.3992V32.836H40.4414V31.0887ZM37.6683 31.0887C37.6683 30.4698 38.0643 29.9602 38.7127 29.9602C39.325 29.9602 39.7571 30.4335 39.7571 31.0887C39.7571 31.7076 39.325 32.2172 38.7127 32.2172C38.0643 32.1807 37.6683 31.7076 37.6683 31.0887ZM12.3851 31.0887V29.3414H11.6287V29.7782C11.3766 29.4506 11.0165 29.2686 10.5482 29.2686C9.57584 29.2686 8.81951 30.033 8.81951 31.0887C8.81951 32.1444 9.57584 32.9088 10.5482 32.9088C11.0526 32.9088 11.4127 32.7269 11.6287 32.3992V32.836H12.3851V31.0887ZM9.57584 31.0887C9.57584 30.4698 9.97205 29.9602 10.6203 29.9602C11.2325 29.9602 11.6648 30.4335 11.6648 31.0887C11.6648 31.7076 11.2325 32.2172 10.6203 32.2172C9.97205 32.1807 9.57584 31.7076 9.57584 31.0887Z" fill="black"/>
<path d="M15.8066 2.80322H27.1516V23.4077H15.8066V2.80322Z" fill="#FF5F00"/>
<path d="M16.5271 13.1053C16.5271 8.91895 18.4719 5.20571 21.4611 2.80301C19.2643 1.05567 16.4912 0 13.4659 0C6.29846 0 0.5 5.8609 0.5 13.1053C0.5 20.3497 6.29846 26.2106 13.4657 26.2106C16.491 26.2106 19.2642 25.155 21.4611 23.4074C18.4719 21.0412 16.5271 17.2917 16.5271 13.1053Z" fill="#EB001B"/>
<path d="M42.4582 13.1053C42.4582 20.3496 36.6597 26.2106 29.4925 26.2106C26.4672 26.2106 23.694 25.155 21.4971 23.4074C24.5224 21.0049 26.4312 17.2917 26.4312 13.1053C26.4312 8.91895 24.4863 5.20571 21.4971 2.80301C23.6939 1.05567 26.4672 0 29.4925 0C36.6597 0 42.4582 5.89738 42.4582 13.1053Z" fill="#F79E1B"/>
</g>
<defs>
<clipPath id="clip0_3189_4742">
<rect width="42" height="33" fill="white" transform="translate(0.5)"/>
</clipPath>
</defs>
</svg>
