<svg width="121" height="116" viewBox="0 0 121 116" fill="none" xmlns="http://www.w3.org/2000/svg">
<path d="M9.86608 10.8985C9.87408 10.9749 9.87408 11.0519 9.86608 11.1283C9.86608 11.2954 9.86608 11.5043 9.86608 11.755C9.86608 12.333 9.86608 13.1478 9.90169 14.0948C9.90169 16.1213 9.95154 18.9694 9.98715 22.3189L9.82335 22.1657H21.5028C21.5456 22.1657 21.1539 22.5069 21.3248 22.3468V16.2884C21.3248 14.3734 21.3248 12.5628 21.3248 10.8985L21.4886 11.0587L13.0708 10.9751L10.6779 10.9333H10.037H9.80199C10.0724 10.9176 10.3435 10.9176 10.6139 10.9333L12.964 10.8915L21.51 10.8149H21.6666V10.9751C21.6666 12.6394 21.6666 14.4569 21.6666 16.365V22.2911C21.8304 22.1309 21.4388 22.5139 21.4744 22.4721H9.79486H9.63818V22.2911C9.67379 18.8789 9.70228 16.0238 9.71652 13.9347C9.71652 12.9737 9.71652 12.2077 9.75925 11.6297C9.80198 11.0517 9.85896 10.8846 9.86608 10.8985Z" fill="white"/>
<path d="M23.9881 8.3637C24.2231 8.55172 21.7448 11.8873 18.4546 15.8009C17.7424 16.6226 17.1015 17.4025 16.4819 18.1128L16.1187 18.5167L15.727 18.1755C12.9923 15.7661 11.1406 13.9346 11.2973 13.7536C11.454 13.5725 13.5834 15.0976 16.4178 17.3956L15.67 17.4583C16.254 16.7271 16.9092 15.9332 17.6 15.1115C20.8902 11.184 23.746 8.15479 23.9881 8.3637Z" fill="white"/>
<path d="M16.9236 0.00696515H16.6316H15.8055C15.6203 0.00696515 15.4067 0.00696515 15.1788 0.00696515L14.4239 0.111421L13.5408 0.236767L12.558 0.47353C10.8664 0.890603 9.25666 1.57762 7.79365 2.50692C5.62657 3.85416 3.80355 5.6685 2.46422 7.81097C1.12489 9.95344 0.304762 12.3672 0.0666645 14.8674C-8.04395e-05 15.6176 -0.0167273 16.3713 0.0168186 17.1237C0.0168186 17.5067 0.0168191 17.8897 0.0951572 18.2727C0.173495 18.6557 0.216225 19.0456 0.273198 19.4356C0.573432 21.0341 1.11338 22.5804 1.87557 24.0247C2.6876 25.5361 3.71906 26.9246 4.93788 28.1471C6.23882 29.395 7.72797 30.4401 9.3533 31.246C11.0358 32.0923 12.8589 32.6393 14.7373 32.8615C15.2088 32.9321 15.6846 32.9716 16.1616 32.9799C16.636 33.0067 17.1115 33.0067 17.5859 32.9799C18.5631 32.9387 19.535 32.8176 20.4915 32.6178C22.553 32.1837 24.514 31.3785 26.2743 30.2432H26.1034L31.993 32.5551L32.342 32.6944L32.2423 32.3393C31.6512 30.2502 31.0672 28.1611 30.5117 26.1764V26.3296C32.0861 24.2715 33.147 21.8821 33.6096 19.352C33.8365 18.1657 33.9131 16.9565 33.8375 15.7518C33.8302 15.1705 33.7754 14.5907 33.6737 14.0179C33.631 13.7324 33.5811 13.4538 33.5384 13.1753C33.4957 12.8967 33.4031 12.6251 33.3319 12.3605C32.3476 8.57245 30.0177 5.25012 26.7586 2.98741C25.5559 2.14263 24.2404 1.46315 22.8488 0.967949L21.9657 0.661552L21.1254 0.452639L20.3634 0.264623L19.6512 0.160167C19.2025 0.104457 18.8108 0.0348213 18.469 0.0139303H17.6073H17.0732H16.8951C16.9543 0.0206695 17.014 0.0206695 17.0732 0.0139303L17.6002 0.0557106L18.4619 0.111421C18.8037 0.111421 19.174 0.22284 19.6298 0.285513C22.8278 0.823138 25.7972 2.25787 28.1767 4.41521C30.5562 6.57254 32.2433 9.3595 33.0328 12.4371C33.0969 12.7017 33.1823 12.9663 33.2322 13.2379C33.282 13.5095 33.3105 13.7881 33.3532 14.0666C33.4523 14.6279 33.5047 15.1962 33.5099 15.7657C33.5796 16.9499 33.5007 18.1379 33.2749 19.3033C32.803 21.8042 31.7396 24.1627 30.1699 26.1904L30.12 26.26V26.3436L31.8435 32.5064L32.0927 32.2905L26.253 29.9507L26.1604 29.909L26.0749 29.9647C23.5474 31.6013 20.6081 32.5264 17.5788 32.6387C17.1044 32.6634 16.6289 32.6634 16.1545 32.6387C15.6774 32.632 15.2015 32.5924 14.7301 32.5203C12.8941 32.3057 11.112 31.7727 9.46724 30.9465C7.87511 30.1638 6.41681 29.1443 5.1444 27.9243C3.94733 26.7288 2.93274 25.3709 2.13195 23.8923C1.38349 22.4811 0.850816 20.9702 0.550942 19.4077C0.486847 19.0247 0.429878 18.6417 0.365783 18.2657C0.301688 17.8897 0.315931 17.5136 0.287445 17.1376C0.252802 16.3994 0.264686 15.6599 0.323044 14.9231C0.547181 12.462 1.3415 10.0831 2.64575 7.96684C3.95001 5.85055 5.72996 4.05244 7.85063 2.70887C9.29045 1.77113 10.875 1.06577 12.5438 0.619766L13.5123 0.369073L14.3812 0.229802L15.129 0.104456L15.7556 0.0626758L16.6103 0C16.7141 0.0143739 16.8192 0.0167128 16.9236 0.00696515Z" fill="white"/>
<path opacity="0.7" d="M111.796 50.8736L102.326 6.81708C101.873 4.93504 100.819 3.25175 99.3239 2.0218C97.829 0.791856 95.9743 0.0821437 94.0402 0H57.7603C59.6936 0.0848381 61.547 0.795534 63.0414 2.02505C64.5357 3.25457 65.5902 4.93633 66.0459 6.81708L75.508 50.8736C75.9638 52.7544 77.0182 54.4362 78.5126 55.6657C80.007 56.8952 72.7554 21.0712 83.7937 57.6907C94.832 94.3102 120.082 57.6907 120.082 57.6907C118.148 57.6072 116.294 56.897 114.799 55.6673C113.305 54.4376 112.251 52.755 111.796 50.8736Z" fill="white"/>
<path d="M57.7601 0H94.04C92.1827 0.034498 90.402 0.746412 89.0329 2.00185C87.6637 3.25729 86.8005 4.96974 86.6055 6.81708L77.1934 109.182C76.9965 111.03 76.1315 112.742 74.761 113.998C73.3904 115.253 71.6087 115.965 69.7505 115.999H47.1047C46.2324 116.015 45.3667 115.845 44.5655 115.5C43.7643 115.154 43.0462 114.642 42.4592 113.996C41.8722 113.351 41.4299 112.587 41.1619 111.757C40.8939 110.927 40.8063 110.049 40.9051 109.182L50.3172 6.81708C50.5141 4.96903 51.3791 3.25648 52.7496 2.00119C54.1202 0.745901 55.9019 0.0342725 57.7601 0Z" fill="white"/>
<g opacity="0.5">
<path d="M80.3554 11.473H55.7572C55.5677 11.4754 55.38 11.4375 55.2064 11.3617C55.0328 11.286 54.8773 11.1741 54.7502 11.0336C54.6231 10.8932 54.5274 10.7272 54.4694 10.5469C54.4114 10.3666 54.3924 10.176 54.4138 9.98779C54.4581 9.58622 54.6466 9.21436 54.9443 8.94123C55.242 8.66809 55.6286 8.51223 56.0325 8.50255H80.589C80.7784 8.50016 80.9662 8.53811 81.1398 8.61386C81.3134 8.68962 81.4689 8.80145 81.596 8.94193C81.723 9.08241 81.8188 9.24833 81.8768 9.42865C81.9348 9.60897 81.9537 9.79957 81.9324 9.98779C81.8892 10.3825 81.7067 10.7489 81.4177 11.0211C81.1286 11.2933 80.752 11.4535 80.3554 11.473Z" fill="#FBC8C8"/>
<path d="M79.5877 19.4995H55.0311C54.841 19.5031 54.6524 19.4661 54.4777 19.3908C54.3031 19.3156 54.1466 19.2039 54.0186 19.0633C53.8906 18.9227 53.7941 18.7564 53.7357 18.5754C53.6772 18.3945 53.658 18.2032 53.6794 18.0143C53.7237 17.6127 53.9122 17.2409 54.2099 16.9677C54.5076 16.6946 54.8943 16.5387 55.2981 16.529H79.8547C80.0448 16.5255 80.2335 16.5625 80.4081 16.6378C80.5827 16.713 80.7392 16.8246 80.8672 16.9653C80.9952 17.1059 81.0917 17.2722 81.1502 17.4531C81.2087 17.634 81.2278 17.8254 81.2064 18.0143C81.1621 18.4159 80.9736 18.7877 80.6759 19.0608C80.3782 19.334 79.9916 19.4898 79.5877 19.4995Z" fill="#FBC8C8"/>
<path d="M72.8455 27.5347H54.2967C54.1073 27.5371 53.9195 27.4991 53.7459 27.4234C53.5723 27.3476 53.4168 27.2358 53.2898 27.0953C53.1627 26.9548 53.067 26.7889 53.009 26.6086C52.951 26.4283 52.932 26.2377 52.9533 26.0494C52.9976 25.6479 53.1861 25.276 53.4838 25.0029C53.7815 24.7297 54.1682 24.5739 54.5721 24.5642H73.1042C73.2943 24.5606 73.483 24.5977 73.6576 24.6729C73.8322 24.7481 73.9887 24.8598 74.1167 25.0004C74.2447 25.141 74.3412 25.3074 74.3997 25.4883C74.4582 25.6692 74.4773 25.8605 74.4559 26.0494C74.4118 26.4496 74.2245 26.8204 73.9285 27.0933C73.6326 27.3663 73.2479 27.523 72.8455 27.5347Z" fill="#FBC8C8"/>
<path d="M59.8538 35.6038H53.5707C53.3814 35.6073 53.1935 35.5704 53.0196 35.4957C52.8456 35.421 52.6895 35.3101 52.5617 35.1704C52.4338 35.0307 52.3371 34.8654 52.2781 34.6855C52.219 34.5056 52.1989 34.3152 52.219 34.1269C52.2633 33.7254 52.4518 33.3535 52.7495 33.0804C53.0472 32.8073 53.4339 32.6514 53.8378 32.6417H60.1292C60.3186 32.6393 60.5063 32.6773 60.6799 32.753C60.8535 32.8288 61.009 32.9406 61.1361 33.0811C61.2632 33.2216 61.3589 33.3875 61.4169 33.5678C61.4749 33.7481 61.4939 33.9387 61.4726 34.1269C61.4263 34.527 61.237 34.8969 60.9395 35.1683C60.642 35.4397 60.2564 35.5944 59.8538 35.6038Z" fill="#FBC8C8"/>
<path d="M77.3929 43.5972H52.8197C52.6302 43.5996 52.4425 43.5616 52.2689 43.4859C52.0953 43.4101 51.9398 43.2983 51.8127 43.1578C51.6856 43.0173 51.5899 42.8514 51.5319 42.6711C51.4739 42.4908 51.4549 42.3002 51.4763 42.1119C51.5206 41.7104 51.7091 41.3385 52.0068 41.0654C52.3045 40.7922 52.6911 40.6364 53.095 40.6267H77.6432C77.8333 40.6231 78.022 40.6602 78.1966 40.7354C78.3712 40.8106 78.5278 40.9223 78.6557 41.0629C78.7837 41.2035 78.8802 41.3699 78.9387 41.5508C78.9972 41.7317 79.0163 41.923 78.9949 42.1119C78.951 42.5107 78.7649 42.8804 78.4707 43.1531C78.1765 43.4259 77.7938 43.5835 77.3929 43.5972Z" fill="#FBC8C8"/>
<path d="M67.0049 51.6327H52.1107C51.9206 51.6363 51.7319 51.5992 51.5573 51.524C51.3827 51.4488 51.2262 51.3371 51.0982 51.1965C50.9702 51.0559 50.8737 50.8895 50.8152 50.7086C50.7567 50.5277 50.7376 50.3364 50.759 50.1474C50.8033 49.7459 50.9918 49.374 51.2895 49.1009C51.5872 48.8278 51.9738 48.6719 52.3777 48.6622H67.2635C67.4532 48.66 67.6413 48.6979 67.8152 48.7736C67.9892 48.8493 68.1452 48.961 68.2729 49.1013C68.4006 49.2416 68.4971 49.4074 68.5561 49.5877C68.6152 49.768 68.6353 49.9588 68.6152 50.1474C68.5711 50.5476 68.3838 50.9184 68.0879 51.1913C67.7919 51.4643 67.4073 51.621 67.0049 51.6327Z" fill="#FBC8C8"/>
<path d="M75.9333 59.6595H51.3768C51.1874 59.6619 50.9996 59.624 50.826 59.5482C50.6524 59.4725 50.4969 59.3606 50.3698 59.2202C50.2428 59.0797 50.147 58.9138 50.089 58.7334C50.031 58.5531 50.0121 58.3625 50.0334 58.1743C50.0777 57.7727 50.2662 57.4009 50.5639 57.1277C50.8616 56.8546 51.2482 56.6987 51.6521 56.6891H76.1836C76.3733 56.6868 76.5614 56.7248 76.7354 56.8005C76.9093 56.8761 77.0653 56.9878 77.193 57.1281C77.3207 57.2684 77.4173 57.4342 77.4763 57.6145C77.5353 57.7949 77.5554 57.9856 77.5354 58.1743C77.4915 58.5731 77.3054 58.9427 77.0111 59.2155C76.7169 59.4883 76.3343 59.6459 75.9333 59.6595Z" fill="#FBC8C8"/>
<path d="M69.1829 67.6948H50.6508C50.4607 67.6984 50.272 67.6614 50.0974 67.5861C49.9227 67.5109 49.7662 67.3993 49.6382 67.2586C49.5102 67.118 49.4138 66.9517 49.3553 66.7708C49.2968 66.5899 49.2776 66.3985 49.299 66.2096C49.3434 65.808 49.5318 65.4362 49.8295 65.1631C50.1272 64.8899 50.5139 64.734 50.9178 64.7244H69.4499C69.64 64.7208 69.8287 64.7578 70.0033 64.8331C70.1779 64.9083 70.3345 65.02 70.4624 65.1606C70.5904 65.3012 70.6869 65.4675 70.7454 65.6484C70.8039 65.8293 70.8231 66.0207 70.8016 66.2096C70.7573 66.6112 70.5688 66.983 70.2711 67.2562C69.9734 67.5293 69.5868 67.6852 69.1829 67.6948Z" fill="#FBC8C8"/>
<path d="M56.2073 75.73H49.9159C49.7262 75.7322 49.5382 75.6943 49.3642 75.6186C49.1902 75.5429 49.0342 75.4312 48.9065 75.2909C48.7788 75.1506 48.6823 74.9848 48.6233 74.8045C48.5643 74.6242 48.5441 74.4334 48.5642 74.2448C48.6087 73.8418 48.7984 73.4688 49.0978 73.1955C49.3972 72.9222 49.7859 72.7672 50.1913 72.7595H56.4743C56.6644 72.7559 56.8531 72.793 57.0277 72.8682C57.2023 72.9434 57.3589 73.0551 57.4869 73.1957C57.6148 73.3363 57.7113 73.5027 57.7698 73.6836C57.8283 73.8645 57.8475 74.0558 57.8261 74.2448C57.7817 74.6463 57.5932 75.0182 57.2956 75.2913C56.9979 75.5644 56.6112 75.7203 56.2073 75.73Z" fill="#FBC8C8"/>
<path d="M73.738 83.7577H49.1898C48.9997 83.7613 48.811 83.7242 48.6364 83.649C48.4618 83.5738 48.3053 83.4621 48.1773 83.3215C48.0493 83.1809 47.9528 83.0145 47.8943 82.8336C47.8358 82.6527 47.8167 82.4614 47.8381 82.2725C47.8824 81.8709 48.0709 81.499 48.3686 81.2259C48.6663 80.9528 49.053 80.7969 49.4568 80.7872H74.0134C74.2028 80.7848 74.3905 80.8228 74.5641 80.8985C74.7377 80.9743 74.8932 81.0861 75.0203 81.2266C75.1474 81.3671 75.2431 81.533 75.3011 81.7133C75.3591 81.8936 75.3781 82.0842 75.3568 82.2725C75.3124 82.674 75.1239 83.0459 74.8262 83.319C74.5286 83.5922 74.1419 83.748 73.738 83.7577Z" fill="#FBC8C8"/>
<path d="M63.3422 91.7925H48.4564C48.2663 91.7961 48.0777 91.759 47.903 91.6838C47.7284 91.6086 47.5719 91.4969 47.4439 91.3563C47.3159 91.2157 47.2194 91.0493 47.1609 90.8684C47.1024 90.6875 47.0833 90.4962 47.1047 90.3073C47.149 89.9057 47.3375 89.5338 47.6352 89.2607C47.9329 88.9876 48.3196 88.8317 48.7234 88.822H63.6092C63.7993 88.8184 63.988 88.8555 64.1626 88.9307C64.3372 89.0059 64.4938 89.1176 64.6218 89.2582C64.7497 89.3988 64.8462 89.5652 64.9047 89.7461C64.9632 89.927 64.9824 90.1183 64.961 90.3073C64.9166 90.7088 64.7281 91.0807 64.4305 91.3538C64.1328 91.6269 63.7461 91.7828 63.3422 91.7925Z" fill="#FBC8C8"/>
<path d="M72.2785 99.8528H47.7304C47.5402 99.8564 47.3516 99.8194 47.177 99.7441C47.0023 99.6689 46.8458 99.5573 46.7178 99.4166C46.5898 99.276 46.4934 99.1097 46.4349 98.9288C46.3764 98.7479 46.3572 98.5565 46.3786 98.3676C46.4248 97.9675 46.6141 97.5977 46.9116 97.3263C47.2091 97.0548 47.5948 96.9001 47.9974 96.8907H72.5539C72.7425 96.8885 72.9295 96.9262 73.1024 97.0015C73.2754 97.0767 73.4305 97.1878 73.5574 97.3273C73.6843 97.4669 73.7803 97.6317 73.8388 97.811C73.8974 97.9903 73.9173 98.18 73.8973 98.3676C73.853 98.7692 73.6645 99.141 73.3668 99.4142C73.0691 99.6873 72.6824 99.8432 72.2785 99.8528Z" fill="#FBC8C8"/>
</g>
</svg>
