<svg width="393" height="481" viewBox="0 0 393 481" fill="none" xmlns="http://www.w3.org/2000/svg">
<path d="M2 104.325C283.874 -15.7226 365.52 -11.1385 397 104.325V339C240.58 290.075 153.117 318.029 -2.5 480.5L2 104.325Z" fill="#CC0000"/>
<circle cx="359.5" cy="49.5" r="42.5" fill="white" fill-opacity="0.2"/>
<circle cx="317" cy="30" r="30" fill="white" fill-opacity="0.2"/>
<circle cx="312" cy="67" r="4" fill="white" fill-opacity="0.39"/>
<circle cx="16.5" cy="99.5" r="42.5" fill="white" fill-opacity="0.2"/>
<circle cx="55" cy="74" r="24" fill="white" fill-opacity="0.2"/>
<circle cx="68" cy="102" r="4" fill="white" fill-opacity="0.39"/>
<path d="M252.357 98.2038C252.151 97.991 245.433 88.6298 244.504 87.7723C243.576 86.9149 236.123 87.7014 234.834 84.4843C233.544 81.2672 233.338 74.7685 237.264 71.9769C241.19 69.1853 245.484 68.1924 245.768 67.7605C246.052 67.3285 244.724 57.7545 250.5 54.6857C256.277 51.6169 264.136 59.8434 264.568 59.8434C265 59.8434 267.404 54.4794 271.66 54.2667C275.915 54.0539 279.815 60.7138 280.885 60.63C281.956 60.5461 287.713 59.9852 292.02 63.3442C296.326 66.7031 291.749 74.1367 290.53 75.2069C289.312 76.2771 290.176 87.3533 290.176 87.3533L252.357 98.2038Z" fill="white" fill-opacity="0.35"/>
<path d="M256.186 93.9166C255.756 93.5379 255.395 93.0861 255.122 92.582C254.806 92.092 254.478 91.602 254.142 91.125C253.447 90.1759 252.682 89.2794 251.854 88.443C251.251 87.6818 250.412 87.144 249.468 86.915C249.055 86.8599 248.634 86.9319 248.263 87.1213C248.023 87.2245 247.805 87.371 247.618 87.5533C247.49 87.7613 247.373 87.9766 247.27 88.198C247.231 88.256 247.334 88.314 247.366 88.2495C247.468 87.971 247.67 87.7408 247.934 87.6048C248.151 87.4986 248.381 87.4185 248.617 87.3663C249.123 87.2745 249.646 87.3757 250.081 87.65C250.894 88.2074 251.605 88.901 252.182 89.7001C252.827 90.4738 253.504 91.241 254.162 92.0082C254.819 92.7754 255.296 93.6587 256.135 94.0842C256.167 94.0648 256.251 93.9617 256.186 93.9166Z" fill="white" fill-opacity="0.46"/>
<path d="M258.52 93.7294C257.166 91.7351 255.806 89.7451 254.439 87.7594C252.977 85.7972 251.746 83.6728 250.771 81.4283C250.771 81.3639 250.642 81.3961 250.661 81.4283C251.461 83.7393 252.516 85.9537 253.807 88.0302C255.187 90.0675 256.729 91.9906 258.417 93.781C258.469 93.8713 258.565 93.7939 258.52 93.7294Z" fill="white" fill-opacity="0.46"/>
<path d="M264.284 90.0288C263.407 88.1591 262.35 86.3668 261.292 84.5874C260.377 83.018 259.259 81.5765 257.966 80.3001C257.914 80.2485 257.843 80.3001 257.888 80.3774C259.126 81.7636 259.893 83.472 260.803 85.0709C261.802 86.8181 262.801 88.5846 263.955 90.2286C263.984 90.2668 264.026 90.2928 264.073 90.3017C264.12 90.3107 264.169 90.3018 264.21 90.277C264.251 90.2521 264.281 90.213 264.295 90.1672C264.308 90.1213 264.304 90.072 264.284 90.0288Z" fill="white" fill-opacity="0.46"/>
<path d="M273.091 72.5121C272.838 72.3305 272.549 72.2071 272.243 72.1507C271.937 72.0943 271.622 72.1062 271.322 72.1857C271.021 72.2652 270.741 72.4103 270.503 72.6105C270.265 72.8107 270.075 73.0611 269.945 73.3438C269.261 74.7557 269.519 76.5673 269.719 78.0889C269.953 79.7173 270.386 81.3108 271.008 82.8339C271.708 84.5531 272.632 86.1724 273.755 87.6499C273.759 87.6559 273.764 87.661 273.769 87.665C273.775 87.669 273.782 87.6719 273.789 87.6733C273.796 87.6748 273.803 87.675 273.81 87.6737C273.816 87.6725 273.823 87.6699 273.829 87.666C273.835 87.6622 273.84 87.6573 273.844 87.6515C273.848 87.6457 273.851 87.6392 273.852 87.6323C273.854 87.6254 273.854 87.6183 273.853 87.6114C273.852 87.6045 273.849 87.5978 273.845 87.5919C272.373 85.0836 271.36 82.3327 270.854 79.4685C270.593 78.0608 270.464 76.6321 270.467 75.2005C270.467 74.0014 271.112 72.0479 272.717 72.6217C274.206 73.1568 274.593 75.0909 275.554 76.1805C275.554 76.1805 275.612 76.1805 275.592 76.1418C274.632 74.9555 274.38 73.4018 273.091 72.5121Z" fill="white" fill-opacity="0.46"/>
<path d="M287.229 71.8673C285.676 73.7257 284.787 76.0487 284.702 78.4692C284.628 79.8111 284.693 81.1571 284.895 82.4857C285.028 83.8673 285.298 85.2322 285.701 86.5603C285.701 86.574 285.707 86.5871 285.716 86.5968C285.726 86.6065 285.739 86.6119 285.753 86.6119C285.767 86.6119 285.78 86.6065 285.789 86.5968C285.799 86.5871 285.805 86.574 285.805 86.5603C285.805 85.2709 285.482 83.9815 285.437 82.692C285.372 81.3826 285.406 80.07 285.54 78.7657C285.675 77.6173 285.89 76.4798 286.185 75.3617C286.498 74.2317 286.93 73.1382 287.474 72.0994C287.545 71.8996 287.345 71.7319 287.229 71.8673Z" fill="white" fill-opacity="0.46"/>
<path d="M281.349 80.6481C280.96 78.6006 280.424 76.5839 279.744 74.6136C279.732 74.5726 279.704 74.538 279.667 74.5174C279.629 74.4969 279.585 74.492 279.544 74.504C279.503 74.516 279.469 74.5438 279.448 74.5812C279.428 74.6187 279.423 74.6628 279.435 74.7039C279.925 76.7089 280.286 78.7462 280.647 80.7771C281.008 82.8079 281.233 84.8323 281.717 86.8116C281.717 86.876 281.82 86.8502 281.827 86.8116C281.937 84.7451 281.777 82.673 281.349 80.6481Z" fill="white" fill-opacity="0.46"/>
<path d="M254.067 103C253.683 101.664 268.816 90.5343 291.586 93.7127C292.651 93.8592 291.458 86.2569 290.304 85.5694C289.149 84.8819 259.191 82.5713 250.06 96.7052C249.425 97.6576 254.067 103 254.067 103Z" fill="#F4C8C8"/>
<path d="M288.589 118.021C288.589 118.021 284.333 116.07 287.761 110.276C290.487 105.659 296.183 100.736 307.792 96.6778C320.674 92.1846 334.007 92.9257 336.079 98.0204C338.15 103.115 332.944 104.326 325.365 107.485C319.284 110.015 309.009 113.443 303.168 115.366C301.111 116.084 293.864 118.178 291.686 118.316C290.351 118.405 289.102 118.366 288.589 118.021Z" fill="#E27171"/>
<path d="M294.082 103.531C294.108 105.489 294.263 107.444 294.544 109.383C294.547 109.557 294.606 109.726 294.712 109.864C294.987 110.137 295.455 109.884 295.715 109.596C296.281 108.914 296.727 108.142 297.036 107.311C298.139 104.75 299.283 102.305 300.384 99.737C298.177 100.817 296.068 102.086 294.082 103.531Z" fill="#F4C8C8"/>
<path d="M306.232 97.247C305.673 99.6964 305.341 102.192 305.241 104.703C305.207 105.263 305.248 105.944 305.77 106.22C305.947 106.303 306.144 106.336 306.339 106.315C306.533 106.293 306.718 106.218 306.872 106.097C307.179 105.855 307.439 105.559 307.64 105.224L314.678 94.7673C311.789 95.3212 308.961 96.1516 306.232 97.247Z" fill="#F4C8C8"/>
<path d="M322.697 93.7376C321.136 96.0997 319.76 98.5791 318.582 101.154C318.39 101.564 318.237 102.158 318.622 102.416C319.007 102.675 319.389 102.41 319.718 102.181C322.886 99.9856 325.566 97.1595 327.59 93.8799C325.964 93.7146 324.329 93.667 322.697 93.7376Z" fill="#F4C8C8"/>
<path d="M244.862 119.362C244.862 119.362 242.831 115.142 249.168 112.87C254.213 111.057 261.74 110.902 273.268 115.189C286.052 119.952 295.842 129.033 294.185 134.277C292.528 139.521 287.747 137.13 279.896 134.724C273.601 132.791 263.503 128.871 257.779 126.623C255.737 125.862 248.822 122.849 247.058 121.565C245.973 120.781 245.037 119.954 244.862 119.362Z" fill="white" fill-opacity="0.44"/>
<path d="M258.339 111.712C257.109 113.237 255.98 114.84 254.959 116.512C254.85 116.648 254.788 116.816 254.781 116.99C254.819 117.375 255.341 117.479 255.724 117.424C256.595 117.26 257.432 116.95 258.2 116.508C260.684 115.241 263.125 114.089 265.611 112.814C263.224 112.237 260.79 111.868 258.339 111.712Z" fill="white" fill-opacity="0.61"/>
<path d="M271.703 114.631C269.709 116.159 267.861 117.869 266.181 119.737C265.798 120.147 265.395 120.697 265.62 121.243C265.703 121.42 265.834 121.571 265.998 121.679C266.161 121.787 266.352 121.847 266.547 121.852C266.938 121.862 267.327 121.8 267.695 121.67L279.788 118.113C277.211 116.696 274.503 115.53 271.703 114.631Z" fill="white" fill-opacity="0.61"/>
<path d="M286.617 122.438C283.908 123.26 281.267 124.291 278.717 125.521C278.307 125.714 277.81 126.073 277.941 126.518C278.072 126.963 278.535 127.003 278.935 127.037C282.775 127.369 286.642 126.904 290.293 125.671C289.147 124.506 287.919 123.426 286.617 122.438Z" fill="white" fill-opacity="0.61"/>
</svg>
