<svg width="104" height="86" viewBox="0 0 104 86" fill="none" xmlns="http://www.w3.org/2000/svg">
<path d="M18.3569 44.2038C18.1506 43.991 11.4327 34.6298 10.5043 33.7723C9.57593 32.9149 2.12306 33.7014 0.833633 30.4843C-0.455792 27.2672 -0.662107 20.7685 3.26419 17.9769C7.19049 15.1853 11.4843 14.1924 11.7679 13.7605C12.0516 13.3285 10.7235 3.75454 16.5001 0.68571C22.2768 -2.38312 30.1358 5.84341 30.5678 5.84341C30.9997 5.84341 33.4045 0.479406 37.6596 0.266651C41.9147 0.0538958 45.8152 6.71377 46.8854 6.62996C47.9556 6.54614 53.7129 5.98524 58.0196 9.34419C62.3263 12.7031 57.7488 20.1367 56.5303 21.2069C55.3118 22.2771 56.1757 33.3533 56.1757 33.3533L18.3569 44.2038Z" fill="white" fill-opacity="0.35"/>
<path d="M22.1862 39.9166C21.7556 39.5379 21.3955 39.0861 21.1224 38.582C20.8065 38.092 20.4777 37.602 20.1424 37.125C19.4465 36.1759 18.6815 35.2794 17.8537 34.443C17.2512 33.6818 16.4116 33.144 15.4683 32.915C15.0548 32.8599 14.6343 32.9319 14.2626 33.1213C14.0231 33.2245 13.8045 33.371 13.6179 33.5533C13.4896 33.7613 13.3734 33.9766 13.2698 34.198C13.2311 34.256 13.3343 34.314 13.3665 34.2495C13.4679 33.971 13.6704 33.7408 13.9338 33.6048C14.1514 33.4986 14.3808 33.4185 14.6172 33.3663C15.1234 33.2745 15.6455 33.3757 16.0807 33.65C16.894 34.2074 17.605 34.901 18.1825 35.7001C18.8272 36.4738 19.5042 37.241 20.1618 38.0082C20.8194 38.7754 21.2965 39.6587 22.1346 40.0842C22.1668 40.0648 22.2506 39.9617 22.1862 39.9166Z" fill="white" fill-opacity="0.46"/>
<path d="M24.5202 39.7294C23.1663 37.7351 21.806 35.7451 20.4392 33.7594C18.9769 31.7972 17.746 29.6728 16.7708 27.4283C16.7708 27.3639 16.6418 27.3961 16.6612 27.4283C17.4606 29.7393 18.5159 31.9537 19.8074 34.0302C21.1875 36.0675 22.729 37.9906 24.417 39.781C24.4686 39.8713 24.5653 39.7939 24.5202 39.7294Z" fill="white" fill-opacity="0.46"/>
<path d="M30.2839 36.0288C29.4071 34.1591 28.3498 32.3668 27.2925 30.5874C26.3772 29.018 25.2586 27.5765 23.9658 26.3001C23.9142 26.2485 23.8433 26.3001 23.8884 26.3774C25.1263 27.7636 25.8935 29.472 26.8025 31.0709C27.8018 32.8181 28.8011 34.5846 29.9551 36.2286C29.9841 36.2668 30.0261 36.2928 30.0731 36.3017C30.1201 36.3107 30.1688 36.3018 30.2097 36.277C30.2506 36.2521 30.2808 36.213 30.2945 36.1672C30.3082 36.1213 30.3045 36.072 30.2839 36.0288Z" fill="white" fill-opacity="0.46"/>
<path d="M39.0908 18.5121C38.8383 18.3305 38.5487 18.2071 38.2428 18.1507C37.9369 18.0943 37.6223 18.1062 37.3215 18.1857C37.0208 18.2652 36.7414 18.4103 36.5034 18.6105C36.2653 18.8107 36.0745 19.0611 35.9446 19.3438C35.2612 20.7557 35.5191 22.5673 35.719 24.0889C35.9534 25.7173 36.3864 27.3108 37.0084 28.8339C37.7081 30.5531 38.6315 32.1724 39.7549 33.6499C39.7587 33.6559 39.7636 33.661 39.7694 33.665C39.7752 33.669 39.7817 33.6719 39.7886 33.6733C39.7955 33.6748 39.8026 33.675 39.8095 33.6737C39.8165 33.6725 39.8231 33.6699 39.829 33.666C39.835 33.6622 39.8401 33.6573 39.8441 33.6515C39.8481 33.6457 39.851 33.6392 39.8525 33.6323C39.8539 33.6254 39.8541 33.6183 39.8528 33.6114C39.8516 33.6045 39.849 33.5978 39.8452 33.5919C38.3727 31.0836 37.3597 28.3327 36.8537 25.4685C36.5934 24.0608 36.4639 22.6321 36.4669 21.2005C36.4669 20.0014 37.1116 18.0479 38.7169 18.6217C40.2062 19.1568 40.593 21.0909 41.5536 22.1805C41.5536 22.1805 41.6117 22.1805 41.5923 22.1418C40.6317 20.9555 40.3803 19.4018 39.0908 18.5121Z" fill="white" fill-opacity="0.46"/>
<path d="M53.2293 17.8673C51.6762 19.7257 50.7869 22.0487 50.7021 24.4692C50.6279 25.8111 50.6927 27.1571 50.8955 28.4857C51.0282 29.8673 51.2982 31.2322 51.7014 32.5603C51.7014 32.574 51.7068 32.5871 51.7165 32.5968C51.7261 32.6065 51.7393 32.6119 51.7529 32.6119C51.7666 32.6119 51.7797 32.6065 51.7894 32.5968C51.7991 32.5871 51.8045 32.574 51.8045 32.5603C51.8045 31.2709 51.4822 29.9815 51.437 28.692C51.3716 27.3826 51.406 26.07 51.5402 24.7657C51.6748 23.6173 51.8903 22.4798 52.1849 21.3617C52.4982 20.2317 52.9304 19.1382 53.4743 18.0994C53.5452 17.8996 53.3454 17.7319 53.2293 17.8673Z" fill="white" fill-opacity="0.46"/>
<path d="M47.3495 26.6481C46.9601 24.6006 46.4236 22.5839 45.7441 20.6136C45.7322 20.5726 45.7044 20.538 45.6669 20.5174C45.6294 20.4969 45.5853 20.492 45.5443 20.504C45.5032 20.516 45.4686 20.5438 45.4481 20.5812C45.4275 20.6187 45.4227 20.6628 45.4347 20.7039C45.9247 22.7089 46.2857 24.7462 46.6467 26.7771C47.0078 28.8079 47.2334 30.8323 47.7169 32.8116C47.7169 32.876 47.8201 32.8502 47.8266 32.8116C47.9371 30.7451 47.7767 28.673 47.3495 26.6481Z" fill="white" fill-opacity="0.46"/>
<path d="M20.0674 49C19.6826 47.6644 34.8158 36.5343 57.5862 39.7127C58.6506 39.8592 57.4579 32.2569 56.3037 31.5694C55.1495 30.8819 25.1909 28.5713 16.0596 42.7052C15.4248 43.6576 20.0674 49 20.0674 49Z" fill="#F4C8C8"/>
<path d="M54.5893 64.0214C54.5893 64.0214 50.3331 62.0697 53.7612 56.2758C56.4873 51.6594 62.1825 46.7357 73.7925 42.6778C86.6741 38.1846 100.007 38.9257 102.079 44.0204C104.15 49.115 98.9435 50.3257 91.3646 53.4847C85.2844 56.0147 75.0095 59.4432 69.1676 61.3663C67.1106 62.0838 59.8639 64.1779 57.6865 64.3156C56.3513 64.405 55.1023 64.3661 54.5893 64.0214Z" fill="#E27171"/>
<path d="M60.0815 49.5307C60.1084 51.4895 60.2629 53.4444 60.5438 55.3831C60.5471 55.5573 60.6059 55.726 60.7117 55.8645C60.9867 56.1368 61.4547 55.8835 61.7146 55.5965C62.2806 54.9144 62.7275 54.1417 63.0364 53.3109C64.1394 50.7498 65.2832 48.3054 66.3836 45.737C64.177 46.8167 62.0684 48.0861 60.0815 49.5307Z" fill="#F4C8C8"/>
<path d="M72.2318 43.247C71.6726 45.6964 71.3408 48.1922 71.2406 50.7026C71.2068 51.2626 71.248 51.9437 71.7698 52.2199C71.947 52.3034 72.1438 52.3362 72.3385 52.3145C72.5332 52.2928 72.718 52.2176 72.8724 52.0971C73.179 51.855 73.439 51.5591 73.6397 51.224L80.6777 40.7673C77.7894 41.3212 74.9611 42.1516 72.2318 43.247Z" fill="#F4C8C8"/>
<path d="M88.6966 39.7376C87.1359 42.0997 85.7604 44.5791 84.5825 47.1536C84.3903 47.5642 84.2373 48.1576 84.622 48.4161C85.0067 48.6747 85.3891 48.4104 85.7182 48.181C88.8857 45.9856 91.5656 43.1595 93.5898 39.8799C91.9643 39.7146 90.329 39.667 88.6966 39.7376Z" fill="#F4C8C8"/>
<path d="M10.8617 65.3616C10.8617 65.3616 8.83104 61.1424 15.1682 58.8705C20.2133 57.0569 27.7402 56.9018 39.2676 61.1887C52.0518 65.9521 61.8423 75.033 60.1852 80.2771C58.528 85.5212 53.7471 83.1298 45.8965 80.724C39.6012 78.7905 29.5032 74.8714 23.7786 72.623C21.7372 71.8623 14.8221 68.8488 13.058 67.5649C11.9732 66.7815 11.0365 65.9543 10.8617 65.3616Z" fill="white" fill-opacity="0.44"/>
<path d="M24.3385 57.712C23.109 59.237 21.98 60.8405 20.9588 62.5122C20.8502 62.6485 20.7878 62.8158 20.7808 62.99C20.8187 63.3751 21.3406 63.4789 21.7239 63.4238C22.595 63.26 23.4322 62.9504 24.2003 62.5081C26.6841 61.2406 29.1248 60.089 31.6113 58.8143C29.2235 58.237 26.7901 57.8682 24.3385 57.712Z" fill="white" fill-opacity="0.61"/>
<path d="M37.7032 60.6307C35.7093 62.1593 33.8608 63.8688 32.1812 65.7374C31.7978 66.1468 31.3948 66.6974 31.6202 67.2431C31.7032 67.4205 31.8339 67.5714 31.9975 67.6789C32.1612 67.7865 32.3516 67.8465 32.5474 67.8524C32.9379 67.8617 33.3269 67.7999 33.6953 67.67L45.7875 64.1129C43.2106 62.6957 40.5033 61.5296 37.7032 60.6307Z" fill="white" fill-opacity="0.61"/>
<path d="M52.6172 68.4382C49.9081 69.2603 47.2667 70.291 44.7167 71.5209C44.3066 71.7144 43.81 72.0734 43.9412 72.518C44.0723 72.9626 44.5353 73.0032 44.9351 73.0367C48.7748 73.3686 52.6416 72.9036 56.2932 71.6711C55.1474 70.5062 53.9189 69.4258 52.6172 68.4382Z" fill="white" fill-opacity="0.61"/>
</svg>
