<svg width="76" height="69" viewBox="0 0 76 69" fill="none" xmlns="http://www.w3.org/2000/svg">
<path d="M57.1888 24.9938C56.1012 24.9851 44.3664 4.09132 32.281 1.12535C20.1956 -1.84062 1.37564 3.14671 0.400926 3.27358C-0.573791 3.40044 5.28057 8.35721 4.9584 8.48929C4.63623 8.62138 1.10435 5.98277 0.357509 6.11146C-0.389335 6.24015 8.83387 29.0406 21.0066 32.7427C35.8868 37.2641 55.8805 29.2718 55.8805 29.2718C55.8805 29.2718 55.132 41.2714 59.3253 40.2069C63.5187 39.1424 59.4829 29.5699 59.4829 29.5699C59.4829 29.5699 62.8714 32.0002 66.1071 31.5185C69.3428 31.0368 76.412 25.2822 75.0885 23.6764C71.8056 19.7036 57.1888 24.9938 57.1888 24.9938Z" fill="white" fill-opacity="0.28"/>
<path d="M14.4942 7.58138C17.8511 7.49428 17.9751 12.716 14.6185 12.7616C11.262 12.8073 11.1374 7.65812 14.4942 7.58138Z" fill="white"/>
<path opacity="0.2" d="M24.5057 16.0736C25.8599 12.5314 23.5522 5.77992 21.245 1.54554C21.2409 1.53221 21.2415 1.51789 21.2466 1.5049C21.2516 1.49192 21.2609 1.48102 21.2729 1.47394C21.2849 1.46687 21.299 1.46402 21.3128 1.46589C21.3266 1.46775 21.3394 1.47419 21.3491 1.4842C23.0186 3.84894 27.9977 12.0409 25.4603 17.1688C23.4388 21.2443 14.1791 23.7392 11.1532 23.8807C10.9461 23.879 10.9266 23.7235 11.1549 23.6735C13.5426 23.0193 23.1825 19.6263 24.5264 16.0737" fill="white"/>
<path d="M21.9411 62.3564C21.8965 62.1545 21.8694 61.9481 21.86 61.7403C21.8231 61.299 21.7716 60.7494 21.7126 60.0749L21.8453 60.1665C20.3715 60.9992 17.9914 62.2482 15.1249 63.747L14.8818 63.8802V63.5638C14.8817 63.3566 14.8298 63.1536 14.732 62.9782C14.6342 62.8029 14.4945 62.6624 14.3291 62.5729C13.93 62.4419 13.5046 62.4565 13.1133 62.6146C12.6932 62.7395 12.3101 62.9976 12.3764 63.4472C12.457 63.9438 12.6586 64.4052 12.9585 64.7795C13.1828 65.0956 13.4292 65.3907 13.6954 65.6621L13.7543 65.7204V65.812C13.7941 66.5072 13.9412 67.1891 14.1891 67.827C14.2904 68.11 14.4718 68.3472 14.7049 68.5015C14.8225 68.5612 14.9513 68.5872 15.0798 68.577C15.2084 68.5668 15.3328 68.5208 15.4418 68.4432C15.667 68.3062 15.846 68.0894 15.9512 67.826C16.0564 67.5626 16.082 67.2674 16.0239 66.986C15.9556 66.4058 15.8011 65.8428 15.567 65.3207L15.4934 65.1375L15.6481 65.0626L20.2094 63.0642L21.5063 62.5146C21.6659 62.4399 21.8312 62.3814 22 62.3398C21.8703 62.4364 21.732 62.5174 21.5873 62.5813L20.342 63.1974C19.2588 63.7387 17.6893 64.4964 15.7734 65.3957L15.8544 65.1459C16.1145 65.7048 16.2865 66.3105 16.3629 66.9361C16.3953 67.2941 16.355 67.6558 16.245 67.9935C16.1896 68.1768 16.1014 68.3452 15.9861 68.4884C15.8708 68.6317 15.7307 68.7466 15.5744 68.8262C15.419 68.9275 15.2448 68.9863 15.0656 68.9979C14.8865 69.0095 14.7074 68.9735 14.5428 68.8928C14.2369 68.7092 13.9934 68.4165 13.8501 68.0602C13.5798 67.3698 13.4177 66.6317 13.3712 65.8786L13.4375 66.0285C13.1567 65.7373 12.8956 65.4228 12.6564 65.0876C12.3013 64.6472 12.0727 64.0956 12.0006 63.5055C11.9956 63.3473 12.023 63.1899 12.0805 63.0455C12.138 62.9011 12.2241 62.7736 12.3322 62.6728C12.5497 62.4833 12.8011 62.3498 13.069 62.2815C13.547 62.0988 14.0649 62.0988 14.5428 62.2815C14.7701 62.4077 14.9604 62.6051 15.0911 62.8502C15.2218 63.0953 15.2872 63.3777 15.2797 63.6637L15.0291 63.4722C17.9103 62.0067 20.3126 60.7994 21.8232 60.0583L21.9484 60V60.1499C21.9484 60.8438 21.9631 61.4183 21.9926 61.8735C21.9891 62.036 21.9718 62.1977 21.9411 62.3564Z" fill="white" fill-opacity="0.51"/>
<path d="M21.8576 61.4382C17.7306 51.8849 40.474 39.0381 40.474 39.0381C36.1354 53.0427 54.5 64 54.9961 64.9032C55.4921 65.8065 26.4259 72.0213 21.8576 61.4382Z" fill="white" fill-opacity="0.35"/>
<path d="M54.7588 63.6446C61.1659 62.051 54.5709 37.003 43.3177 39.1278C32.0645 41.2526 40.1223 67.3057 54.7588 63.6446Z" fill="white" fill-opacity="0.4"/>
<path d="M47.167 51.9655C46.2844 50.0777 46.2272 48.239 47.0363 47.8794C47.8453 47.5198 49.2101 48.6966 50.0927 50.6253C50.9753 52.5539 51.0325 54.36 50.2235 54.7114C49.4144 55.0628 48.0496 53.8615 47.167 51.9655Z" fill="#E0E0E0"/>
</svg>
