<svg width="51" height="50" viewBox="0 0 51 50" fill="none" xmlns="http://www.w3.org/2000/svg">
<rect x="1" y="0.5" width="49" height="49" rx="24.5" fill="white"/>
<rect x="1" y="0.5" width="49" height="49" rx="24.5" stroke="#D8DADC"/>
<g clip-path="url(#clip0_124_460)">
<path d="M34.674 24.7106C34.674 23.9317 34.6121 23.3633 34.4782 22.7739H25.7725V26.2894H30.8825C30.7796 27.163 30.2232 28.4787 28.9869 29.3628L28.9695 29.4805L31.7221 31.659L31.9128 31.6784C33.6643 30.0259 34.674 27.5945 34.674 24.7106Z" fill="#4285F4"/>
<path d="M25.7724 33.9729C28.2759 33.9729 30.3776 33.1308 31.9128 31.6783L28.9868 29.3627C28.2038 29.9205 27.1529 30.31 25.7724 30.31C23.3204 30.31 21.2392 28.6575 20.4974 26.3735L20.3886 26.383L17.5264 28.6459L17.489 28.7522C19.0138 31.8467 22.1458 33.9729 25.7724 33.9729Z" fill="#34A853"/>
<path d="M20.4974 26.3736C20.3017 25.7842 20.1884 25.1526 20.1884 24.5C20.1884 23.8474 20.3017 23.2159 20.4871 22.6265L20.4819 22.501L17.5839 20.2017L17.489 20.2477C16.8606 21.5319 16.5 22.9739 16.5 24.5C16.5 26.0262 16.8606 27.4682 17.489 28.7523L20.4974 26.3736Z" fill="#FBBC05"/>
<path d="M25.7724 18.6899C27.5135 18.6899 28.688 19.4583 29.3577 20.1004L31.9746 17.49C30.3674 15.9639 28.2759 15.0271 25.7724 15.0271C22.1458 15.0271 19.0138 17.1532 17.489 20.2477L20.4871 22.6264C21.2392 20.3424 23.3204 18.6899 25.7724 18.6899Z" fill="#EB4335"/>
</g>
<defs>
<clipPath id="clip0_124_460">
<rect x="16.5" y="15" width="18.1739" height="19" rx="9.08696" fill="white"/>
</clipPath>
</defs>
</svg>
