<svg width="20" height="20" viewBox="0 0 20 20" fill="none" xmlns="http://www.w3.org/2000/svg">
<path d="M2.8539 2.14599C2.80741 2.0995 2.75222 2.06263 2.69148 2.03747C2.63074 2.01231 2.56564 1.99936 2.4999 1.99936C2.43416 1.99936 2.36906 2.01231 2.30832 2.03747C2.24758 2.06263 2.19239 2.0995 2.1459 2.14599C2.09941 2.19248 2.06254 2.24767 2.03738 2.30841C2.01222 2.36915 1.99927 2.43425 1.99927 2.49999C1.99927 2.56573 2.01222 2.63083 2.03738 2.69157C2.06254 2.75231 2.09941 2.8075 2.1459 2.85399L5.6459 6.35199C3.9127 7.53455 2.706 9.34352 2.2799 11.398C2.2665 11.4623 2.26591 11.5287 2.27816 11.5933C2.29041 11.6578 2.31526 11.7194 2.35129 11.7743C2.38732 11.8293 2.43382 11.8767 2.48815 11.9137C2.54247 11.9507 2.60355 11.9766 2.6679 11.99C2.73225 12.0034 2.7986 12.004 2.86318 11.9917C2.92775 11.9795 2.98928 11.9546 3.04426 11.9186C3.09923 11.8826 3.14657 11.8361 3.18357 11.7817C3.22057 11.7274 3.2465 11.6663 3.2599 11.602C3.4512 10.6788 3.82446 9.80287 4.35791 9.02544C4.89136 8.24802 5.57431 7.58463 6.3669 7.07399L7.9529 8.65999C7.54167 8.95652 7.19977 9.33885 6.95086 9.78053C6.70194 10.2222 6.55195 10.7127 6.51127 11.218C6.47058 11.7234 6.54018 12.2316 6.71523 12.7074C6.89028 13.1832 7.16661 13.6153 7.52511 13.9738C7.8836 14.3323 8.3157 14.6086 8.79152 14.7837C9.26733 14.9587 9.77549 15.0283 10.2808 14.9876C10.7862 14.9469 11.2767 14.7969 11.7184 14.548C12.16 14.2991 12.5424 13.9572 12.8389 13.546L17.1459 17.854C17.2398 17.9479 17.3671 18.0006 17.4999 18.0006C17.6327 18.0006 17.76 17.9479 17.8539 17.854C17.9478 17.7601 18.0005 17.6328 18.0005 17.5C18.0005 17.3672 17.9478 17.2399 17.8539 17.146L2.8539 2.14599ZM12.1189 12.826C11.9193 13.1444 11.6505 13.4138 11.3325 13.614C11.0144 13.8142 10.6553 13.9401 10.2819 13.9824C9.90847 14.0247 9.53032 13.9823 9.17556 13.8582C8.8208 13.7342 8.49856 13.5318 8.23282 13.2661C7.96708 13.0003 7.76467 12.6781 7.64065 12.3233C7.51662 11.9686 7.47418 11.5904 7.51647 11.217C7.55875 10.8436 7.68469 10.4845 7.8849 10.1664C8.08512 9.84839 8.35446 9.57958 8.6729 9.37999L12.1189 12.826ZM10.1239 8.00199L13.4979 11.376C13.4666 10.4911 13.101 9.65101 12.475 9.02493C11.8489 8.39884 11.0088 8.03331 10.1239 8.00199ZM9.9999 5.99999C9.4299 5.99999 8.8709 6.07399 8.3339 6.21299L7.5309 5.40999C8.32603 5.13959 9.16005 5.00109 9.9999 4.99999C13.6929 4.99999 16.9419 7.67299 17.7199 11.398C17.747 11.5279 17.7213 11.6633 17.6485 11.7743C17.5757 11.8854 17.4619 11.9629 17.3319 11.99C17.2019 12.017 17.0666 11.9914 16.9555 11.9186C16.8445 11.8458 16.767 11.7319 16.7399 11.602C16.0579 8.32699 13.2069 5.99999 9.9999 5.99999Z" fill="#292D32"/>
</svg>
