<svg width="23" height="23" viewBox="0 0 23 23" fill="none" xmlns="http://www.w3.org/2000/svg">
<g clip-path="url(#clip0_651_3963)">
<path d="M8.16388 1.22361C5.96574 1.98616 4.07007 3.43352 2.7553 5.35308C1.44054 7.27264 0.775992 9.56323 0.859267 11.8884C0.942542 14.2136 1.76925 16.4507 3.21797 18.2713C4.66668 20.0919 6.66104 21.3999 8.9081 22.0033C10.7298 22.4734 12.6385 22.494 14.47 22.0634C16.1291 21.6908 17.663 20.8936 18.9215 19.75C20.2314 18.5234 21.1821 16.963 21.6715 15.2366C22.2035 13.3591 22.2982 11.3847 21.9483 9.46501H11.7183V13.7086H17.6428C17.5244 14.3854 17.2706 15.0314 16.8968 15.6079C16.5229 16.1844 16.0365 16.6795 15.4669 17.0636C14.7434 17.5422 13.9279 17.8642 13.0726 18.0089C12.2149 18.1684 11.3351 18.1684 10.4773 18.0089C9.60796 17.8292 8.78555 17.4704 8.06247 16.9553C6.90086 16.1331 6.02864 14.9649 5.57029 13.6175C5.10419 12.2449 5.10419 10.7568 5.57029 9.38423C5.89655 8.4221 6.43591 7.54609 7.1481 6.82157C7.96312 5.97723 8.99495 5.37369 10.1304 5.07717C11.2658 4.78065 12.461 4.80261 13.5848 5.14064C14.4627 5.41012 15.2655 5.88097 15.9292 6.51564C16.5972 5.85105 17.2641 5.18475 17.9298 4.51673C18.2736 4.15751 18.6483 3.81548 18.9869 3.44767C17.9738 2.50489 16.7846 1.7713 15.4875 1.28892C13.1254 0.431245 10.5409 0.408195 8.16388 1.22361Z" fill="white"/>
<path d="M8.1639 1.22359C10.5407 0.407622 13.1252 0.430064 15.4875 1.28718C16.7848 1.77284 17.9735 2.50996 18.9851 3.45624C18.6414 3.82406 18.2787 4.16781 17.9281 4.52531C17.2612 5.19103 16.5949 5.85447 15.9292 6.51562C15.2655 5.88095 14.4627 5.4101 13.5848 5.14062C12.4614 4.80141 11.2663 4.77818 10.1305 5.07349C8.99478 5.36879 7.96231 5.97122 7.1464 6.81468C6.4342 7.5392 5.89485 8.41521 5.56858 9.37734L2.00562 6.61874C3.28094 4.08971 5.48909 2.15519 8.1639 1.22359Z" fill="#E33629"/>
<path d="M1.06029 9.35159C1.25179 8.40248 1.56973 7.48335 2.0056 6.61877L5.56857 9.38424C5.10247 10.7568 5.10247 12.2449 5.56857 13.6175C4.38149 14.5342 3.19383 15.4554 2.0056 16.3813C0.914453 14.2093 0.581672 11.7346 1.06029 9.35159Z" fill="#F8BD00"/>
<path d="M11.7183 9.46326H21.9483C22.2982 11.383 22.2036 13.3574 21.6716 15.2348C21.1821 16.9613 20.2314 18.5217 18.9216 19.7483C17.7717 18.8511 16.6167 17.9608 15.4669 17.0636C16.037 16.679 16.5235 16.1834 16.8974 15.6063C17.2713 15.0292 17.5249 14.3826 17.6428 13.7051H11.7183C11.7166 12.2923 11.7183 10.8778 11.7183 9.46326Z" fill="#587DBD"/>
<path d="M2.00391 16.3812C3.19214 15.4646 4.37979 14.5433 5.56687 13.6175C6.02614 14.9653 6.8996 16.1336 8.0625 16.9553C8.78783 17.4679 9.61201 17.8238 10.4825 18.0003C11.3403 18.1598 12.2201 18.1598 13.0778 18.0003C13.9331 17.8555 14.7486 17.5335 15.472 17.055C16.6219 17.9522 17.7769 18.8425 18.9267 19.7397C17.6684 20.8839 16.1345 21.6817 14.4752 22.0548C12.6437 22.4854 10.735 22.4648 8.91328 21.9947C7.47246 21.61 6.12663 20.9318 4.96016 20.0026C3.72551 19.0224 2.71711 17.7871 2.00391 16.3812Z" fill="#319F43"/>
</g>
<defs>
<clipPath id="clip0_651_3963">
<rect width="22" height="22" fill="white" transform="translate(0.5 0.5)"/>
</clipPath>
</defs>
</svg>
