<svg width="49" height="21" viewBox="0 0 49 21" fill="none" xmlns="http://www.w3.org/2000/svg">
<path d="M0 8.20312H21V12.7969H0V8.20312Z" fill="#E6E7E8"/>
<path d="M17.7188 3.28125H3.28125C1.10677 3.28125 0 4.89727 0 6.89062V8.20312H21V6.89062C21 4.89727 19.8932 3.28125 17.7188 3.28125Z" fill="#EC1C24"/>
<path d="M0 14.1094C0 16.1027 1.10677 17.7188 3.28125 17.7188H17.7188C19.8932 17.7188 21 16.1027 21 14.1094V12.7969H0V14.1094Z" fill="#25333A"/>
<path fill-rule="evenodd" clip-rule="evenodd" d="M12.0239 9.32135C12.0561 9.61535 12.0554 9.91 12.0695 10.2053C12.0964 10.7697 12.1174 11.3367 12.1404 11.9027V12.0051C11.9675 11.8423 11.809 11.6947 11.6521 11.5454C11.6479 11.5306 11.6551 11.5204 11.6656 11.5103C11.6941 11.4781 11.684 11.4401 11.6817 11.4053C11.6656 11.1608 11.661 10.9154 11.6482 10.6699C11.6311 10.3156 11.6206 9.96185 11.5996 9.60747C11.5941 9.49886 11.6292 9.42077 11.7227 9.3663C11.7814 9.33152 11.8208 9.34563 11.8228 9.41388C11.828 9.54677 11.8326 9.67933 11.8398 9.81222C11.8605 10.1945 11.8723 10.5774 11.8907 10.9593C11.8992 11.1369 11.9163 11.3137 11.9107 11.4906C11.9087 11.5437 11.912 11.5956 11.9202 11.6271C11.893 11.5162 11.915 11.3833 11.9045 11.2507C11.8851 11.0253 11.8808 10.7989 11.8713 10.5725C11.8572 10.1863 11.8349 9.80172 11.8237 9.41552C11.8211 9.29215 11.847 9.27574 11.9678 9.31905C11.9862 9.32233 12.0055 9.31052 12.0239 9.32135ZM9.45468 11.611C9.31851 11.7377 9.18168 11.864 9.03599 11.9979C9.03599 11.8765 9.03206 11.7718 9.03665 11.6651C9.06553 10.9574 9.0967 10.249 9.12656 9.53988C9.12984 9.46671 9.13804 9.39419 9.1446 9.32102C9.16396 9.31315 9.17742 9.34202 9.19776 9.32726C9.21678 9.31324 9.23861 9.30351 9.26174 9.29871C9.31556 9.28952 9.34607 9.31511 9.34607 9.36991C9.34607 9.53824 9.33492 9.7046 9.32671 9.87063C9.32113 10.0006 9.31162 10.1305 9.30834 10.2604C9.30013 10.5531 9.2834 10.8452 9.27257 11.1362C9.26568 11.299 9.2624 11.4624 9.25288 11.6238C9.26535 11.4719 9.26535 11.317 9.27159 11.1641C9.29259 10.6719 9.31413 10.1797 9.33623 9.68754C9.33951 9.5996 9.34903 9.51068 9.34574 9.42176C9.34443 9.3919 9.34903 9.36204 9.38053 9.3499C9.40809 9.33776 9.42942 9.35711 9.45238 9.36991C9.53967 9.42175 9.57281 9.49624 9.56854 9.59861C9.54926 10.0155 9.5311 10.4324 9.51407 10.8494C9.5062 11.0368 9.50751 11.2255 9.48553 11.4131C9.47929 11.4784 9.4619 11.5441 9.45468 11.611Z" fill="#BF9200"/>
<path fill-rule="evenodd" clip-rule="evenodd" d="M9.45472 11.6108C9.43241 11.5499 9.43148 11.4833 9.45209 11.4218C9.46325 11.4198 9.48097 11.4497 9.48556 11.4169C9.48819 11.3873 9.49672 11.3598 9.49672 11.3316C9.49672 11.1406 9.51017 10.95 9.51936 10.7606C9.53249 10.4899 9.53872 10.2186 9.55775 9.94885C9.56464 9.85796 9.56366 9.76608 9.56563 9.67552C9.56694 9.62663 9.56464 9.56626 9.6237 9.55182C9.68244 9.53771 9.71722 9.58594 9.74938 9.62926C9.76874 9.65551 9.77005 9.68733 9.76808 9.71949C9.75069 9.97707 9.74708 10.2343 9.73428 10.4922C9.72313 10.7423 9.71427 10.992 9.70245 11.243C9.71995 10.8735 9.73592 10.5037 9.75036 10.1336C9.75397 10.0171 9.76283 9.90062 9.76611 9.78249C9.76874 9.68897 9.79367 9.67093 9.8885 9.67979C9.9328 9.68471 9.97545 9.69324 10.0207 9.69619C10.0414 9.70407 10.064 9.71162 10.0703 9.73655C10.0611 9.77002 10.0312 9.76641 10.0073 9.76707C9.95511 9.77068 9.93739 9.80119 9.95183 9.84582C9.96856 9.8934 9.96233 9.94229 9.96463 9.98987C9.96233 10.0332 9.96134 10.0765 9.95774 10.1198C9.94695 10.2148 9.94136 10.3103 9.941 10.4059C9.93903 10.5792 9.92263 10.7534 9.91803 10.9263C9.90197 10.9902 9.89807 11.0566 9.90655 11.1219C9.91081 11.1429 9.91705 11.1639 9.9223 11.1849C9.92722 11.2161 9.91442 11.2443 9.89736 11.2686C9.88904 11.2777 9.87884 11.285 9.86745 11.2898C9.85606 11.2946 9.84376 11.2969 9.83141 11.2965C9.79958 11.2915 9.7858 11.3175 9.76775 11.3332L9.45472 11.6108ZM11.6676 11.5334C11.6619 11.5377 11.6567 11.5422 11.6518 11.5468C11.5843 11.4838 11.5153 11.4215 11.4487 11.3572C11.4438 11.3431 11.45 11.3319 11.4579 11.3207C11.4645 11.3086 11.4628 11.2958 11.4628 11.2823C11.4579 10.8958 11.4369 10.5116 11.4176 10.1264C11.4107 9.98626 11.4159 9.84483 11.4005 9.70505C11.3969 9.68097 11.4024 9.65642 11.4159 9.63615C11.4474 9.59152 11.4825 9.53869 11.5452 9.55379C11.6036 9.56823 11.602 9.62893 11.6026 9.67749C11.6135 10.1047 11.6397 10.5319 11.6584 10.9591C11.665 11.1121 11.6584 11.2669 11.681 11.4195C11.686 11.4559 11.6915 11.4973 11.6676 11.5334ZM11.4602 11.7683C11.4668 11.83 11.492 11.8448 11.5567 11.8264C11.6568 11.7975 11.7972 11.8661 11.7769 11.9934C11.7723 12.0282 11.7811 12.0511 11.8162 12.0676C11.8678 12.0915 11.8861 12.1584 11.9491 12.1699C11.9583 12.1722 11.9632 12.1909 11.955 12.1972C11.896 12.2316 11.9134 12.3146 11.8576 12.3517C11.85 12.3576 11.8392 12.3675 11.8382 12.376C11.8343 12.4895 11.7503 12.5099 11.663 12.5286C11.2489 12.6188 10.8292 12.6273 10.4083 12.6188C10.0978 12.6136 9.78809 12.5965 9.48425 12.522C9.40419 12.5036 9.35333 12.4734 9.32577 12.3842C9.30403 12.3221 9.27148 12.2643 9.22963 12.2136C9.20534 12.1837 9.21191 12.1808 9.23914 12.1584C9.30772 12.1027 9.40189 12.0689 9.39631 11.9465C9.39205 11.8589 9.51575 11.7936 9.61255 11.8257C9.67555 11.8464 9.70213 11.831 9.70902 11.7683C9.73002 11.764 9.73822 11.7788 9.74577 11.7936C9.75692 11.8172 9.7543 11.8411 9.75134 11.8661C9.74748 11.8771 9.7398 11.8864 9.72969 11.8923C9.69917 11.9068 9.66899 11.8982 9.63978 11.8897C9.61878 11.8828 9.59286 11.873 9.57416 11.8953C9.55086 11.9245 9.5863 11.933 9.59614 11.9514C9.60131 11.9602 9.6036 11.9704 9.6027 11.9806C9.59778 11.9977 9.58367 12.0065 9.56989 12.0147C9.52231 12.0256 9.48294 12.0469 9.46194 12.0954C9.45242 12.1191 9.42749 12.1319 9.40452 12.1473C9.3402 12.1922 9.33397 12.2277 9.38188 12.2881C9.39073 12.3002 9.40517 12.312 9.40813 12.3264C9.42749 12.4229 9.5023 12.4393 9.58203 12.4551C9.85077 12.5069 10.1238 12.5299 10.3981 12.5315C10.6438 12.5338 10.8886 12.5384 11.1337 12.5158C11.3073 12.4997 11.4812 12.4823 11.6505 12.4393C11.7004 12.4268 11.7375 12.4075 11.7496 12.3527C11.7552 12.3274 11.7736 12.3064 11.7897 12.2858C11.8326 12.2326 11.83 12.1922 11.7765 12.1539C11.7397 12.1332 11.7093 12.1028 11.6886 12.0659C11.6673 12.0236 11.6266 12.0295 11.5859 12.0351C11.4753 12.0538 11.3687 12.0856 11.2588 12.1069C11.2443 12.105 11.2348 12.0971 11.2266 12.0843C11.2191 12.0726 11.2146 12.0592 11.2137 12.0453C11.2128 12.0314 11.2154 12.0175 11.2213 12.0049C11.2271 11.9934 11.2368 11.9842 11.2486 11.979C11.3674 12.0275 11.4688 11.9501 11.58 11.9366C11.5954 11.9343 11.6039 11.9225 11.6023 11.9084C11.5967 11.8871 11.5797 11.8812 11.5587 11.8841C11.5209 11.8884 11.4838 11.911 11.4438 11.895C11.4333 11.889 11.425 11.8798 11.4202 11.8687C11.4144 11.8441 11.4159 11.8183 11.4245 11.7946C11.4313 11.7795 11.4392 11.7644 11.4615 11.7683" fill="#BF9200"/>
<path fill-rule="evenodd" clip-rule="evenodd" d="M11.4641 11.3431L11.4483 11.3552C11.4004 11.3349 11.3771 11.2784 11.3233 11.2656C11.318 11.2699 11.3117 11.2727 11.305 11.2738C11.2982 11.2749 11.2913 11.2742 11.2849 11.2719C11.2544 11.2519 11.2436 11.2243 11.2452 11.1895C11.2482 11.1679 11.2574 11.1478 11.2607 11.1252C11.2707 11.062 11.2675 10.9974 11.2511 10.9355C11.2446 10.7465 11.2269 10.5592 11.2262 10.3695C11.2262 10.3069 11.2354 10.2402 11.198 10.1828C11.1849 10.1737 11.1747 10.1611 11.1684 10.1464C11.1822 10.0522 11.2013 9.95904 11.2127 9.86388C11.2219 9.78546 11.2246 9.78152 11.1474 9.76741C11.1274 9.7638 11.1058 9.7638 11.0979 9.73821C11.1038 9.71196 11.1278 9.7054 11.1491 9.69654C11.198 9.69227 11.2469 9.68243 11.2958 9.67784C11.3699 9.67062 11.3975 9.69195 11.4017 9.76676C11.409 9.91605 11.4139 10.0644 11.4201 10.213C11.4395 10.5815 11.448 10.9523 11.4703 11.3214C11.4703 11.3293 11.4664 11.3365 11.4641 11.3431Z" fill="#BF9200"/>
<path fill-rule="evenodd" clip-rule="evenodd" d="M11.2931 11.2643L11.3236 11.2653L11.3853 11.514C11.3941 11.5288 11.3931 11.5416 11.3767 11.5511C11.3646 11.5574 11.3482 11.5344 11.337 11.5574C11.2839 11.6607 11.3042 11.7569 11.3994 11.83C11.4122 11.8389 11.4256 11.8461 11.4315 11.8628L11.4499 11.8776C11.4492 11.914 11.4187 11.9167 11.3967 11.9226C11.3393 11.9344 11.2839 11.9527 11.2248 11.9488C11.2041 11.9488 11.1837 11.9532 11.1648 11.9616C11.0473 11.9846 10.9285 11.9833 10.8104 11.979C10.7897 11.9777 10.7654 11.9757 10.7589 12.0033C10.7533 12.0295 10.7746 12.0381 10.7953 12.044C10.8478 12.0617 10.9026 12.0551 10.9557 12.0581C10.9853 12.0597 11.0181 12.0495 11.0411 12.0794C11.0447 12.1204 11.0122 12.1224 10.9849 12.127C10.9515 12.132 10.9175 12.1326 10.8839 12.129C10.8163 12.125 10.7546 12.1375 10.7044 12.188C10.6977 12.1956 10.6894 12.2016 10.6801 12.2054C10.627 12.2235 10.5823 12.1637 10.5144 12.2038C10.4741 12.2284 10.4107 12.1542 10.3799 12.0988C10.3764 12.0876 10.3759 12.0757 10.3786 12.0643C10.3835 12.0387 10.4258 12.0289 10.4097 11.998C10.3924 11.9662 10.3576 11.982 10.3313 11.979C10.2732 11.9731 10.2112 12.0052 10.1591 11.96C10.1561 11.9078 10.2093 11.9147 10.2332 11.8891C10.2477 11.8769 10.2658 11.8696 10.2847 11.8684C10.2963 11.8686 10.3068 11.8725 10.3162 11.8799C10.3251 11.8884 10.3346 11.8999 10.3481 11.8986C10.4294 11.8904 10.496 11.9186 10.5571 11.9678C10.5722 11.98 10.5902 11.9852 10.6066 11.9711C10.6719 11.9209 10.7444 11.8911 10.8307 11.8973C10.8396 11.8973 10.8468 11.8858 10.8547 11.8792C10.8636 11.8724 10.8741 11.868 10.8852 11.8665C10.9426 11.8891 10.9833 11.8871 11.0128 11.8179C11.0388 11.7559 11.0732 11.7615 11.148 11.8284C11.2005 11.7555 11.2002 11.7401 11.1369 11.6473C11.1008 11.6771 11.1011 11.7473 11.0407 11.7467C10.9846 11.7467 10.9725 11.6886 10.9397 11.6574C10.9091 11.6922 10.9331 11.7628 10.8645 11.772C10.8324 11.7509 10.8297 11.7198 10.8353 11.6866C10.8599 11.6161 10.856 11.5442 10.8488 11.4727C10.8516 11.4611 10.8565 11.4501 10.8632 11.4402C10.8977 11.3995 10.8895 11.347 10.9019 11.3001C10.9131 11.2597 10.9118 11.203 10.9685 11.1981C11.0191 11.1948 11.0414 11.2433 11.066 11.2794C11.0728 11.2888 11.077 11.2998 11.0781 11.3113C11.0745 11.2794 11.0886 11.2391 11.1109 11.203C11.1401 11.1564 11.1946 11.1607 11.2346 11.2102C11.2511 11.2309 11.2583 11.263 11.2931 11.2643Z" fill="#BF9200"/>
<path fill-rule="evenodd" clip-rule="evenodd" d="M10.2705 11.9239C10.2383 11.9528 10.1934 11.9276 10.1599 11.9525C10.1143 12.007 10.0608 11.9581 10.0116 11.963C9.98929 11.9587 9.9696 11.9472 9.94696 11.9489C9.88725 11.9528 9.83048 11.9344 9.77306 11.9226C9.75042 11.9167 9.71957 11.9144 9.71826 11.8777L9.73664 11.8629C9.74221 11.8462 9.756 11.8393 9.76879 11.8301C9.86296 11.7569 9.88495 11.6608 9.83212 11.5584C9.81998 11.5361 9.80423 11.5574 9.79143 11.5515C9.77437 11.542 9.77437 11.5292 9.7829 11.5144C9.79012 11.4396 9.83114 11.3727 9.83114 11.2969C9.83511 11.2882 9.84123 11.2807 9.84893 11.2751C9.85663 11.2695 9.86564 11.2659 9.87511 11.2647C9.89873 11.2647 9.91251 11.25 9.92301 11.23C9.9427 11.1942 9.97059 11.1657 10.0155 11.1712C10.0595 11.1768 10.0664 11.2178 10.0799 11.2519C10.0835 11.2605 10.0835 11.272 10.092 11.2792C10.0976 11.2805 10.1005 11.2775 10.1045 11.2726C10.133 11.2411 10.1534 11.1873 10.2055 11.1994C10.2646 11.2129 10.2587 11.2746 10.2692 11.3212C10.2777 11.3583 10.2757 11.3993 10.3112 11.4255C10.3193 11.4336 10.3252 11.4437 10.3282 11.4547C10.3138 11.5358 10.3033 11.6152 10.3414 11.6939C10.3437 11.7241 10.3364 11.7497 10.3112 11.7681C10.2328 11.771 10.2623 11.691 10.2285 11.6585C10.1347 11.7806 10.1199 11.7806 10.0356 11.6516C9.9719 11.7218 9.96993 11.7382 10.0139 11.8268C10.0379 11.8278 10.0454 11.8025 10.0615 11.7917C10.0949 11.7684 10.1317 11.7668 10.1484 11.8025C10.1724 11.8623 10.2219 11.8911 10.2705 11.9239ZM10.362 9.01578C10.3765 8.92259 10.4017 8.83137 10.3962 8.73654C10.3951 8.70517 10.3864 8.67453 10.3709 8.64727C10.3553 8.62 10.3334 8.59693 10.3069 8.58003C10.2909 8.57161 10.2731 8.56733 10.2551 8.56756C10.2275 8.5646 10.1921 8.62695 10.1744 8.5646C10.1668 8.54064 10.1663 8.51501 10.1728 8.49075C10.1794 8.4665 10.1928 8.44464 10.2114 8.42778C10.2209 8.41892 10.2351 8.41071 10.2459 8.41137C10.4021 8.4222 10.5596 8.36117 10.7154 8.42909C10.7971 8.46584 10.8473 8.51867 10.8529 8.60956C10.8598 8.62531 10.8621 8.64007 10.8447 8.64992C10.8198 8.64992 10.8063 8.6322 10.7984 8.61349C10.7709 8.54492 10.7131 8.53967 10.6636 8.56887C10.5625 8.63056 10.4851 8.5902 10.4109 8.52556C10.3801 8.50101 10.3451 8.48223 10.3076 8.4701C10.3758 8.48651 10.4319 8.53409 10.4821 8.58528C10.5182 8.62071 10.5304 8.65976 10.4867 8.70734C10.4349 8.76279 10.4654 8.84154 10.4441 8.90749C10.4277 8.95639 10.4401 9.01971 10.3735 9.04301C10.3607 9.03776 10.3558 9.02923 10.362 9.01578ZM10.9586 9.32126C10.974 9.35932 11.0075 9.35243 11.038 9.35079C11.1801 9.34554 11.3047 9.2891 11.4275 9.22512C11.4412 9.21659 11.4485 9.22348 11.4537 9.23562C11.4524 9.27893 11.4176 9.29731 11.3868 9.31568C11.3349 9.34545 11.2791 9.36797 11.2211 9.38262C11.1518 9.40264 11.0849 9.43151 11.0189 9.45087C10.9287 9.47843 10.8247 9.53257 10.7223 9.46662C10.6951 9.44956 10.6682 9.44529 10.6354 9.46531C10.5602 9.51321 10.5156 9.48959 10.4949 9.39706C10.4964 9.39167 10.499 9.38666 10.5026 9.38236C10.5062 9.37806 10.5106 9.37457 10.5156 9.37212C10.6124 9.37015 10.615 9.36851 10.6137 9.26548C10.6137 9.23857 10.6091 9.21298 10.6121 9.18706C10.6219 9.13718 10.6245 9.08665 10.6239 9.03645C10.6236 9.0079 10.6183 8.97903 10.6452 8.95901C10.6974 8.95704 10.6918 8.9974 10.6941 9.02923C10.6997 9.11749 10.6918 9.20543 10.7108 9.29337C10.7181 9.32914 10.7299 9.35735 10.7774 9.37639C10.7384 9.27155 10.7123 9.16236 10.6997 9.05121C10.6974 9.02759 10.6934 9.00495 10.6948 8.98132C10.6957 8.94949 10.6974 8.9111 10.7391 8.9111C10.7712 8.91045 10.786 8.9426 10.7879 8.97312C10.7909 9.01414 10.8021 9.05417 10.8063 9.09584C10.8132 9.16606 10.829 9.23431 10.8582 9.29895C10.871 9.32553 10.8851 9.36293 10.9271 9.32914C10.9366 9.32126 10.9464 9.31667 10.9586 9.32126Z" fill="#BF9200"/>
<path fill-rule="evenodd" clip-rule="evenodd" d="M10.3619 9.01584C10.3665 9.02327 10.3716 9.0306 10.3773 9.03782C10.4105 9.07129 10.3888 9.10673 10.3786 9.13921C10.355 9.21501 10.3071 9.27866 10.2684 9.34823C10.3209 9.33543 10.3416 9.29409 10.3573 9.25077C10.3872 9.17038 10.416 9.08934 10.4272 9.00206C10.4288 8.99582 10.4272 8.98663 10.4302 8.9804C10.4466 8.9466 10.4384 8.88721 10.4905 8.89213C10.5496 8.89771 10.5233 8.95251 10.5214 8.98729C10.5119 9.12535 10.4715 9.25951 10.4029 9.37973C10.3934 9.39548 10.3836 9.40959 10.3823 9.42895C10.3649 9.44502 10.3649 9.46504 10.3695 9.48637C10.3409 9.5218 10.3104 9.53395 10.2864 9.48571C10.2707 9.45356 10.2517 9.46241 10.228 9.46865C10.1818 9.48079 10.1407 9.47456 10.1096 9.43452C10.0876 9.40762 10.0561 9.40401 10.0243 9.39974C9.94157 9.38769 9.86194 9.35996 9.78966 9.31804C9.75553 9.30098 9.7178 9.2826 9.71484 9.23568C9.72009 9.22354 9.72731 9.21632 9.74142 9.22518C9.86086 9.28785 9.98259 9.34134 10.1214 9.35249C10.1677 9.35512 10.1969 9.34298 10.2228 9.30196C10.2792 9.21107 10.3225 9.1146 10.3619 9.01584Z" fill="#BF9200"/>
<path fill-rule="evenodd" clip-rule="evenodd" d="M9.74139 9.22353C9.73483 9.2279 9.72805 9.23282 9.72105 9.23829C9.68758 9.26454 9.65739 9.24518 9.62655 9.2314C9.55795 9.20016 9.48507 9.17936 9.41031 9.16971C9.32139 9.15757 9.25544 9.19957 9.21967 9.28324C9.20655 9.31671 9.19014 9.35084 9.17209 9.38168C9.136 9.37282 9.16717 9.3341 9.14453 9.31967C9.178 9.1556 9.27447 9.0867 9.43853 9.10934C9.54791 9.12421 9.64886 9.16228 9.74139 9.22353ZM11.4473 9.23993C11.4413 9.23418 11.4346 9.22922 11.4273 9.22517C11.5292 9.15779 11.6402 9.11831 11.7603 9.10671C11.9011 9.0926 11.9933 9.16971 12.0238 9.32131L12.0084 9.37184C11.9687 9.3574 11.9625 9.31704 11.949 9.28488C11.9113 9.19957 11.8434 9.15757 11.7505 9.17201C11.6783 9.18268 11.608 9.20333 11.5415 9.23337C11.511 9.24682 11.4805 9.26585 11.4473 9.23993ZM10.9584 9.32131L10.943 9.34034C10.9046 9.33968 10.8892 9.3131 10.8787 9.28292C10.8437 9.19936 10.8248 9.10998 10.8229 9.01943C10.8298 8.98859 10.839 8.95742 10.8698 8.9397C10.8892 9.06898 10.9056 9.19892 10.9584 9.32131Z" fill="#BF9200"/>
<path fill-rule="evenodd" clip-rule="evenodd" d="M10.8708 8.94118C10.8639 8.96743 10.8734 8.9986 10.8541 9.02354C10.8071 8.96874 10.796 8.7046 10.8393 8.64718C10.8437 8.63515 10.8484 8.62312 10.8534 8.61108C10.8856 8.72035 10.8721 8.83027 10.8708 8.94249M9.78274 11.5137C9.78799 11.5242 9.79247 11.535 9.79619 11.5462C9.84049 11.6062 9.81194 11.6505 9.766 11.6912C9.73975 11.6938 9.74861 11.6676 9.73877 11.6571C9.75091 11.6085 9.75911 11.558 9.78274 11.5137ZM11.3718 11.5465C11.376 11.5356 11.3805 11.5247 11.3853 11.514C11.4089 11.5583 11.4175 11.6088 11.4293 11.6577C11.4201 11.6679 11.4293 11.6941 11.402 11.6918C11.3561 11.6512 11.3276 11.6065 11.3718 11.5465Z" fill="#BF9200"/>
<path fill-rule="evenodd" clip-rule="evenodd" d="M9.73921 11.6578C9.74511 11.6686 9.74971 11.6801 9.75561 11.6922C9.78613 11.7401 9.78318 11.7789 9.7228 11.7999C9.71755 11.7894 9.71394 11.7789 9.70869 11.768L9.73921 11.6578ZM11.414 11.6926C11.4186 11.6803 11.4237 11.6688 11.4294 11.6581C11.4392 11.6949 11.4495 11.7317 11.4602 11.7687C11.4546 11.7792 11.451 11.7897 11.4458 11.8005C11.3854 11.7789 11.3825 11.7405 11.414 11.6926ZM9.97053 10.2176C9.95118 10.1835 9.94757 10.1458 9.94002 10.1087C9.91607 10.0693 9.93772 10.0313 9.94232 9.99221C9.95741 10.0609 9.97207 10.1299 9.98629 10.1993C9.98136 10.2055 9.98136 10.217 9.97053 10.2176ZM9.90622 11.0593L9.92493 11.0124C9.93805 11.0189 9.9305 11.0353 9.93805 11.0439C9.92886 11.0924 9.91968 11.1433 9.89539 11.1879C9.89047 11.1708 9.88686 11.1531 9.88129 11.1347C9.89375 11.1111 9.87702 11.0773 9.90622 11.0593ZM10.1605 9.72512C10.1286 9.72971 10.0971 9.73496 10.066 9.74087L10.0161 9.7261C10.0503 9.71232 10.0867 9.712 10.1234 9.71035C10.1389 9.70707 10.1572 9.69428 10.1605 9.72512ZM9.5945 11.9734C9.65521 11.9862 9.71755 11.9928 9.77497 12.0148C9.86947 12.0492 9.91639 12.0039 9.94986 11.9262C9.96955 11.9236 9.98694 11.9252 10.0027 11.9383C10.024 11.9551 10.0555 11.9593 10.0627 11.9931C10.0709 12.0364 10.1034 12.0459 10.1421 12.0414C10.2196 12.0519 10.2964 12.0627 10.3754 12.0542C10.3834 12.0558 10.3904 12.0604 10.3951 12.0669V12.0939C10.3071 12.1053 10.2181 12.1055 10.13 12.0945C10.048 12.084 9.99318 12.108 9.95971 12.1982C9.93444 12.0574 9.8301 12.0476 9.72608 12.0302C9.66964 12.022 9.61288 12.0141 9.56104 11.9869L9.5945 11.9734ZM11.2187 11.9272C11.2131 11.9597 11.2565 11.9603 11.2588 11.9872L11.2437 12.0043C11.2273 12.0184 11.1928 12.0171 11.1941 12.0479C11.1971 12.0722 11.2276 12.0673 11.2427 12.0801L11.2581 12.0968C11.2423 12.1277 11.2256 12.1582 11.2046 12.1998C11.1764 12.1122 11.1203 12.0814 11.0402 12.0955C10.9825 12.0699 10.9228 12.0889 10.864 12.0834C10.8332 12.0807 10.8013 12.0879 10.7738 12.0686C10.8246 12.0174 10.8906 12.0437 10.949 12.0423C11.0196 12.0394 11.0878 12.0551 11.1203 11.9685C11.1262 11.9534 11.1515 11.9511 11.1659 11.9403C11.1803 11.9262 11.199 11.9239 11.2187 11.9272ZM11.2318 11.0439L11.2112 10.9743C11.1977 10.9638 11.1826 10.9569 11.1744 10.9412C11.1215 10.8189 11.0866 10.6896 11.0707 10.5572C11.0691 10.5418 11.0724 10.5271 11.0681 10.511C11.1111 10.3925 11.1715 10.2793 11.1866 10.1517L11.2105 10.1671C11.2368 10.2354 11.2246 10.3079 11.2276 10.3787C11.2355 10.5878 11.2368 10.7978 11.2653 11.0045C11.2617 11.0248 11.2584 11.0445 11.2318 11.0439ZM11.1036 9.7412C11.0428 9.74185 10.9871 9.72348 10.9296 9.71003C10.9319 9.67885 10.9516 9.69165 10.9671 9.69428C11.0287 9.70478 11.0917 9.7156 11.1524 9.72479C11.1364 9.7309 11.1201 9.73637 11.1036 9.7412Z" fill="#BF9200"/>
<path fill-rule="evenodd" clip-rule="evenodd" d="M11.245 11.0127L11.2637 11.0596C11.2929 11.0777 11.2762 11.1115 11.2883 11.1358C11.2835 11.1535 11.279 11.1712 11.2749 11.1889C11.2503 11.1433 11.2424 11.0938 11.2316 11.0442L11.245 11.0127ZM10.8677 11.0609C10.8227 11.1492 10.7712 11.2355 10.8047 11.3412C10.8129 11.3549 10.804 11.37 10.807 11.3841C10.8329 11.4829 10.8608 11.5823 10.866 11.686C10.8594 11.7142 10.8603 11.7436 10.8687 11.7713C10.9084 11.8002 10.9212 11.835 10.8824 11.875L10.8687 11.8924C10.8424 11.8954 10.8198 11.9105 10.7929 11.9075C10.7404 11.9009 10.6934 11.8813 10.6888 11.8228C10.682 11.7418 10.6701 11.6604 10.6626 11.5794C10.6633 11.5298 10.6531 11.4816 10.6518 11.4324C10.6459 11.4147 10.6488 11.3946 10.6419 11.3786C10.644 11.3837 10.6455 11.3891 10.6462 11.3946C10.6462 11.415 10.6531 11.433 10.6547 11.454C10.6639 11.5229 10.6531 11.5955 10.6767 11.6634C10.6761 11.7152 10.6879 11.7664 10.6856 11.8192C10.6846 11.8888 10.637 11.942 10.5806 11.939C10.5274 11.937 10.4834 11.8852 10.4828 11.8192C10.4818 11.7628 10.4903 11.7054 10.4949 11.6493C10.513 11.5853 10.5074 11.5193 10.5143 11.454C10.5169 11.4193 10.5323 11.3858 10.5287 11.3507C10.531 11.3832 10.5215 11.4133 10.5146 11.4442C10.5182 11.4891 10.5041 11.5334 10.5061 11.5781C10.4956 11.6568 10.4874 11.736 10.4815 11.8156C10.4772 11.8727 10.4277 11.9088 10.3679 11.9078C10.344 11.9072 10.3236 11.8944 10.3003 11.8927L10.2862 11.8753C10.2485 11.8353 10.26 11.8009 10.2997 11.7717C10.3059 11.7448 10.3115 11.7159 10.3181 11.689C10.3122 11.6188 10.3092 11.5492 10.3371 11.4819C10.3441 11.4622 10.337 11.4526 10.3158 11.4531L10.3023 11.436C10.3288 11.3944 10.3555 11.3533 10.3824 11.3126C10.3954 11.2824 10.4026 11.25 10.4037 11.2171C10.4047 11.1613 10.4109 11.1059 10.4326 11.0527C10.4414 11.0334 10.4569 11.0179 10.4762 11.0091C10.5845 11.0878 10.5845 11.0878 10.6931 11.0075C10.7111 11.0168 10.7258 11.0315 10.7351 11.0495C10.7507 11.089 10.7604 11.1307 10.7637 11.1732C10.7642 11.1138 10.7826 11.0559 10.8165 11.0071C10.8203 11.0025 10.8251 10.9986 10.8304 10.9958C10.8358 10.993 10.8416 10.9913 10.8477 10.9907C10.8761 10.9951 10.891 11.0116 10.8923 11.0403C10.8887 11.0531 10.8828 11.0632 10.8677 11.0609Z" fill="#BF9200"/>
<path fill-rule="evenodd" clip-rule="evenodd" d="M10.8644 11.4707L10.7873 11.372C10.7927 11.3613 10.7984 11.351 10.8043 11.3411C10.8355 11.3753 10.8588 11.413 10.8795 11.4537L10.8644 11.4707ZM10.4578 9.3796C10.5212 9.30938 10.5212 9.21784 10.5353 9.13187C10.5494 9.05016 10.5546 8.9678 10.5635 8.88184C10.5966 8.89332 10.5878 8.91301 10.5868 8.9281C10.5776 9.06099 10.5648 9.19388 10.5264 9.32218C10.5208 9.3422 10.5126 9.36155 10.5208 9.38288L10.5054 9.39896H10.4752C10.4578 9.40388 10.4536 9.39601 10.4578 9.3796ZM10.6458 9.22013C10.6235 9.11382 10.6353 9.00751 10.6304 8.89201C10.6734 8.9153 10.6586 8.9409 10.6593 8.96157C10.6324 9.04655 10.6547 9.13449 10.6458 9.22013Z" fill="#BF9200"/>
<path fill-rule="evenodd" clip-rule="evenodd" d="M10.4577 9.37964L10.4757 9.399C10.4429 9.43181 10.4065 9.4574 10.3638 9.47479C10.3435 9.46069 10.3448 9.44592 10.3638 9.43181C10.4032 9.42919 10.4271 9.39834 10.4577 9.37964ZM10.1604 9.72515C10.1481 9.72056 10.1358 9.71564 10.1233 9.71039C10.2174 9.6837 10.3116 9.65745 10.4061 9.63164C10.4222 9.62508 10.4271 9.63098 10.4271 9.64673C10.3416 9.68328 10.2521 9.70961 10.1604 9.72515ZM10.7979 9.66806C10.7361 9.65494 10.6784 9.62714 10.6296 9.58701C10.6312 9.57717 10.6394 9.57651 10.6467 9.57356L10.8189 9.65067C10.8206 9.66675 10.8163 9.67528 10.7979 9.66806Z" fill="#BF9200"/>
<path fill-rule="evenodd" clip-rule="evenodd" d="M10.4272 9.64655L10.4062 9.63145L10.5536 9.55664C10.5571 9.55784 10.5603 9.55978 10.563 9.56233C10.5658 9.56488 10.5679 9.56797 10.5693 9.57141C10.5286 9.61078 10.4778 9.62948 10.4272 9.64655ZM10.798 9.6682L10.819 9.65114C10.8679 9.66558 10.9181 9.68067 10.9667 9.69445C10.9545 9.70036 10.9417 9.70463 10.9293 9.7102C10.8847 9.70036 10.8384 9.69183 10.798 9.6682Z" fill="#BF9200"/>
<path fill-rule="evenodd" clip-rule="evenodd" d="M10.5689 9.5714C10.563 9.56648 10.5591 9.56156 10.5532 9.55664C10.5961 9.49692 10.6168 9.55467 10.6463 9.5737L10.6293 9.58715C10.6099 9.58158 10.5952 9.555 10.5689 9.5714ZM10.7881 10.8511C10.8032 10.8015 10.8065 10.752 10.8065 10.7002C10.8052 10.4042 10.8065 10.1092 10.8052 9.81323C10.8052 9.78403 10.8193 9.75089 10.7881 9.72562C10.7837 9.72387 10.7823 9.72158 10.7838 9.71873C10.7851 9.71589 10.7866 9.71447 10.7881 9.71447C10.9128 9.7394 11.0342 9.7814 11.1638 9.7814C11.1979 9.78206 11.1996 9.80404 11.1986 9.82931C11.1822 10.2188 11.0549 10.563 10.7881 10.8511ZM10.3786 9.72529C10.3415 9.73218 10.3474 9.76237 10.3474 9.78633C10.3474 10.1059 10.3491 10.4262 10.3461 10.7458C10.3461 10.7782 10.3688 10.8035 10.3655 10.835C10.1558 10.608 10.0403 10.3363 9.98911 10.036C9.9773 9.96712 9.97566 9.89625 9.97008 9.8257C9.96647 9.79354 9.97828 9.77944 10.0124 9.77944C10.1332 9.77681 10.2483 9.74039 10.3638 9.71119C10.3802 9.70331 10.3819 9.7125 10.3786 9.72529ZM9.93891 11.044C9.93508 11.0333 9.9307 11.0228 9.92578 11.0125C9.97828 10.75 9.9727 10.4836 9.97172 10.2175L9.98747 10.1994L10.1013 10.5092C10.1099 10.5256 10.1007 10.5404 10.103 10.5561C10.0839 10.6887 10.0505 10.8176 9.99666 10.9413C9.98944 10.9571 9.97369 10.964 9.96089 10.9738L9.93891 11.044ZM10.8675 11.0611L10.8819 11.044C10.9456 11.0234 10.9249 10.9715 10.9249 10.9282C10.9236 10.8832 10.8898 10.8849 10.8583 10.8826C10.8527 10.8812 10.8477 10.878 10.8441 10.8735C10.8404 10.869 10.8384 10.8634 10.8383 10.8577C10.9207 10.7477 10.9984 10.6326 11.0657 10.5112L11.0857 10.5417C11.0634 10.6243 11.0487 10.7087 11.0417 10.794C11.0335 10.9069 11.085 10.9515 11.192 10.9312C11.1979 10.9447 11.2036 10.9592 11.2091 10.9745C11.151 11.0703 11.151 11.0703 11.0647 10.9863C11.0463 10.9686 11.0266 10.9512 10.9978 10.9243L10.9623 11.1917L10.8675 11.0611Z" fill="#BF9200"/>
<path fill-rule="evenodd" clip-rule="evenodd" d="M9.95923 10.9734L9.97564 10.9311C10.0485 10.9613 10.0921 10.9223 10.1295 10.8678C10.1469 10.8458 10.1548 10.8159 10.1817 10.8025C10.2017 10.7989 10.2234 10.7999 10.2391 10.7818C10.2435 10.7788 10.2486 10.777 10.2539 10.7767C10.2593 10.7763 10.2646 10.7774 10.2693 10.7798C10.2854 10.7999 10.308 10.8146 10.3133 10.8428C10.313 10.8499 10.3105 10.8567 10.3061 10.8622C10.2831 10.8789 10.2473 10.8796 10.2365 10.9127C10.2181 10.9321 10.2175 10.9688 10.1797 10.9666C10.1712 10.9561 10.184 10.9121 10.1479 10.9449C10.1198 10.968 10.0937 10.9933 10.0698 11.0207C10.0294 11.0679 9.9986 11.0768 9.97892 11.0049C9.97531 10.9935 9.96645 10.9839 9.95923 10.9734Z" fill="#BF9200"/>
<path fill-rule="evenodd" clip-rule="evenodd" d="M10.1883 10.8103C10.1796 10.8361 10.1713 10.8622 10.1634 10.8887C10.1388 10.8792 10.1306 10.8572 10.129 10.8329C10.1195 10.7354 10.1038 10.6387 10.082 10.5432C10.0876 10.5314 10.0942 10.5209 10.0998 10.5087C10.1358 10.5721 10.1729 10.6338 10.209 10.6971C10.2129 10.7027 10.215 10.7093 10.2149 10.7161C10.2064 10.7388 10.2074 10.7624 10.208 10.7863C10.2054 10.7975 10.2005 10.806 10.1883 10.8103ZM10.3022 10.8477C10.3055 10.8447 10.3091 10.8438 10.3127 10.8418C10.3675 10.8976 10.422 10.952 10.4755 11.0081C10.4769 11.0268 10.4721 11.0453 10.462 11.061C10.422 11.0449 10.3967 10.997 10.3449 11.0081C10.3346 11.0045 10.3262 10.9971 10.3212 10.9875C10.3311 10.9386 10.2723 10.8989 10.3022 10.8477ZM10.838 10.8575C10.8422 10.86 10.8458 10.8634 10.8485 10.8674C10.8689 10.9117 10.8577 10.955 10.8472 10.9986L10.8321 11.016C10.7813 11.0029 10.7448 11.0377 10.7058 11.0616C10.693 11.0449 10.6923 11.0259 10.6914 11.0072C10.7399 10.9576 10.7901 10.9077 10.838 10.8575ZM10.3803 10.8575C10.4485 10.8746 10.4846 10.9251 10.5145 10.9835C10.46 10.9527 10.4203 10.9051 10.3803 10.8575ZM10.6284 9.64839C10.5811 9.61361 10.5476 9.67268 10.5043 9.66546C10.5437 9.6438 10.5729 9.55324 10.6284 9.64839ZM10.5296 10.9822C10.5706 11.0262 10.6103 11.0006 10.6497 10.9786C10.6385 11.0131 10.6149 11.0406 10.5811 11.0406C10.5562 11.0396 10.5309 11.0157 10.5296 10.9822Z" fill="#BF9200"/>
<path fill-rule="evenodd" clip-rule="evenodd" d="M10.2048 10.7229C10.2057 10.7142 10.2069 10.7057 10.2084 10.6973C10.2284 10.7249 10.2475 10.7521 10.2685 10.7797L10.2527 10.7974C10.213 10.8001 10.2071 10.7682 10.1963 10.7426C10.1968 10.7353 10.1999 10.7284 10.2048 10.7229ZM10.6937 10.9362C10.7121 10.906 10.7229 10.8657 10.7718 10.8742C10.7498 10.9008 10.7308 10.9303 10.6937 10.9362ZM10.7882 9.71297V9.72446C10.7603 9.71625 10.7265 9.71757 10.7121 9.68213C10.7401 9.684 10.7668 9.69481 10.7882 9.71297ZM10.3787 9.72511L10.364 9.71166C10.3869 9.69164 10.4132 9.68213 10.4424 9.69886C10.4256 9.71855 10.401 9.72019 10.3787 9.72511ZM10.3328 10.9805L10.3476 10.9979C10.3909 11.0442 10.3941 11.1042 10.4043 11.1613C10.4099 11.1853 10.4076 11.2105 10.4256 11.2315C10.425 11.2663 10.401 11.2876 10.3817 11.3126C10.3636 11.2256 10.3502 11.1377 10.3006 11.0609C10.2859 11.0652 10.2793 11.0553 10.2747 11.0422C10.2747 11.0032 10.2878 10.9772 10.3328 10.9805Z" fill="#BF9200"/>
<path fill-rule="evenodd" clip-rule="evenodd" d="M10.2851 11.0424L10.3008 11.0611C10.2756 11.0985 10.2483 11.1671 10.2149 11.1602C10.1676 11.1487 10.1985 11.0782 10.1857 11.0358C10.1791 11.0135 10.1814 10.9892 10.1791 10.9666L10.2054 10.8892C10.2437 10.9059 10.2401 10.9417 10.2401 10.9748C10.2401 11.0079 10.2493 11.0326 10.2851 11.0424ZM11.1595 12.3962C11.1369 12.4008 11.1097 12.4113 11.1057 12.3743C11.1034 12.3401 11.1254 12.3208 11.1504 12.3053C11.196 12.2778 11.1901 12.3388 11.2212 12.3533C11.2262 12.2985 11.2872 12.2722 11.2691 12.2125C11.2678 12.2089 11.2809 12.1977 11.2898 12.1938C11.2921 12.1925 11.3049 12.2003 11.3056 12.2046C11.3092 12.2637 11.3797 12.2578 11.3971 12.3024C11.401 12.3139 11.4191 12.3181 11.4224 12.3103C11.4549 12.2489 11.5034 12.2745 11.554 12.2893C11.5454 12.2463 11.5375 12.2118 11.5307 12.1777C11.5238 12.1436 11.5123 12.1144 11.4683 12.1321C11.4496 12.1396 11.4358 12.1314 11.4339 12.1147C11.4289 12.0931 11.4516 12.094 11.465 12.0901C11.5287 12.0737 11.5556 12.1072 11.5681 12.1646C11.5772 12.2168 11.5671 12.2912 11.6626 12.2548C11.6675 12.2525 11.6816 12.264 11.6855 12.2719C11.6921 12.286 11.6754 12.2926 11.6691 12.2919C11.5845 12.2866 11.5307 12.388 11.4391 12.3572C11.4234 12.3529 11.4165 12.3631 11.4112 12.3772C11.3886 12.4323 11.3617 12.4396 11.3128 12.3979C11.2682 12.3605 11.2265 12.3821 11.1963 12.4254C11.1664 12.4353 11.1779 12.3976 11.1595 12.3962ZM10.2047 12.4786C10.2677 12.4566 10.3084 12.43 10.2733 12.367C10.2621 12.3467 10.2693 12.328 10.2894 12.3221C10.3077 12.3152 10.3113 12.3355 10.3179 12.3496C10.3245 12.3638 10.3291 12.3818 10.3491 12.3759C10.3697 12.371 10.3625 12.3513 10.3615 12.3368C10.3599 12.3191 10.352 12.2978 10.374 12.288C10.3996 12.2775 10.3996 12.3067 10.4121 12.3165C10.4498 12.3421 10.4934 12.326 10.5338 12.33C10.5699 12.3359 10.6132 12.326 10.5998 12.3877C10.6339 12.3831 10.6316 12.3542 10.65 12.3441C10.671 12.3329 10.6979 12.3152 10.7136 12.3329C10.7281 12.35 10.7267 12.3818 10.7267 12.4077C10.7274 12.4366 10.7028 12.4366 10.6818 12.4376C10.6441 12.4382 10.606 12.4307 10.5807 12.476C10.5686 12.497 10.5417 12.4957 10.519 12.477C10.4393 12.4143 10.3727 12.412 10.2962 12.4688C10.2743 12.4858 10.2503 12.4898 10.2047 12.4786ZM10.1069 12.4212C10.1214 12.3414 10.1355 12.2804 10.1315 12.2171C10.1302 12.1951 10.1378 12.1784 10.1571 12.1784C10.1899 12.1784 10.1745 12.2046 10.1722 12.2187C10.1641 12.283 10.1546 12.3475 10.1437 12.412C10.1394 12.434 10.123 12.4487 10.102 12.4553C10.0813 12.4612 10.0679 12.4494 10.0554 12.4343C10.0062 12.3674 9.93137 12.3487 9.8605 12.3907C9.83687 12.4048 9.81456 12.4156 9.77945 12.4035C9.82736 12.3772 9.86214 12.3473 9.83982 12.2893C9.83556 12.2784 9.84475 12.2607 9.85853 12.2584C9.87526 12.2548 9.87789 12.2719 9.87953 12.2847C9.88314 12.308 9.88642 12.3316 9.91562 12.3372C9.92973 12.3398 9.9422 12.3398 9.95172 12.3296C9.95959 12.3198 9.94811 12.3122 9.9422 12.304C9.89856 12.2361 9.98879 12.2558 10.0022 12.2194C10.0131 12.1925 10.0482 12.2187 10.0488 12.242C10.0502 12.2719 10.1387 12.3024 10.0515 12.3326C10.0666 12.3578 10.0823 12.3818 10.1069 12.4212ZM9.53861 12.0973C9.57437 12.074 9.6144 12.0681 9.63967 12.0816C9.66001 12.0931 9.63507 12.1278 9.62884 12.1528C9.62753 12.1577 9.62523 12.1626 9.6249 12.1682C9.61998 12.2003 9.58028 12.2463 9.61801 12.2637C9.67412 12.2873 9.64459 12.2171 9.66592 12.199C9.67511 12.1925 9.68757 12.1902 9.70496 12.183C9.70332 12.2003 9.70398 12.2102 9.70267 12.22C9.69676 12.2476 9.66854 12.2824 9.71973 12.2939C9.76764 12.3053 9.75911 12.2745 9.75911 12.244C9.75943 12.221 9.78732 12.2184 9.80767 12.2174C9.80931 12.221 9.81193 12.2236 9.81128 12.2259C9.77781 12.3644 9.79946 12.351 9.66296 12.3181C9.62523 12.3099 9.58815 12.2981 9.55075 12.2866C9.53139 12.2821 9.50382 12.2847 9.50153 12.2571C9.50022 12.2282 9.51957 12.2099 9.54648 12.1987C9.56124 12.195 9.57495 12.1879 9.58651 12.178C9.619 12.1406 9.60193 12.1078 9.53861 12.0973ZM10.8163 12.4389C10.7533 12.4225 10.7786 12.3772 10.8006 12.3578C10.8436 12.3227 10.8442 12.2847 10.8268 12.2407C10.8173 12.2161 10.8278 12.2033 10.8462 12.2003C10.8688 12.1977 10.8649 12.2204 10.8669 12.2345C10.8721 12.2738 10.8754 12.3119 10.8806 12.3506C10.8823 12.3716 10.8829 12.3969 10.9144 12.3884C10.9374 12.3821 10.9423 12.3664 10.9325 12.346C10.9249 12.328 10.9157 12.3086 10.941 12.3021C10.9751 12.2939 10.9673 12.3254 10.9732 12.3428C10.9938 12.41 10.9617 12.4323 10.899 12.4284C10.8747 12.4583 10.8436 12.4343 10.8163 12.4389ZM10.9797 12.4786C11.0286 12.4307 11.0631 12.3953 11.0112 12.347C10.9961 12.3346 11.0096 12.3103 11.027 12.3024C11.0454 12.2955 11.0499 12.3165 11.0585 12.3293C11.1018 12.4005 11.0847 12.4478 10.9797 12.4786ZM10.2113 12.18C10.2352 12.1928 10.2565 12.1994 10.246 12.2263C10.2267 12.2729 10.2267 12.3224 10.2224 12.3703C10.2211 12.3871 10.2224 12.4123 10.1962 12.4071C10.1693 12.4021 10.1827 12.3788 10.185 12.3631C10.1879 12.3318 10.1916 12.3011 10.1962 12.2709C10.2008 12.2427 10.2047 12.2148 10.2113 12.18Z" fill="#BF9200"/>
<path fill-rule="evenodd" clip-rule="evenodd" d="M10.8972 12.4437C10.9129 12.4496 10.929 12.4624 10.9172 12.4775C10.8972 12.5002 10.8657 12.4818 10.8394 12.4857C10.8223 12.4893 10.8194 12.4674 10.8325 12.4523C10.8519 12.4378 10.8748 12.4418 10.8972 12.4437ZM11.1597 12.3962C11.1718 12.406 11.1826 12.4162 11.1957 12.425C11.1813 12.4582 11.156 12.4615 11.1239 12.4559C11.1311 12.4313 11.177 12.4322 11.1597 12.3962ZM10.7971 12.2357C10.7935 12.2505 10.7853 12.2537 10.7754 12.2505C10.7695 12.2488 10.7626 12.2403 10.7626 12.237C10.7633 12.2242 10.7728 12.219 10.7846 12.2229C10.7899 12.2249 10.7938 12.2311 10.7971 12.2357ZM10.8013 12.2977C10.7951 12.3053 10.7882 12.3141 10.7777 12.3082C10.7685 12.3023 10.761 12.2944 10.7675 12.2836C10.7728 12.2738 10.7803 12.2662 10.7912 12.2738C10.8 12.2777 10.8066 12.2859 10.8013 12.2977ZM11.6341 12.3486C11.6295 12.363 11.62 12.366 11.6092 12.365C11.5993 12.3637 11.5872 12.3591 11.5941 12.3456C11.5977 12.3387 11.6082 12.3328 11.6167 12.3315C11.6285 12.3302 11.6331 12.3397 11.6341 12.3486ZM9.57153 12.3295C9.56562 12.3414 9.55807 12.3486 9.54659 12.343C9.54134 12.3397 9.53576 12.3309 9.5374 12.325C9.5397 12.3154 9.54954 12.3095 9.56004 12.3154C9.56562 12.3174 9.56857 12.3253 9.57153 12.3295ZM9.72509 12.3729C9.71754 12.3778 9.71229 12.3847 9.70737 12.3853C9.6949 12.388 9.68768 12.3788 9.69162 12.3686C9.69359 12.3633 9.70278 12.3587 9.70868 12.3587C9.71295 12.3591 9.71754 12.367 9.72509 12.3729ZM9.74839 11.9404C9.77078 11.9347 9.79424 11.9348 9.8166 11.9406C9.83896 11.9464 9.85951 11.9577 9.87635 11.9735C9.8291 11.9811 9.78809 11.9647 9.74839 11.9404ZM9.56168 11.8846C9.58251 11.8784 9.60468 11.8784 9.62549 11.8847C9.6463 11.8909 9.66484 11.9031 9.67882 11.9197C9.63781 11.9273 9.60303 11.9115 9.56168 11.8846ZM11.2925 11.9689C11.329 11.9404 11.3733 11.9338 11.4176 11.9319L11.4231 11.9512L11.2991 11.9876L11.2925 11.9689ZM11.4799 11.924C11.5167 11.8856 11.5537 11.8771 11.6069 11.8803C11.5902 11.8965 11.5702 11.9088 11.5483 11.9164C11.5263 11.9239 11.503 11.9265 11.4799 11.924ZM10.1293 12.0674H10.3804C10.2982 12.09 10.2115 12.09 10.1293 12.0674ZM10.5198 11.4374L10.507 11.4397L10.527 11.2996C10.5379 11.3612 10.5431 11.4006 10.5198 11.4374ZM10.634 11.3895V11.3179C10.653 11.3373 10.6452 11.3563 10.6484 11.374C10.656 11.3905 10.6471 11.3921 10.634 11.3895Z" fill="#BF9200"/>
<path fill-rule="evenodd" clip-rule="evenodd" d="M10.6339 11.3894L10.6484 11.374C10.6541 11.3809 10.6581 11.3892 10.66 11.398C10.6619 11.4068 10.6616 11.4159 10.6592 11.4246C10.6548 11.4294 10.6501 11.4339 10.6451 11.438C10.6323 11.4246 10.6313 11.4068 10.6339 11.3894ZM10.2015 12.0119C10.1553 12.0221 10.1076 12.0231 10.061 12.0149C10.1103 11.9765 10.1506 11.9751 10.2015 12.0119ZM10.3691 12.0198C10.3357 12.0355 10.2996 12.0332 10.2615 12.0355C10.2671 12.005 10.2861 12.0066 10.3035 12.0066C10.3235 12.0168 10.3501 11.9991 10.3691 12.0198Z" fill="#BF9200"/>
<path fill-rule="evenodd" clip-rule="evenodd" d="M10.3691 12.0198C10.3465 12.0162 10.3225 12.0198 10.3035 12.0067C10.3297 12.0047 10.3553 12.0036 10.3802 12.0034C10.3871 12.0034 10.3957 12.0103 10.3835 12.0169C10.3799 12.0198 10.374 12.0182 10.3691 12.0198ZM11.0959 12.007C11.0548 12.0214 11.0104 12.0238 10.9679 12.0139C11.0135 11.9706 11.0539 11.9877 11.0959 12.007ZM10.8675 12.0067C10.8833 12.0034 10.8964 12.01 10.9151 12.029C10.8769 12.0374 10.837 12.0342 10.8006 12.0198C10.8199 11.9991 10.8462 12.0169 10.8675 12.0067Z" fill="#BF9200"/>
<path fill-rule="evenodd" clip-rule="evenodd" d="M10.8676 12.0066C10.8469 12.0197 10.8233 12.0161 10.8006 12.0197C10.7941 12.0161 10.7655 12.018 10.7878 12.0066C10.8079 11.9944 10.8397 12.0049 10.8676 12.0066ZM10.2048 10.7334C10.1877 10.7462 10.1949 10.7653 10.189 10.781C10.1779 10.76 10.1703 10.738 10.1808 10.7164C10.1851 10.7059 10.1972 10.7177 10.2048 10.7229V10.7334ZM10.0076 12.2651C10.0141 12.2723 10.021 12.2766 10.0223 12.2825C10.0292 12.2986 10.0154 12.2986 10.0062 12.2973C10.001 12.2973 9.99279 12.2884 9.99345 12.2838C9.9941 12.2779 10.001 12.2723 10.0076 12.2651Z" fill="#BF9200"/>
<path d="M26.564 10.404H28.508V8.472H29.468V10.404H31.436V11.328H29.468V13.308H28.508V11.328H26.564V10.404ZM33.86 8.928H32.816C32.828 8.484 32.936 8.1 33.14 7.764C33.332 7.44 33.596 7.188 33.932 7.008C34.256 6.84 34.604 6.708 34.964 6.624C35.324 6.552 35.72 6.504 36.14 6.504C36.548 6.504 36.944 6.552 37.304 6.636C37.664 6.732 38.012 6.864 38.336 7.056C38.648 7.248 38.9 7.5 39.092 7.836C39.284 8.172 39.38 8.568 39.38 9.012C39.38 9.468 39.284 9.864 39.092 10.2C38.9 10.536 38.648 10.8 38.336 10.992C38.012 11.184 37.664 11.316 37.292 11.4C36.92 11.484 36.524 11.52 36.092 11.52C34.568 11.544 33.812 12.024 33.812 12.972V14.004H39.344V15H32.756V12.972C32.756 12.516 32.852 12.132 33.044 11.796C33.236 11.472 33.488 11.22 33.824 11.052C34.16 10.884 34.508 10.752 34.88 10.668C35.24 10.596 35.648 10.548 36.08 10.548C36.32 10.548 36.572 10.524 36.812 10.476C37.052 10.428 37.304 10.356 37.544 10.248C37.784 10.14 37.976 9.984 38.12 9.768C38.264 9.564 38.348 9.312 38.348 9.024C38.348 8.472 38.132 8.064 37.712 7.812C37.28 7.572 36.764 7.44 36.14 7.416C35.528 7.416 35 7.536 34.544 7.776C34.088 8.016 33.86 8.4 33.86 8.928ZM40.8299 9.96C40.8299 9.408 40.9259 8.892 41.1179 8.436C41.3099 7.98 41.5739 7.62 41.8859 7.344C42.1979 7.068 42.5699 6.852 42.9779 6.696C43.3859 6.552 43.7939 6.468 44.2259 6.468C44.6459 6.468 45.0659 6.552 45.4739 6.696C45.8819 6.852 46.2419 7.068 46.5539 7.344C46.8659 7.632 47.1299 7.992 47.3219 8.448C47.5139 8.904 47.6219 9.408 47.6219 9.96V11.64C47.6219 12.384 47.4539 13.02 47.1179 13.56C46.7819 14.112 46.3619 14.508 45.8579 14.748C45.3539 15 44.8019 15.12 44.2259 15.12C43.6379 15.12 43.0979 15 42.5939 14.76C42.0899 14.52 41.6699 14.124 41.3339 13.572C40.9979 13.032 40.8299 12.384 40.8299 11.64V9.96ZM41.8739 11.64C41.8739 12.096 41.9579 12.504 42.1259 12.864C42.2939 13.224 42.5219 13.5 42.7979 13.692C43.0739 13.884 43.3859 14.016 43.7219 14.1C44.0579 14.184 44.3939 14.184 44.7299 14.088C45.0659 14.004 45.3659 13.872 45.6419 13.68C45.9179 13.5 46.1459 13.224 46.3139 12.864C46.4819 12.504 46.5779 12.084 46.5779 11.628V9.948C46.5779 9.492 46.4819 9.096 46.3139 8.736C46.1459 8.376 45.9179 8.112 45.6419 7.92C45.3659 7.74 45.0659 7.608 44.7299 7.512C44.3939 7.428 44.0579 7.428 43.7219 7.512C43.3859 7.596 43.0739 7.728 42.7979 7.92C42.5219 8.112 42.2939 8.376 42.1259 8.736C41.9579 9.096 41.8739 9.504 41.8739 9.96V11.64Z" fill="black"/>
</svg>
