<svg width="41" height="44" viewBox="0 0 41 44" fill="none" xmlns="http://www.w3.org/2000/svg">
<path d="M6.47281 44H34.5277C37.8697 44 40.6045 41.2664 40.6045 37.9245V6.07635C40.6045 2.73444 37.8697 0 34.5277 0H6.47281C3.12998 0 0.395996 2.73444 0.395996 6.07635V37.9245C0.395996 41.2664 3.12998 44 6.47281 44Z" fill="#ED1C24"/>
<path d="M17.8717 26.005C18.0152 26.1038 18.0866 26.2249 18.0866 26.3685C18.0866 26.4565 18.0592 26.5502 18.0036 26.649L17.5574 27.293C17.2048 27.8 16.781 28.2349 16.2857 28.5984C15.4156 29.2374 14.4186 29.556 13.2955 29.556C11.8745 29.556 10.6627 29.0556 9.66065 28.0531C8.6578 27.0399 8.15679 25.8233 8.15679 24.4025V15.2175H5.00143C4.69286 15.2175 4.53857 15.0689 4.53857 14.7718V13.1859C4.53857 12.8888 4.69286 12.7403 5.00143 12.7403H8.15679V5.55438C8.15679 5.25646 8.30527 5.10791 8.60305 5.10791H10.1724C10.481 5.10791 10.6353 5.25646 10.6353 5.55438V12.7403H16.946C17.2438 12.7403 17.3923 12.8888 17.3923 13.1859V14.7718C17.3923 15.0689 17.2438 15.2175 16.946 15.2175H10.6353V24.4025C10.6353 25.1403 10.8941 25.7735 11.4117 26.3021C11.9293 26.8199 12.5572 27.0789 13.2955 27.0789C13.857 27.0789 14.3746 26.9079 14.8483 26.5668C15.0905 26.4009 15.3111 26.1809 15.5093 25.9054L15.939 25.2614C16.0485 25.1179 16.1705 25.0465 16.3023 25.0465C16.3795 25.0465 16.4674 25.0739 16.5669 25.1295L17.8717 26.005Z" fill="white"/>
<path d="M22.8642 19.4802H29.6502C29.7514 19.4802 29.802 19.5308 29.802 19.6321V19.8346C29.802 19.9358 29.7514 19.9864 29.6502 19.9864H22.8642C22.763 19.9864 22.7124 19.9358 22.7124 19.8346V19.6321C22.7124 19.5815 22.8136 19.4802 22.8642 19.4802Z" fill="white"/>
<path d="M24.7883 20.8979H30.6122C30.7133 20.8979 30.7639 20.9486 30.7639 21.0498V21.2523C30.7639 21.3536 30.7133 21.4042 30.6122 21.4042H24.7377C24.6365 21.4042 24.5859 21.3536 24.5859 21.2523V21.0498C24.6365 20.9992 24.6871 20.8979 24.7883 20.8979Z" fill="white"/>
<path d="M23.3705 22.3162H28.2828C28.384 22.3162 28.4346 22.3668 28.4346 22.468V22.6705C28.4346 22.7718 28.384 22.8224 28.2828 22.8224H23.3705C23.2693 22.8224 23.2188 22.7718 23.2188 22.6705V22.468C23.2188 22.4174 23.2693 22.3162 23.3705 22.3162Z" fill="white"/>
<path fill-rule="evenodd" clip-rule="evenodd" d="M16.9899 15.8856L17.5473 18.0117L19.3191 24.6955C19.4709 25.303 19.7753 25.9105 20.2307 26.4175C20.6363 26.9238 21.1929 27.3287 21.7503 27.5819C22.3575 27.835 22.9655 27.9868 23.6241 27.9868C24.2819 27.9868 24.9405 27.835 25.4971 27.5819L32.1819 24.3918C32.9417 24.0375 33.6003 23.4806 34.0557 22.7719C34.5119 22.0623 34.7649 21.2524 34.7649 20.3918V18.7719C34.7649 17.9611 34.4605 17.2524 33.9039 16.6955C33.3465 16.1387 32.5875 15.835 31.8277 15.835H19.3191L19.1167 15.025C18.9649 14.4167 18.5601 13.8599 18.0533 13.4549C17.5473 13.0499 16.8887 12.8474 16.2807 12.8474H13.6985C13.3941 12.8474 13.1411 12.9487 12.8881 13.1511C12.6857 13.3536 12.5845 13.6574 12.5845 13.9611C12.5845 14.2648 12.6857 14.518 12.8881 14.7719C13.0905 14.9744 13.3941 15.0756 13.6985 15.0756H16.2807C16.4325 15.0756 16.5851 15.1262 16.7369 15.2275C16.8887 15.3287 16.9393 15.4806 16.9899 15.6325V15.8856ZM24.5357 25.5561L31.2197 22.3669C31.6253 22.1636 31.9289 21.9105 32.1313 21.5561C32.3337 21.2018 32.4855 20.7968 32.4855 20.3918V18.7719C32.4855 18.5694 32.3843 18.3661 32.2831 18.2648C32.1313 18.113 31.9795 18.0623 31.7771 18.0623H19.8259L21.4459 24.1893C21.5479 24.4931 21.6997 24.7968 21.9021 25.0499C22.1045 25.303 22.3575 25.5055 22.6619 25.6574C22.9655 25.8092 23.2691 25.8599 23.6241 25.8599C23.9277 25.8092 24.2819 25.708 24.5357 25.5561Z" fill="white"/>
<path d="M32.6889 28.9487C33.472 28.9487 34.1065 28.3139 34.1065 27.5313C34.1065 26.7479 33.472 26.113 32.6889 26.113C31.9059 26.113 31.2705 26.7479 31.2705 27.5313C31.2705 28.3139 31.9059 28.9487 32.6889 28.9487Z" fill="white"/>
<path d="M27.0167 31.3286C27.7997 31.3286 28.4343 30.6937 28.4343 29.9103C28.4343 29.1278 27.7997 28.4929 27.0167 28.4929C26.2337 28.4929 25.5991 29.1278 25.5991 29.9103C25.5991 30.6937 26.2337 31.3286 27.0167 31.3286Z" fill="white"/>
</svg>
