<svg width="74" height="80" viewBox="0 0 74 80" fill="none" xmlns="http://www.w3.org/2000/svg">
<path d="M11.7185 79.1434H62.1812C68.1925 79.1434 73.1116 74.2264 73.1116 68.2153V10.9296C73.1116 4.91847 68.1925 0 62.1812 0H11.7185C5.70574 0 0.788086 4.91847 0.788086 10.9296V68.2153C0.788086 74.2264 5.70574 79.1434 11.7185 79.1434Z" fill="#ED1C24"/>
<path d="M32.2218 46.7754C32.4799 46.953 32.6082 47.1709 32.6082 47.4292C32.6082 47.5874 32.559 47.7561 32.459 47.9337L31.6563 49.0921C31.0222 50.0041 30.2598 50.7863 29.3691 51.4401C27.8039 52.5895 26.0105 53.1627 23.9904 53.1627C21.4346 53.1627 19.2547 52.2626 17.4524 50.4594C15.6486 48.6368 14.7474 46.4485 14.7474 43.893V27.3717H9.0718C8.51677 27.3717 8.23926 27.1045 8.23926 26.5701V23.7175C8.23926 23.1831 8.51677 22.9159 9.0718 22.9159H14.7474V9.99058C14.7474 9.45469 15.0145 9.1875 15.5501 9.1875H18.373C18.928 9.1875 19.2055 9.45469 19.2055 9.99058V22.9159H30.5567C31.0923 22.9159 31.3594 23.1831 31.3594 23.7175V26.5701C31.3594 27.1045 31.0923 27.3717 30.5567 27.3717H19.2055V43.893C19.2055 45.22 19.671 46.3589 20.602 47.3098C21.533 48.2412 22.6625 48.7069 23.9904 48.7069C25.0005 48.7069 25.9315 48.3994 26.7834 47.7859C27.2191 47.4874 27.6159 47.0918 27.9725 46.5962L28.7454 45.4379C28.9423 45.1797 29.1617 45.0513 29.3989 45.0513C29.5376 45.0513 29.6958 45.1006 29.8748 45.2006L32.2218 46.7754Z" fill="white"/>
<path d="M41.2022 35.0398H53.4083C53.5904 35.0398 53.6814 35.1309 53.6814 35.313V35.6772C53.6814 35.8593 53.5904 35.9503 53.4083 35.9503H41.2022C41.0202 35.9503 40.9292 35.8593 40.9292 35.6772V35.313C40.9292 35.2219 41.1112 35.0398 41.2022 35.0398Z" fill="white"/>
<path d="M44.6639 37.5895H55.1392C55.3213 37.5895 55.4123 37.6805 55.4123 37.8626V38.2269C55.4123 38.409 55.3213 38.5 55.1392 38.5H44.5728C44.3908 38.5 44.2998 38.409 44.2998 38.2269V37.8626C44.3908 37.7716 44.4818 37.5895 44.6639 37.5895Z" fill="white"/>
<path d="M42.1124 40.1404H50.9481C51.1301 40.1404 51.2211 40.2314 51.2211 40.4135V40.7778C51.2211 40.9599 51.1301 41.0509 50.9481 41.0509H42.1124C41.9304 41.0509 41.8394 40.9599 41.8394 40.7778V40.4135C41.8394 40.3225 41.9304 40.1404 42.1124 40.1404Z" fill="white"/>
<path fill-rule="evenodd" clip-rule="evenodd" d="M30.636 28.5736L31.6386 32.3979L34.8255 44.4202C35.0986 45.5128 35.6461 46.6055 36.4652 47.5175C37.1948 48.4281 38.196 49.1565 39.1986 49.6118C40.2907 50.0671 41.3844 50.3402 42.569 50.3402C43.7522 50.3402 44.9368 50.0671 45.938 49.6118L57.9621 43.8738C59.3287 43.2364 60.5134 42.2348 61.3325 40.9601C62.1531 39.6838 62.6082 38.2269 62.6082 36.679V33.7652C62.6082 32.3068 62.0606 31.0321 61.0595 30.0304C60.0568 29.0288 58.6917 28.4825 57.325 28.4825H34.8255L34.4615 27.0256C34.1884 25.9315 33.4603 24.9299 32.5487 24.2014C31.6386 23.473 30.4539 23.1088 29.3603 23.1088H24.7157C24.1681 23.1088 23.7131 23.2909 23.258 23.6551C22.8939 24.0193 22.7119 24.5656 22.7119 25.112C22.7119 25.6583 22.8939 26.1136 23.258 26.5704C23.622 26.9346 24.1681 27.1167 24.7157 27.1167H29.3603C29.6333 27.1167 29.9079 27.2077 30.1809 27.3899C30.4539 27.572 30.5449 27.8451 30.636 28.1183V28.5736ZM44.2087 45.9681L56.2313 40.2316C56.9609 39.8659 57.507 39.4106 57.871 38.7732C58.2351 38.1359 58.5081 37.4074 58.5081 36.679V33.7652C58.5081 33.401 58.3261 33.0353 58.1441 32.8532C57.871 32.58 57.598 32.4889 57.234 32.4889H35.7371L38.651 43.5096C38.8345 44.0559 39.1076 44.6023 39.4716 45.0575C39.8357 45.5128 40.2907 45.877 40.8383 46.1502C41.3844 46.4234 41.9305 46.5144 42.569 46.5144C43.1151 46.4234 43.7522 46.2413 44.2087 45.9681Z" fill="white"/>
<path d="M58.8736 52.0702C60.2821 52.0702 61.4234 50.9283 61.4234 49.5206C61.4234 48.1115 60.2821 46.9696 58.8736 46.9696C57.4651 46.9696 56.3223 48.1115 56.3223 49.5206C56.3223 50.9283 57.4651 52.0702 58.8736 52.0702Z" fill="white"/>
<path d="M48.6714 56.3512C50.0799 56.3512 51.2213 55.2093 51.2213 53.8002C51.2213 52.3925 50.0799 51.2506 48.6714 51.2506C47.263 51.2506 46.1216 52.3925 46.1216 53.8002C46.1216 55.2093 47.263 56.3512 48.6714 56.3512Z" fill="white"/>
</svg>
