<svg width="144" height="40" viewBox="0 0 144 40" fill="none" xmlns="http://www.w3.org/2000/svg">
<path d="M11.1856 39.9999C8.1001 39.9999 5.46522 38.9073 3.27943 36.7219C1.09215 34.5351 0 31.899 0 28.8136V28.8673C0 28.3732 0.237229 28.1254 0.713179 28.1254H3.25257C3.72852 28.1254 3.96575 28.3732 3.96575 28.8673V28.8136C3.96575 30.8063 4.67147 32.508 6.08142 33.9186C7.49286 35.3292 9.19374 36.0338 11.1856 36.0338C13.161 36.0338 14.8529 35.3292 16.2629 33.9186C17.6743 32.508 18.3785 30.8063 18.3785 28.8136V27.491C18.3785 26.0983 17.8847 24.9086 16.8985 23.9205C15.9108 22.9338 14.7201 22.4397 13.3281 22.4397H9.01769C6.532 22.4397 4.40739 21.559 2.64384 19.7961C0.880284 18.0317 0 15.9076 0 13.4208V12.0997C0 8.99638 1.09215 6.35131 3.27943 4.16449C5.46522 1.97916 8.1001 0.88501 11.1856 0.88501C14.2531 0.88501 16.8806 1.97916 19.0664 4.16449C21.2521 6.36922 22.3458 9.0143 22.3458 12.0997V12.1251C22.3458 12.6013 22.1071 12.8386 21.6311 12.8386H19.0932C18.6173 12.8386 18.3785 12.6013 18.3785 12.1251V12.0997C18.3785 10.107 17.6743 8.39632 16.2629 6.96779C14.8529 5.5751 13.161 4.8795 11.1856 4.8795C9.19374 4.8795 7.49286 5.5751 6.08142 6.96779C4.67147 8.3784 3.96575 10.089 3.96575 12.0997V13.4208C3.96575 14.8135 4.45961 16.0046 5.44732 16.9913C6.43502 17.9795 7.62415 18.4721 9.01769 18.4721H13.3281C15.8317 18.4721 17.9563 19.3543 19.7005 21.1172C21.464 22.8801 22.3458 25.0057 22.3458 27.491V28.8136C22.3458 31.899 21.2521 34.5351 19.0664 36.7219C16.8806 38.9073 14.2531 39.9999 11.1856 39.9999Z" fill="black"/>
<path d="M52.6787 13.4015C55.2016 13.4015 57.3516 14.2971 59.1271 16.0899C60.919 17.8826 61.8142 20.0321 61.8142 22.5384V39.297C61.8142 39.7657 61.58 40.0001 61.11 40.0001H58.6049C58.1349 40.0001 57.8992 39.7657 57.8992 39.297V22.5384C57.8992 21.1114 57.3859 19.8843 56.3594 18.8574C55.3508 17.8483 54.1229 17.3423 52.6787 17.3423C50.4168 17.3423 48.9039 17.7169 48.137 18.4648C47.7028 18.8827 47.485 19.5351 47.485 20.4232V39.297C47.485 39.7657 47.2418 40.0001 46.7539 40.0001H44.2742C43.7878 40.0001 43.5431 39.7657 43.5431 39.297V20.4232C43.5431 19.5351 43.3268 18.8827 42.8911 18.4648C42.1078 17.7169 40.5949 17.3423 38.3494 17.3423C36.9052 17.3423 35.6787 17.8483 34.6686 18.8574C33.6421 19.8843 33.1289 21.1114 33.1289 22.5384V39.297C33.1289 39.7657 32.8857 40.0001 32.3978 40.0001H29.9181C29.4481 40.0001 29.2139 39.7657 29.2139 39.297V22.5384C29.2139 20.0321 30.1106 17.8826 31.9025 16.0899C33.678 14.2971 35.8264 13.4015 38.3494 13.4015C41.5856 13.4015 43.9788 14.1061 45.5275 15.5152C47.0583 14.1061 49.4425 13.4015 52.6787 13.4015ZM79.9033 36.0862C81.9399 36.0862 83.6796 35.3637 85.1238 33.9188C86.5681 32.4738 87.2902 30.7348 87.2902 28.6988V24.7043C87.2902 22.6682 86.5681 20.9278 85.1238 19.4828C83.6796 18.0573 81.9399 17.3423 79.9033 17.3423C77.8682 17.3423 76.136 18.0573 74.7096 19.4828C73.2654 20.9278 72.5432 22.6682 72.5432 24.7043V28.6988C72.5432 30.7348 73.2654 32.4738 74.7096 33.9188C76.136 35.3637 77.8682 36.0862 79.9033 36.0862ZM91.1784 39.297C91.1784 39.7657 90.9531 40.0001 90.501 40.0001H87.9691C87.517 40.0001 87.2902 39.7657 87.2902 39.297V37.2341C85.1492 39.0791 82.6874 40.0001 79.9033 40.0001C76.788 40.0001 74.1262 38.8955 71.9166 36.6863C69.7233 34.4756 68.6267 31.8141 68.6267 28.6988V24.7043C68.6267 21.589 69.7233 18.9275 71.9166 16.7168C74.1262 14.5061 76.788 13.4015 79.9033 13.4015C82.9306 13.4015 85.5326 14.4539 87.708 16.5601C89.8818 18.6484 91.0396 21.189 91.1784 24.1819V39.297ZM101.907 39.297C101.907 39.7657 101.672 40.0001 101.202 40.0001H98.6966C98.2087 40.0001 97.9655 39.7657 97.9655 39.297V22.7981C97.9655 20.2232 98.8876 18.0125 100.732 16.169C102.577 14.324 104.787 13.4015 107.362 13.4015C109.347 13.4015 111.164 13.9926 112.817 15.1763C113.757 15.8555 114.522 16.6467 115.115 17.5512L115.819 18.5693C115.941 18.726 116.001 18.8753 116.001 19.0141C116.001 19.2231 115.88 19.4141 115.637 19.5873L113.548 20.971C113.444 21.0412 113.323 21.0755 113.183 21.0755H113.053C112.844 21.0412 112.687 20.9367 112.583 20.7621L111.904 19.744C111.486 19.1529 111.025 18.6917 110.521 18.3603C109.615 17.6826 108.563 17.3423 107.362 17.3423C105.848 17.3423 104.56 17.8826 103.499 18.9619C102.439 20.0232 101.907 21.3024 101.907 22.7981V39.297ZM143.096 34.389C143.321 34.5457 143.434 34.7368 143.434 34.9637C143.434 35.1025 143.391 35.2503 143.303 35.407L142.599 36.425C142.042 37.2251 141.372 37.9118 140.589 38.4865C139.215 39.497 137.639 40.0001 135.865 40.0001C133.62 40.0001 131.706 39.2089 130.123 37.6252C128.54 36.025 127.747 34.1024 127.747 31.8574V17.3423H122.761C122.275 17.3423 122.032 17.1079 122.032 16.6377V14.1315C122.032 13.6627 122.275 13.4269 122.761 13.4269H127.747V2.07187C127.747 1.60166 127.982 1.36731 128.453 1.36731H130.931C131.419 1.36731 131.662 1.60166 131.662 2.07187V13.4269H141.634C142.104 13.4269 142.338 13.6627 142.338 14.1315V16.6377C142.338 17.1079 142.104 17.3423 141.634 17.3423H131.662V31.8574C131.662 33.0232 132.071 34.0233 132.889 34.8592C133.707 35.6757 134.699 36.0862 135.865 36.0862C136.753 36.0862 137.571 35.816 138.318 35.2757C138.702 35.0159 139.049 34.6666 139.363 34.2323L140.042 33.2142C140.216 32.9873 140.407 32.8754 140.615 32.8754C140.738 32.8754 140.877 32.9187 141.034 33.0053L143.096 34.389Z" fill="#ED1C24"/>
</svg>
