<svg width="144" height="126" viewBox="0 0 144 126" fill="none" xmlns="http://www.w3.org/2000/svg">
<path d="M49.7185 79.1434H100.181C106.192 79.1434 111.112 74.2264 111.112 68.2153V10.9296C111.112 4.91847 106.192 0 100.181 0H49.7185C43.7057 0 38.7881 4.91847 38.7881 10.9296V68.2153C38.7881 74.2264 43.7057 79.1434 49.7185 79.1434Z" fill="#ED1C24"/>
<path d="M70.2218 46.7754C70.4799 46.953 70.6082 47.1709 70.6082 47.4292C70.6082 47.5874 70.559 47.7561 70.459 47.9337L69.6563 49.0921C69.0222 50.0041 68.2598 50.7863 67.3691 51.4401C65.8039 52.5895 64.0105 53.1627 61.9904 53.1627C59.4346 53.1627 57.2547 52.2626 55.4524 50.4594C53.6486 48.6368 52.7474 46.4485 52.7474 43.893V27.3717H47.0718C46.5168 27.3717 46.2393 27.1045 46.2393 26.5701V23.7175C46.2393 23.1831 46.5168 22.9159 47.0718 22.9159H52.7474V9.99058C52.7474 9.45469 53.0145 9.1875 53.5501 9.1875H56.373C56.928 9.1875 57.2055 9.45469 57.2055 9.99058V22.9159H68.5567C69.0923 22.9159 69.3594 23.1831 69.3594 23.7175V26.5701C69.3594 27.1045 69.0923 27.3717 68.5567 27.3717H57.2055V43.893C57.2055 45.22 57.671 46.3589 58.602 47.3098C59.533 48.2412 60.6625 48.7069 61.9904 48.7069C63.0005 48.7069 63.9315 48.3994 64.7834 47.7859C65.2191 47.4874 65.6159 47.0918 65.9725 46.5962L66.7454 45.4379C66.9423 45.1797 67.1617 45.0513 67.3989 45.0513C67.5376 45.0513 67.6958 45.1006 67.8748 45.2006L70.2218 46.7754Z" fill="white"/>
<path d="M79.2022 35.0398H91.4083C91.5904 35.0398 91.6814 35.1309 91.6814 35.313V35.6772C91.6814 35.8593 91.5904 35.9503 91.4083 35.9503H79.2022C79.0202 35.9503 78.9292 35.8593 78.9292 35.6772V35.313C78.9292 35.2219 79.1112 35.0398 79.2022 35.0398Z" fill="white"/>
<path d="M82.6639 37.5895H93.1392C93.3213 37.5895 93.4123 37.6805 93.4123 37.8626V38.2269C93.4123 38.409 93.3213 38.5 93.1392 38.5H82.5728C82.3908 38.5 82.2998 38.409 82.2998 38.2269V37.8626C82.3908 37.7716 82.4818 37.5895 82.6639 37.5895Z" fill="white"/>
<path d="M80.1124 40.1404H88.9481C89.1301 40.1404 89.2211 40.2314 89.2211 40.4135V40.7778C89.2211 40.9599 89.1301 41.0509 88.9481 41.0509H80.1124C79.9304 41.0509 79.8394 40.9599 79.8394 40.7778V40.4135C79.8394 40.3225 79.9304 40.1404 80.1124 40.1404Z" fill="white"/>
<path fill-rule="evenodd" clip-rule="evenodd" d="M68.636 28.5736L69.6386 32.3979L72.8255 44.4202C73.0986 45.5128 73.6461 46.6055 74.4652 47.5175C75.1948 48.4281 76.196 49.1565 77.1986 49.6118C78.2907 50.0671 79.3844 50.3402 80.569 50.3402C81.7522 50.3402 82.9368 50.0671 83.938 49.6118L95.9621 43.8738C97.3287 43.2364 98.5134 42.2348 99.3325 40.9601C100.153 39.6838 100.608 38.2269 100.608 36.679V33.7652C100.608 32.3068 100.061 31.0321 99.0595 30.0304C98.0568 29.0288 96.6917 28.4825 95.325 28.4825H72.8255L72.4615 27.0256C72.1884 25.9315 71.4603 24.9299 70.5487 24.2014C69.6386 23.473 68.4539 23.1088 67.3603 23.1088H62.7157C62.1681 23.1088 61.7131 23.2909 61.258 23.6551C60.8939 24.0193 60.7119 24.5656 60.7119 25.112C60.7119 25.6583 60.8939 26.1136 61.258 26.5704C61.622 26.9346 62.1681 27.1167 62.7157 27.1167H67.3603C67.6333 27.1167 67.9079 27.2077 68.1809 27.3899C68.4539 27.572 68.5449 27.8451 68.636 28.1183V28.5736ZM82.2087 45.9681L94.2313 40.2316C94.9609 39.8659 95.507 39.4106 95.871 38.7732C96.2351 38.1359 96.5081 37.4074 96.5081 36.679V33.7652C96.5081 33.401 96.3261 33.0353 96.1441 32.8532C95.871 32.58 95.598 32.4889 95.234 32.4889H73.7371L76.651 43.5096C76.8345 44.0559 77.1076 44.6023 77.4716 45.0575C77.8357 45.5128 78.2907 45.877 78.8383 46.1502C79.3844 46.4234 79.9305 46.5144 80.569 46.5144C81.1151 46.4234 81.7522 46.2413 82.2087 45.9681Z" fill="white"/>
<path d="M96.8736 52.0702C98.2821 52.0702 99.4234 50.9283 99.4234 49.5206C99.4234 48.1115 98.2821 46.9696 96.8736 46.9696C95.4651 46.9696 94.3223 48.1115 94.3223 49.5206C94.3223 50.9283 95.4651 52.0702 96.8736 52.0702Z" fill="white"/>
<path d="M86.6714 56.3512C88.0799 56.3512 89.2213 55.2093 89.2213 53.8002C89.2213 52.3925 88.0799 51.2506 86.6714 51.2506C85.263 51.2506 84.1216 52.3925 84.1216 53.8002C84.1216 55.2093 85.263 56.3512 86.6714 56.3512Z" fill="white"/>
<path d="M11.1856 126C8.1001 126 5.46522 124.907 3.27943 122.722C1.09215 120.535 0 117.899 0 114.814V114.867C0 114.373 0.237229 114.125 0.713179 114.125H3.25257C3.72852 114.125 3.96575 114.373 3.96575 114.867V114.814C3.96575 116.806 4.67147 118.508 6.08142 119.919C7.49286 121.329 9.19374 122.034 11.1856 122.034C13.161 122.034 14.8529 121.329 16.2629 119.919C17.6743 118.508 18.3785 116.806 18.3785 114.814V113.491C18.3785 112.098 17.8847 110.909 16.8985 109.92C15.9108 108.934 14.7201 108.44 13.3281 108.44H9.01769C6.532 108.44 4.40739 107.559 2.64384 105.796C0.880284 104.032 0 101.908 0 99.4208V98.0997C0 94.9964 1.09215 92.3513 3.27943 90.1645C5.46522 87.9792 8.1001 86.885 11.1856 86.885C14.2531 86.885 16.8806 87.9792 19.0664 90.1645C21.2521 92.3692 22.3458 95.0143 22.3458 98.0997V98.1251C22.3458 98.6013 22.1071 98.8386 21.6311 98.8386H19.0932C18.6173 98.8386 18.3785 98.6013 18.3785 98.1251V98.0997C18.3785 96.107 17.6743 94.3963 16.2629 92.9678C14.8529 91.5751 13.161 90.8795 11.1856 90.8795C9.19374 90.8795 7.49286 91.5751 6.08142 92.9678C4.67147 94.3784 3.96575 96.089 3.96575 98.0997V99.4208C3.96575 100.813 4.45961 102.005 5.44732 102.991C6.43502 103.979 7.62415 104.472 9.01769 104.472H13.3281C15.8317 104.472 17.9563 105.354 19.7005 107.117C21.464 108.88 22.3458 111.006 22.3458 113.491V114.814C22.3458 117.899 21.2521 120.535 19.0664 122.722C16.8806 124.907 14.2531 126 11.1856 126Z" fill="black"/>
<path d="M52.6787 99.4015C55.2016 99.4015 57.3516 100.297 59.1271 102.09C60.919 103.883 61.8142 106.032 61.8142 108.538V125.297C61.8142 125.766 61.58 126 61.11 126H58.6049C58.1349 126 57.8992 125.766 57.8992 125.297V108.538C57.8992 107.111 57.3859 105.884 56.3594 104.857C55.3508 103.848 54.1229 103.342 52.6787 103.342C50.4168 103.342 48.9039 103.717 48.137 104.465C47.7028 104.883 47.485 105.535 47.485 106.423V125.297C47.485 125.766 47.2418 126 46.7539 126H44.2742C43.7878 126 43.5431 125.766 43.5431 125.297V106.423C43.5431 105.535 43.3268 104.883 42.8911 104.465C42.1078 103.717 40.5949 103.342 38.3494 103.342C36.9052 103.342 35.6787 103.848 34.6686 104.857C33.6421 105.884 33.1289 107.111 33.1289 108.538V125.297C33.1289 125.766 32.8857 126 32.3978 126H29.9181C29.4481 126 29.2139 125.766 29.2139 125.297V108.538C29.2139 106.032 30.1106 103.883 31.9025 102.09C33.678 100.297 35.8264 99.4015 38.3494 99.4015C41.5856 99.4015 43.9788 100.106 45.5275 101.515C47.0583 100.106 49.4425 99.4015 52.6787 99.4015ZM79.9033 122.086C81.9399 122.086 83.6796 121.364 85.1238 119.919C86.5681 118.474 87.2902 116.735 87.2902 114.699V110.704C87.2902 108.668 86.5681 106.928 85.1238 105.483C83.6796 104.057 81.9399 103.342 79.9033 103.342C77.8682 103.342 76.136 104.057 74.7096 105.483C73.2654 106.928 72.5432 108.668 72.5432 110.704V114.699C72.5432 116.735 73.2654 118.474 74.7096 119.919C76.136 121.364 77.8682 122.086 79.9033 122.086ZM91.1784 125.297C91.1784 125.766 90.9531 126 90.501 126H87.9691C87.517 126 87.2902 125.766 87.2902 125.297V123.234C85.1492 125.079 82.6874 126 79.9033 126C76.788 126 74.1262 124.895 71.9166 122.686C69.7233 120.476 68.6267 117.814 68.6267 114.699V110.704C68.6267 107.589 69.7233 104.928 71.9166 102.717C74.1262 100.506 76.788 99.4015 79.9033 99.4015C82.9306 99.4015 85.5326 100.454 87.708 102.56C89.8818 104.648 91.0396 107.189 91.1784 110.182V125.297ZM101.907 125.297C101.907 125.766 101.672 126 101.202 126H98.6966C98.2087 126 97.9655 125.766 97.9655 125.297V108.798C97.9655 106.223 98.8876 104.012 100.732 102.169C102.577 100.324 104.787 99.4015 107.362 99.4015C109.347 99.4015 111.164 99.9926 112.817 101.176C113.757 101.856 114.522 102.647 115.115 103.551L115.819 104.569C115.941 104.726 116.001 104.875 116.001 105.014C116.001 105.223 115.88 105.414 115.637 105.587L113.548 106.971C113.444 107.041 113.323 107.076 113.183 107.076H113.053C112.844 107.041 112.687 106.937 112.583 106.762L111.904 105.744C111.486 105.153 111.025 104.692 110.521 104.36C109.615 103.683 108.563 103.342 107.362 103.342C105.848 103.342 104.56 103.883 103.499 104.962C102.439 106.023 101.907 107.302 101.907 108.798V125.297ZM143.096 120.389C143.321 120.546 143.434 120.737 143.434 120.964C143.434 121.103 143.391 121.25 143.303 121.407L142.599 122.425C142.042 123.225 141.372 123.912 140.589 124.486C139.215 125.497 137.639 126 135.865 126C133.62 126 131.706 125.209 130.123 123.625C128.54 122.025 127.747 120.102 127.747 117.857V103.342H122.761C122.275 103.342 122.032 103.108 122.032 102.638V100.131C122.032 99.6627 122.275 99.4269 122.761 99.4269H127.747V88.0719C127.747 87.6017 127.982 87.3673 128.453 87.3673H130.931C131.419 87.3673 131.662 87.6017 131.662 88.0719V99.4269H141.634C142.104 99.4269 142.338 99.6627 142.338 100.131V102.638C142.338 103.108 142.104 103.342 141.634 103.342H131.662V117.857C131.662 119.023 132.071 120.023 132.889 120.859C133.707 121.676 134.699 122.086 135.865 122.086C136.753 122.086 137.571 121.816 138.318 121.276C138.702 121.016 139.049 120.667 139.363 120.232L140.042 119.214C140.216 118.987 140.407 118.875 140.615 118.875C140.738 118.875 140.877 118.919 141.034 119.005L143.096 120.389Z" fill="#ED1C24"/>
</svg>
