<svg width="14" height="14" viewBox="0 0 14 14" fill="none" xmlns="http://www.w3.org/2000/svg">
<path d="M0 7C0 5.14348 0.737498 3.36301 2.05025 2.05025C3.36301 0.737498 5.14348 0 7 0C8.85652 0 10.637 0.737498 11.9497 2.05025C13.2625 3.36301 14 5.14348 14 7C14 8.85652 13.2625 10.637 11.9497 11.9497C10.637 13.2625 8.85652 14 7 14C5.14348 14 3.36301 13.2625 2.05025 11.9497C0.737498 10.637 0 8.85652 0 7ZM4.375 5.6875H6.125C6.125 5.57147 6.17109 5.46019 6.25314 5.37814C6.33519 5.29609 6.44647 5.25 6.5625 5.25H7.12775C7.20309 5.25003 7.27621 5.27552 7.33524 5.32232C7.39428 5.36913 7.43577 5.4345 7.453 5.50784C7.47022 5.58119 7.46216 5.6582 7.43012 5.72639C7.39808 5.79457 7.34395 5.84994 7.2765 5.8835L6.125 6.45925V7.875H7.875V7.54075L8.05963 7.448C8.47931 7.2379 8.81579 6.89231 9.0146 6.46717C9.21342 6.04203 9.26293 5.56223 9.15511 5.10545C9.04729 4.64867 8.78846 4.24165 8.42053 3.95028C8.05259 3.65891 7.59708 3.50026 7.12775 3.5H6.5625C5.98234 3.5 5.42594 3.73047 5.0157 4.1407C4.60547 4.55094 4.375 5.10734 4.375 5.6875ZM7 10.5C7.23206 10.5 7.45462 10.4078 7.61872 10.2437C7.78281 10.0796 7.875 9.85706 7.875 9.625C7.875 9.39294 7.78281 9.17038 7.61872 9.00628C7.45462 8.84219 7.23206 8.75 7 8.75C6.76794 8.75 6.54538 8.84219 6.38128 9.00628C6.21719 9.17038 6.125 9.39294 6.125 9.625C6.125 9.85706 6.21719 10.0796 6.38128 10.2437C6.54538 10.4078 6.76794 10.5 7 10.5Z" fill="#989797"/>
</svg>
