<svg width="16" height="17" viewBox="0 0 16 17" fill="none" xmlns="http://www.w3.org/2000/svg">
<path d="M13.0092 3.49043C11.6873 2.16855 9.54824 2.16855 8.22793 3.49043L6.71387 5.00449L7.51074 5.80137L9.0248 4.2873C9.86543 3.44668 11.2842 3.35762 12.2123 4.2873C13.142 5.21699 13.0529 6.63418 12.2123 7.4748L10.6982 8.98887L11.4967 9.78731L13.0107 8.27324C14.3295 6.95137 14.3295 4.8123 13.0092 3.49043ZM6.97637 12.7123C6.13574 13.5529 4.71699 13.642 3.78887 12.7123C2.85918 11.7826 2.94824 10.3654 3.78887 9.5248L5.30293 8.01074L4.50449 7.21231L2.99043 8.72637C1.66855 10.0482 1.66855 12.1873 2.99043 13.5076C4.3123 14.8279 6.45137 14.8295 7.77168 13.5076L9.28574 11.9936L8.48887 11.1967L6.97637 12.7123ZM4.06699 3.77168C4.0435 3.74842 4.01177 3.73537 3.97871 3.73537C3.94565 3.73537 3.91392 3.74842 3.89043 3.77168L3.27168 4.39043C3.24842 4.41392 3.23537 4.44565 3.23537 4.47871C3.23537 4.51177 3.24842 4.5435 3.27168 4.56699L11.9342 13.2295C11.9826 13.2779 12.0623 13.2779 12.1107 13.2295L12.7295 12.6107C12.7779 12.5623 12.7779 12.4826 12.7295 12.4342L4.06699 3.77168Z" fill="black"/>
</svg>
