<svg width="21" height="22" viewBox="0 0 21 22" fill="none" xmlns="http://www.w3.org/2000/svg">
<path d="M0.892753 0C0.65598 0 0.428905 0.0965773 0.261482 0.268486C0.0940578 0.440394 0 0.673552 0 0.916667C0 1.15978 0.0940578 1.39294 0.261482 1.56485C0.428905 1.73676 0.65598 1.83333 0.892753 1.83333H1.33199C1.52584 1.83368 1.71432 1.8988 1.86894 2.01886C2.02356 2.13893 2.13592 2.3074 2.18903 2.49883L5.02084 12.6738C5.18101 13.248 5.5189 13.7531 5.98341 14.1126C6.44793 14.4722 7.01383 14.6667 7.59555 14.6667H15.7535C16.2889 14.6668 16.812 14.5021 17.2554 14.1939C17.6987 13.8858 18.0419 13.4482 18.2407 12.9378L20.8726 6.18017C20.9808 5.9021 21.021 5.60105 20.9897 5.30334C20.9584 5.00563 20.8566 4.72031 20.6931 4.47234C20.5296 4.22437 20.3095 4.02128 20.052 3.88083C19.7944 3.74039 19.5072 3.66686 19.2156 3.66667H4.37092L3.9049 1.99467C3.74515 1.42042 3.40767 0.915175 2.94348 0.55531C2.47929 0.195446 1.91363 0.000521342 1.33199 0H0.892753ZM6.7385 12.1678L4.88158 5.5H19.2156L16.582 12.2577C16.5157 12.4276 16.4013 12.5732 16.2537 12.6758C16.106 12.7784 15.9318 12.8333 15.7535 12.8333H7.59555C7.40169 12.833 7.21321 12.7679 7.05859 12.6478C6.90398 12.5277 6.79162 12.3593 6.7385 12.1678ZM8.03478 22C8.38649 22 8.73476 21.9289 9.05971 21.7907C9.38465 21.6525 9.6799 21.4499 9.9286 21.1945C10.1773 20.9392 10.3746 20.636 10.5092 20.3024C10.6438 19.9687 10.713 19.6111 10.713 19.25C10.713 18.8889 10.6438 18.5313 10.5092 18.1976C10.3746 17.864 10.1773 17.5608 9.9286 17.3055C9.6799 17.0501 9.38465 16.8475 9.05971 16.7093C8.73476 16.5711 8.38649 16.5 8.03478 16.5C7.32446 16.5 6.64323 16.7897 6.14096 17.3055C5.63869 17.8212 5.35652 18.5207 5.35652 19.25C5.35652 19.9793 5.63869 20.6788 6.14096 21.1945C6.64323 21.7103 7.32446 22 8.03478 22ZM8.03478 20.1667C7.79801 20.1667 7.57093 20.0701 7.40351 19.8982C7.23608 19.7263 7.14203 19.4931 7.14203 19.25C7.14203 19.0069 7.23608 18.7737 7.40351 18.6018C7.57093 18.4299 7.79801 18.3333 8.03478 18.3333C8.27155 18.3333 8.49863 18.4299 8.66605 18.6018C8.83348 18.7737 8.92753 19.0069 8.92753 19.25C8.92753 19.4931 8.83348 19.7263 8.66605 19.8982C8.49863 20.0701 8.27155 20.1667 8.03478 20.1667ZM15.1768 22C15.5285 22 15.8768 21.9289 16.2017 21.7907C16.5267 21.6525 16.8219 21.4499 17.0706 21.1945C17.3193 20.9392 17.5166 20.636 17.6512 20.3024C17.7858 19.9687 17.8551 19.6111 17.8551 19.25C17.8551 18.8889 17.7858 18.5313 17.6512 18.1976C17.5166 17.864 17.3193 17.5608 17.0706 17.3055C16.8219 17.0501 16.5267 16.8475 16.2017 16.7093C15.8768 16.5711 15.5285 16.5 15.1768 16.5C14.4665 16.5 13.7853 16.7897 13.283 17.3055C12.7807 17.8212 12.4985 18.5207 12.4985 19.25C12.4985 19.9793 12.7807 20.6788 13.283 21.1945C13.7853 21.7103 14.4665 22 15.1768 22ZM15.1768 20.1667C14.94 20.1667 14.713 20.0701 14.5455 19.8982C14.3781 19.7263 14.2841 19.4931 14.2841 19.25C14.2841 19.0069 14.3781 18.7737 14.5455 18.6018C14.713 18.4299 14.94 18.3333 15.1768 18.3333C15.4136 18.3333 15.6407 18.4299 15.8081 18.6018C15.9755 18.7737 16.0696 19.0069 16.0696 19.25C16.0696 19.4931 15.9755 19.7263 15.8081 19.8982C15.6407 20.0701 15.4136 20.1667 15.1768 20.1667Z" fill="#484C52"/>
</svg>
