<svg width="19" height="19" viewBox="0 0 19 19" fill="none" xmlns="http://www.w3.org/2000/svg">
<path d="M2.5 8.625V12.125C2.5 15.0125 2.5 16.4563 3.39688 17.3531C4.29375 18.25 5.7375 18.25 8.625 18.25H10.375C13.2625 18.25 14.7063 18.25 15.6031 17.3531C16.5 16.4563 16.5 15.0125 16.5 12.125V8.625M9.5 4.12487C9.5 3.2298 9.14443 2.37139 8.51152 1.73848C7.87861 1.10557 7.0202 0.75 6.12512 0.75H5.81275C4.95 0.75 4.25 1.44913 4.25 2.31275C4.25 3.05861 4.54629 3.77391 5.07369 4.30131C5.60109 4.82871 6.31639 5.125 7.06225 5.125H9.5M9.5 4.12487V5.125M9.5 4.12487C9.5 3.2298 9.85557 2.37139 10.4885 1.73848C11.1214 1.10557 11.9798 0.75 12.8749 0.75H13.1873C14.05 0.75 14.75 1.44913 14.75 2.31275C14.75 2.68206 14.6773 3.04775 14.5359 3.38895C14.3946 3.73015 14.1875 4.04017 13.9263 4.30131C13.6652 4.56245 13.3552 4.7696 13.014 4.91093C12.6728 5.05226 12.3071 5.125 11.9378 5.125H9.5M9.5 8.625V18.25M1.625 6.875C1.625 6.2205 1.625 5.89325 1.80087 5.65C1.92562 5.48287 2.09096 5.35035 2.28125 5.265C2.58575 5.125 2.99437 5.125 3.8125 5.125H15.1875C16.0056 5.125 16.4143 5.125 16.7188 5.265C16.9183 5.35775 17.0836 5.49075 17.1991 5.65C17.375 5.89325 17.375 6.2205 17.375 6.875C17.375 7.5295 17.375 7.85587 17.1991 8.1C17.0744 8.26713 16.909 8.39965 16.7188 8.485C16.4143 8.625 16.0056 8.625 15.1875 8.625H3.8125C2.99437 8.625 2.58575 8.625 2.28125 8.485C2.09096 8.39965 1.92562 8.26713 1.80087 8.1C1.625 7.85587 1.625 7.5295 1.625 6.875Z" stroke="white" stroke-width="1.5" stroke-linecap="round" stroke-linejoin="round"/>
</svg>
