<svg width="52" height="51" viewBox="0 0 52 51" fill="none" xmlns="http://www.w3.org/2000/svg">
<path d="M4.24023 30.8061V33.0717H6.51845V30.8061V28.5444H4.24023V30.8061Z" fill="white"/>
<path d="M6.51845 17.2153H4.24023V19.481H6.51845V17.2153Z" fill="white"/>
<path d="M20.5917 42.1538H18.3135V44.4194H20.5917V42.1538Z" fill="white"/>
<path d="M6.51845 21.7471V24.0127H4.24023V26.2784H6.51845V28.544H8.79666H11.0749V30.8056H13.3531V28.544H15.6273V26.2784V24.0127H13.3531V26.2784H11.0749H8.79666V24.0127V21.7471V19.4814H6.51845V21.7471Z" fill="white"/>
<path d="M11.0746 17.2153H8.79639V19.481H11.0746H13.3528V17.2153H11.0746Z" fill="white"/>
<path d="M21.3203 35.4243H22.5455V33.1587H21.3203H20.0991V35.4243H21.3203Z" fill="white"/>
<path d="M15.6312 19.4814H13.353V21.7471H15.6312V19.4814Z" fill="white"/>
<path d="M31.5712 28.5444H29.293V30.8101H31.5712V28.5444Z" fill="white"/>
<path d="M33.849 3.62598H31.5708V5.89161H33.849V3.62598Z" fill="white"/>
<path d="M20.1834 21.7475V19.4819H22.4616V17.2162H20.1834V14.9546H17.9052V17.2162H15.627V19.4819H17.9052V21.7475V24.0131V26.2788V28.5444H20.1834V26.2788V24.0131H22.4616V21.7475H20.1834Z" fill="white"/>
<path d="M31.5712 44.3959H33.8494V42.1343H31.5712H29.293V44.3959H31.5712Z" fill="white"/>
<path d="M29.2968 3.62598H27.0186V5.89161H29.2968V3.62598Z" fill="white"/>
<path d="M28.7242 21.7466V19.481H26.446V17.2153H24.1718V19.481V21.7466H21.8936V24.0122H24.1718H26.446V21.7466H28.7242Z" fill="white"/>
<path d="M41.5805 17.2153H39.3022V19.481H41.5805V17.2153Z" fill="white"/>
<path d="M17.9735 28.5444H15.6953V30.8101H17.9735V28.5444Z" fill="white"/>
<path d="M27.0183 14.9541V12.6885H29.2925V10.4229H31.5708H33.849V8.15724H31.5708V5.8916H29.2925V8.15724H27.0183V10.4229H24.7401V12.6885H22.4619V14.9541H24.7401H27.0183Z" fill="white"/>
<path d="M27.0183 30.8061V28.5444H29.2925V26.2788H27.0183H24.7401V28.5444H22.4619V30.8061H24.7401H27.0183Z" fill="white"/>
<path d="M33.8489 39.8642V37.6026H31.5707H29.2924V35.3369H27.0182V37.6026H24.74V39.8642H22.4618H20.1836V42.1298H22.4618H24.74H27.0182V39.8642H29.2924V42.1298H31.5707V39.8642H33.8489Z" fill="white"/>
<path d="M24.7409 5.89161V3.62598H22.4627H20.1845V5.89161H17.9062V8.15725H20.1845H22.4627V5.89161H24.7409Z" fill="white"/>
<path d="M24.7401 8.15723H22.4619V10.4229H24.7401V8.15723Z" fill="white"/>
<path d="M30.434 17.2158H28.1558V19.4814V21.747V24.0127H30.434H32.7122V21.747H30.434V19.4814H32.7122V17.2158H34.9864V14.9541H32.7122V12.6885H30.434V14.9541V17.2158Z" fill="white"/>
<path d="M22.4618 10.4233H20.1836V12.689H22.4618V10.4233Z" fill="white"/>
<path d="M29.293 33.0708V35.3364H31.5712H33.8494V33.0708H36.1276H38.4058V30.8052H36.1276H33.8494H31.5712V33.0708H29.293Z" fill="white"/>
<path d="M41.5805 24.0132H39.3022V26.2788H41.5805V24.0132Z" fill="white"/>
<path d="M33.849 26.2788H31.5708V28.5444H33.849V26.2788Z" fill="white"/>
<path d="M39.5428 19.4814H37.2645H34.9863V21.7471H37.2645V24.0127H39.5428V21.7471V19.4814Z" fill="white"/>
<path d="M38.4052 26.2788H36.127V28.5444H38.4052V26.2788Z" fill="white"/>
<path d="M13.3528 39.9075H20.1875V30.8052H11.0306V33.0708H8.79639V35.3364H11.0306V37.6021H8.79639V39.8677H11.0306V39.9075H11.0746V42.1294H8.79639V46.6567H11.0746V44.391H13.3528V39.9075ZM18.4338 32.5492V38.2113H12.7402V32.5492H18.4338Z" fill="white"/>
<path d="M42.9577 30.8061H45.2359V28.5444H42.9577H40.6835H38.4053V30.8061H40.6835H42.9577Z" fill="white"/>
<path d="M42.9575 21.7466H45.2357V19.481V17.2153H42.9575V19.481V21.7466Z" fill="white"/>
<path d="M24.8241 33.1587H22.5459V35.4243V37.69H24.8241V35.4243V33.1587Z" fill="white"/>
<path d="M47.5141 30.8052H45.2358V33.0708H47.5141V30.8052Z" fill="white"/>
<path d="M47.5141 26.2788V24.0132H45.2358V26.2788V28.5445H47.5141V26.2788Z" fill="white"/>
<path d="M6.51845 42.1343H4.24023V44.3959V46.6616H6.51845V44.3959V42.1343Z" fill="white"/>
<path d="M47.5139 14.9542V3.62598H36.1108V14.9542H47.5139ZM37.8365 13.2539V5.3262H45.8043V13.2539H37.8365Z" fill="white"/>
<path d="M44.0989 7.02637H39.5425V11.5576H44.0989V7.02637Z" fill="white"/>
<path d="M47.5139 35.3369H36.1108V46.6611H47.4979L47.5139 35.3369ZM37.8365 44.9649V37.0371H45.8043V44.9649H37.8365Z" fill="white"/>
<path d="M44.0989 38.7334H39.5425V43.2647H44.0989V38.7334Z" fill="white"/>
<path d="M4.2124 3.62598V14.9542H15.5995V3.62598H4.2124ZM13.8938 5.3262V13.2539H5.92206V5.3262H13.8938Z" fill="white"/>
<path d="M12.1844 7.02637H7.62793V11.5576H12.1844V7.02637Z" fill="white"/>
<path d="M0.964484 11.5221V3.47885C0.914981 2.73997 1.1433 2.00914 1.60511 1.42823C1.88387 1.12238 2.22746 0.881928 2.61107 0.724238C2.99467 0.566548 3.40871 0.495561 3.82326 0.516406H12.3275C12.3895 0.508661 12.4464 0.4787 12.4877 0.432145C12.529 0.38559 12.5518 0.325645 12.5518 0.263565C12.5518 0.201484 12.529 0.141537 12.4877 0.0949816C12.4464 0.0484266 12.3895 0.0184654 12.3275 0.0107205H3.91936C3.2078 -0.026545 2.50154 0.151125 1.89338 0.520388C1.45777 0.811306 1.10069 1.20419 0.853549 1.66451C0.606403 2.12483 0.476758 2.63848 0.476009 3.16031C0.451986 4.48226 0.476009 5.8082 0.476009 7.14209V11.5221C0.483797 11.5837 0.513928 11.6403 0.560741 11.6814C0.607555 11.7224 0.667829 11.7451 0.730254 11.7451C0.792679 11.7451 0.852959 11.7224 0.899773 11.6814C0.946586 11.6403 0.976717 11.5837 0.984505 11.5221H0.964484Z" fill="white"/>
<path d="M11.5837 50.4917H3.49581C2.75264 50.5425 2.01721 50.3152 1.43381 49.8546C1.12554 49.5777 0.882993 49.2362 0.723727 48.8547C0.564461 48.4732 0.492453 48.0613 0.512914 47.6487V39.1874C0.505126 39.1258 0.474996 39.0692 0.428182 39.0281C0.381369 38.987 0.321094 38.9644 0.258669 38.9644C0.196245 38.9644 0.135964 38.987 0.0891504 39.0281C0.0423369 39.0692 0.0122124 39.1258 0.00442454 39.1874V47.5491C-0.0310525 48.2566 0.147458 48.9584 0.516922 49.5639C0.808004 50.0006 1.20291 50.3592 1.66665 50.6079C2.1304 50.8565 2.64866 50.9876 3.1755 50.9894C4.5048 51.0133 5.83809 50.9894 7.1794 50.9894H11.5837C11.6456 50.9817 11.7026 50.9517 11.7439 50.9051C11.7852 50.8586 11.808 50.7986 11.808 50.7366C11.808 50.6745 11.7852 50.6145 11.7439 50.568C11.7026 50.5214 11.6456 50.4915 11.5837 50.4837V50.4917Z" fill="white"/>
<path d="M50.525 39.1078V47.151C50.5772 47.8902 50.3486 48.622 49.8844 49.2016C49.6056 49.5075 49.262 49.7479 48.8784 49.9056C48.4948 50.0633 48.0808 50.1343 47.6662 50.1135H39.154C39.092 50.1212 39.0351 50.1512 38.9938 50.1977C38.9525 50.2443 38.9297 50.3042 38.9297 50.3663C38.9297 50.4284 38.9525 50.4883 38.9938 50.5349C39.0351 50.5814 39.092 50.6114 39.154 50.6192H47.5621C48.2749 50.6557 48.9822 50.4781 49.5921 50.1095C50.0299 49.8199 50.3894 49.4276 50.6387 48.9672C50.8879 48.5068 51.0194 47.9925 51.0215 47.4696C51.0455 46.1476 51.0215 44.8217 51.0215 43.4878V39.1078C51.0137 39.0462 50.9836 38.9896 50.9368 38.9485C50.8899 38.9074 50.8297 38.8848 50.7673 38.8848C50.7048 38.8848 50.6445 38.9074 50.5977 38.9485C50.5509 38.9896 50.5208 39.0462 50.513 39.1078H50.525Z" fill="white"/>
<path d="M39.3141 0.516303H47.402C48.1453 0.464354 48.8811 0.691704 49.464 1.15339C49.771 1.43018 50.0125 1.77123 50.171 2.15198C50.3296 2.53273 50.4012 2.94371 50.3809 3.35532V11.8166C50.3887 11.8782 50.4188 11.9349 50.4656 11.9759C50.5124 12.017 50.5727 12.0396 50.6351 12.0396C50.6975 12.0396 50.7578 12.017 50.8046 11.9759C50.8514 11.9349 50.8816 11.8782 50.8894 11.8166V3.45486C50.9244 2.74673 50.7475 2.04418 50.3809 1.4361C50.0898 0.999382 49.6949 0.640811 49.2311 0.392161C48.7674 0.143512 48.2491 0.0124608 47.7223 0.0106181C46.393 -0.0132726 45.0597 0.0106181 43.7184 0.0106181H39.3141C39.2522 0.0183629 39.1952 0.0483241 39.1539 0.0948792C39.1126 0.141434 39.0898 0.201382 39.0898 0.263462C39.0898 0.325542 39.1126 0.385487 39.1539 0.432042C39.1952 0.478597 39.2522 0.508558 39.3141 0.516303Z" fill="white"/>
</svg>
