<svg width="23" height="20" viewBox="0 0 23 20" fill="none" xmlns="http://www.w3.org/2000/svg">
<path d="M21.4561 10.683C18.7478 16.093 12.1178 18.883 11.8361 19.003C11.6202 19.0811 11.3804 19.0811 11.1645 19.003C10.8936 18.883 4.25279 16.093 1.54445 10.683C-0.134714 7.31301 0.796952 3.68302 2.62779 2.12302C3.26908 1.61574 4.03155 1.25608 4.85262 1.07355C5.67369 0.891029 6.52995 0.890844 7.35112 1.07302C9.03137 1.42558 10.4988 2.36442 11.4461 3.69302C12.3952 2.36157 13.8673 1.42225 15.552 1.07302C16.3731 0.890844 17.2294 0.891029 18.0504 1.07355C18.8715 1.25608 19.634 1.61574 20.2753 2.12302C22.2036 3.68302 23.1461 7.31301 21.4561 10.683Z" fill="#ED1C24"/>
</svg>
