<svg width="28" height="27" viewBox="0 0 28 27" fill="none" xmlns="http://www.w3.org/2000/svg">
<path fill-rule="evenodd" clip-rule="evenodd" d="M5.52252 17.3975C6.57742 16.3426 8.00816 15.75 9.5 15.75H18.5C19.9918 15.75 21.4226 16.3426 22.4775 17.3975C23.5324 18.4524 24.125 19.8832 24.125 21.375V23.625C24.125 24.2463 23.6213 24.75 23 24.75C22.3787 24.75 21.875 24.2463 21.875 23.625V21.375C21.875 20.4799 21.5194 19.6215 20.8865 18.9885C20.2535 18.3556 19.3951 18 18.5 18H9.5C8.60489 18 7.74645 18.3556 7.11351 18.9885C6.48058 19.6215 6.125 20.4799 6.125 21.375V23.625C6.125 24.2463 5.62132 24.75 5 24.75C4.37868 24.75 3.875 24.2463 3.875 23.625V21.375C3.875 19.8832 4.46763 18.4524 5.52252 17.3975Z" fill="#484C52"/>
<path fill-rule="evenodd" clip-rule="evenodd" d="M14 4.5C12.136 4.5 10.625 6.01104 10.625 7.875C10.625 9.73896 12.136 11.25 14 11.25C15.864 11.25 17.375 9.73896 17.375 7.875C17.375 6.01104 15.864 4.5 14 4.5ZM8.375 7.875C8.375 4.7684 10.8934 2.25 14 2.25C17.1066 2.25 19.625 4.7684 19.625 7.875C19.625 10.9816 17.1066 13.5 14 13.5C10.8934 13.5 8.375 10.9816 8.375 7.875Z" fill="#484C52"/>
</svg>
