<svg width="17" height="17" viewBox="0 0 17 17" fill="none" xmlns="http://www.w3.org/2000/svg">
<path d="M8.49984 14.1665C10.0027 14.1665 11.4441 13.5695 12.5068 12.5068C13.5695 11.4441 14.1665 10.0027 14.1665 8.49984C14.1665 6.99694 13.5695 5.5556 12.5068 4.4929C11.4441 3.43019 10.0027 2.83317 8.49984 2.83317C6.99694 2.83317 5.5556 3.43019 4.4929 4.4929C3.43019 5.5556 2.83317 6.99694 2.83317 8.49984C2.83317 10.0027 3.43019 11.4441 4.4929 12.5068C5.5556 13.5695 6.99694 14.1665 8.49984 14.1665ZM8.49984 1.4165C9.43003 1.4165 10.3511 1.59972 11.2105 1.95569C12.0699 2.31166 12.8508 2.83342 13.5085 3.49116C14.1663 4.14891 14.688 4.92977 15.044 5.78916C15.4 6.64855 15.5832 7.56964 15.5832 8.49984C15.5832 10.3785 14.8369 12.1801 13.5085 13.5085C12.1801 14.8369 10.3785 15.5832 8.49984 15.5832C4.58275 15.5832 1.4165 12.3957 1.4165 8.49984C1.4165 6.62122 2.16278 4.81955 3.49116 3.49116C4.81955 2.16278 6.62122 1.4165 8.49984 1.4165ZM8.854 4.95817V8.67692L12.0415 10.5682L11.5103 11.4394L7.7915 9.20817V4.95817H8.854Z" fill="#484C52"/>
</svg>
