<svg width="15" height="14" viewBox="0 0 15 14" fill="none" xmlns="http://www.w3.org/2000/svg">
<path d="M13.7733 6.72016L7.77325 0.720163C7.53325 0.480163 7.19992 0.333496 6.83325 0.333496H2.16659C1.43325 0.333496 0.833252 0.933496 0.833252 1.66683V6.3335C0.833252 6.70016 0.979919 7.0335 1.22659 7.28016L7.22658 13.2802C7.46659 13.5202 7.79992 13.6668 8.16658 13.6668C8.53325 13.6668 8.86658 13.5202 9.10658 13.2735L13.7733 8.60683C14.0199 8.36683 14.1666 8.0335 14.1666 7.66683C14.1666 7.30016 14.0133 6.96016 13.7733 6.72016ZM8.16658 12.3402L2.16659 6.3335V1.66683H6.83325V1.66016L12.8333 7.66016L8.16658 12.3402Z" fill="#484C52"/>
</svg>
