<svg width="18" height="15" viewBox="0 0 18 15" fill="none" xmlns="http://www.w3.org/2000/svg">
<path fill-rule="evenodd" clip-rule="evenodd" d="M1.83713 1.64565C2.69438 0.704023 3.91838 0.186523 5.355 0.186523C6.6645 0.186523 8.06287 0.805273 9 2.01577C9.9315 0.806398 11.3242 0.186523 12.645 0.186523C14.0782 0.186523 15.3 0.701774 16.1595 1.64115C17.01 2.57265 17.4375 3.8484 17.4375 5.26365C17.4375 7.7004 16.1854 9.66127 14.6002 11.1856C13.0196 12.7066 11.034 13.8665 9.38813 14.7181C9.26757 14.7805 9.13376 14.8129 8.99804 14.8125C8.86231 14.8121 8.72869 14.7789 8.6085 14.7159C6.96263 13.8553 4.977 12.7044 3.39638 11.1913C1.81125 9.6714 0.5625 7.71727 0.5625 5.26477C0.5625 3.8529 0.98775 2.57715 1.83713 1.64565ZM3.08475 2.7819C2.57288 3.3444 2.25 4.18477 2.25 5.26477C2.25 7.09177 3.168 8.63527 4.56413 9.97177C5.85338 11.207 7.48912 12.2049 9.00225 13.0149C10.5041 12.2161 12.141 11.2104 13.4314 9.96952C14.8298 8.6229 15.75 7.07265 15.75 5.26477C15.75 4.1814 15.426 3.34102 14.913 2.77852C14.409 2.2284 13.6575 1.87515 12.645 1.87515C11.547 1.87515 10.2904 2.58165 9.80212 4.0689C9.74691 4.23812 9.63959 4.38554 9.49551 4.49007C9.35144 4.59461 9.178 4.6509 9 4.6509C8.822 4.6509 8.64856 4.59461 8.50449 4.49007C8.36041 4.38554 8.25309 4.23812 8.19788 4.0689C7.71075 2.5839 6.44063 1.87515 5.355 1.87515C4.33913 1.87515 3.58875 2.2284 3.08475 2.7819Z" fill="#989797"/>
</svg>
