<svg width="18" height="18" viewBox="0 0 18 18" fill="none" xmlns="http://www.w3.org/2000/svg">
<path d="M16.8415 8.65008L9.3415 1.15008C9.0415 0.850081 8.62484 0.666748 8.1665 0.666748H2.33317C1.4165 0.666748 0.666504 1.41675 0.666504 2.33341V8.16675C0.666504 8.62508 0.849837 9.04175 1.15817 9.35008L8.65817 16.8501C8.95817 17.1501 9.37484 17.3334 9.83317 17.3334C10.2915 17.3334 10.7082 17.1501 11.0082 16.8417L16.8415 11.0084C17.1498 10.7084 17.3332 10.2917 17.3332 9.83341C17.3332 9.37508 17.1415 8.95008 16.8415 8.65008ZM9.83317 15.6751L2.33317 8.16675V2.33341H8.1665V2.32508L15.6665 9.82508L9.83317 15.6751Z" fill="#ED1C24"/>
</svg>
