<svg width="17" height="13" viewBox="0 0 17 13" fill="none" xmlns="http://www.w3.org/2000/svg">
<path d="M1.24984 0.458252H7.2915C7.61197 0.458252 7.91932 0.585558 8.14592 0.812165C8.37253 1.03877 8.49984 1.34612 8.49984 1.66659C8.49984 1.98706 8.37253 2.2944 8.14592 2.52101C7.91932 2.74761 7.61197 2.87492 7.2915 2.87492H1.24984C0.929367 2.87492 0.622023 2.74761 0.395417 2.52101C0.16881 2.2944 0.0415039 1.98706 0.0415039 1.66659C0.0415039 1.34612 0.16881 1.03877 0.395417 0.812165C0.622023 0.585558 0.929367 0.458252 1.24984 0.458252ZM9.70817 10.1249H15.7498C16.0703 10.1249 16.3776 10.2522 16.6043 10.4788C16.8309 10.7054 16.9582 11.0128 16.9582 11.3333C16.9582 11.6537 16.8309 11.9611 16.6043 12.1877C16.3776 12.4143 16.0703 12.5416 15.7498 12.5416H9.70817C9.3877 12.5416 9.08036 12.4143 8.85375 12.1877C8.62714 11.9611 8.49984 11.6537 8.49984 11.3333C8.49984 11.0128 8.62714 10.7054 8.85375 10.4788C9.08036 10.2522 9.3877 10.1249 9.70817 10.1249ZM1.24984 5.29159H15.7498C16.0703 5.29159 16.3776 5.41889 16.6043 5.6455C16.8309 5.87211 16.9582 6.17945 16.9582 6.49992C16.9582 6.82039 16.8309 7.12773 16.6043 7.35434C16.3776 7.58095 16.0703 7.70825 15.7498 7.70825H1.24984C0.929367 7.70825 0.622023 7.58095 0.395417 7.35434C0.16881 7.12773 0.0415039 6.82039 0.0415039 6.49992C0.0415039 6.17945 0.16881 5.87211 0.395417 5.6455C0.622023 5.41889 0.929367 5.29159 1.24984 5.29159Z" fill="black"/>
</svg>
