<svg width="18" height="19" viewBox="0 0 18 19" fill="none" xmlns="http://www.w3.org/2000/svg">
<path d="M5.72727 16.8636H2.45455C2.23755 16.8636 2.02944 16.7774 1.876 16.624C1.72256 16.4706 1.63636 16.2625 1.63636 16.0455V12.7727C1.63636 12.5557 1.55016 12.3476 1.39672 12.1942C1.24329 12.0407 1.03518 11.9545 0.818182 11.9545C0.601187 11.9545 0.393079 12.0407 0.23964 12.1942C0.086201 12.3476 0 12.5557 0 12.7727V16.0455C0 16.6964 0.258603 17.3208 0.71892 17.7811C1.17924 18.2414 1.80356 18.5 2.45455 18.5H5.72727C5.94427 18.5 6.15238 18.4138 6.30581 18.2604C6.45925 18.1069 6.54545 17.8988 6.54545 17.6818C6.54545 17.4648 6.45925 17.2567 6.30581 17.1033C6.15238 16.9498 5.94427 16.8636 5.72727 16.8636ZM17.1818 11.9545C16.9648 11.9545 16.7567 12.0407 16.6033 12.1942C16.4498 12.3476 16.3636 12.5557 16.3636 12.7727V16.0455C16.3636 16.2625 16.2774 16.4706 16.124 16.624C15.9706 16.7774 15.7625 16.8636 15.5455 16.8636H12.2727C12.0557 16.8636 11.8476 16.9498 11.6942 17.1033C11.5407 17.2567 11.4545 17.4648 11.4545 17.6818C11.4545 17.8988 11.5407 18.1069 11.6942 18.2604C11.8476 18.4138 12.0557 18.5 12.2727 18.5H15.5455C16.1964 18.5 16.8208 18.2414 17.2811 17.7811C17.7414 17.3208 18 16.6964 18 16.0455V12.7727C18 12.5557 17.9138 12.3476 17.7604 12.1942C17.6069 12.0407 17.3988 11.9545 17.1818 11.9545ZM15.5455 0.5H12.2727C12.0557 0.5 11.8476 0.586201 11.6942 0.73964C11.5407 0.893079 11.4545 1.10119 11.4545 1.31818C11.4545 1.53518 11.5407 1.74329 11.6942 1.89672C11.8476 2.05016 12.0557 2.13636 12.2727 2.13636H15.5455C15.7625 2.13636 15.9706 2.22256 16.124 2.376C16.2774 2.52944 16.3636 2.73755 16.3636 2.95455V6.22727C16.3636 6.44427 16.4498 6.65238 16.6033 6.80581C16.7567 6.95925 16.9648 7.04545 17.1818 7.04545C17.3988 7.04545 17.6069 6.95925 17.7604 6.80581C17.9138 6.65238 18 6.44427 18 6.22727V2.95455C18 2.30356 17.7414 1.67924 17.2811 1.21892C16.8208 0.758603 16.1964 0.5 15.5455 0.5ZM0.818182 7.04545C1.03518 7.04545 1.24329 6.95925 1.39672 6.80581C1.55016 6.65238 1.63636 6.44427 1.63636 6.22727V2.95455C1.63636 2.73755 1.72256 2.52944 1.876 2.376C2.02944 2.22256 2.23755 2.13636 2.45455 2.13636H5.72727C5.94427 2.13636 6.15238 2.05016 6.30581 1.89672C6.45925 1.74329 6.54545 1.53518 6.54545 1.31818C6.54545 1.10119 6.45925 0.893079 6.30581 0.73964C6.15238 0.586201 5.94427 0.5 5.72727 0.5H2.45455C1.80356 0.5 1.17924 0.758603 0.71892 1.21892C0.258603 1.67924 0 2.30356 0 2.95455V6.22727C0 6.44427 0.086201 6.65238 0.23964 6.80581C0.393079 6.95925 0.601187 7.04545 0.818182 7.04545ZM7.36364 3.77273H4.09091C3.87391 3.77273 3.66581 3.85893 3.51237 4.01237C3.35893 4.16581 3.27273 4.37391 3.27273 4.59091V7.86364C3.27273 8.08063 3.35893 8.28874 3.51237 8.44218C3.66581 8.59562 3.87391 8.68182 4.09091 8.68182H7.36364C7.58063 8.68182 7.78874 8.59562 7.94218 8.44218C8.09562 8.28874 8.18182 8.08063 8.18182 7.86364V4.59091C8.18182 4.37391 8.09562 4.16581 7.94218 4.01237C7.78874 3.85893 7.58063 3.77273 7.36364 3.77273ZM6.54545 7.04545H4.90909V5.40909H6.54545V7.04545ZM10.6364 8.68182H13.9091C14.1261 8.68182 14.3342 8.59562 14.4876 8.44218C14.6411 8.28874 14.7273 8.08063 14.7273 7.86364V4.59091C14.7273 4.37391 14.6411 4.16581 14.4876 4.01237C14.3342 3.85893 14.1261 3.77273 13.9091 3.77273H10.6364C10.4194 3.77273 10.2113 3.85893 10.0578 4.01237C9.90438 4.16581 9.81818 4.37391 9.81818 4.59091V7.86364C9.81818 8.08063 9.90438 8.28874 10.0578 8.44218C10.2113 8.59562 10.4194 8.68182 10.6364 8.68182ZM11.4545 5.40909H13.0909V7.04545H11.4545V5.40909ZM7.36364 10.3182H4.09091C3.87391 10.3182 3.66581 10.4044 3.51237 10.5578C3.35893 10.7113 3.27273 10.9194 3.27273 11.1364V14.4091C3.27273 14.6261 3.35893 14.8342 3.51237 14.9876C3.66581 15.1411 3.87391 15.2273 4.09091 15.2273H7.36364C7.58063 15.2273 7.78874 15.1411 7.94218 14.9876C8.09562 14.8342 8.18182 14.6261 8.18182 14.4091V11.1364C8.18182 10.9194 8.09562 10.7113 7.94218 10.5578C7.78874 10.4044 7.58063 10.3182 7.36364 10.3182ZM6.54545 13.5909H4.90909V11.9545H6.54545V13.5909ZM10.6364 12.7727C10.8534 12.7727 11.0615 12.6865 11.2149 12.5331C11.3683 12.3796 11.4545 12.1715 11.4545 11.9545C11.6715 11.9545 11.8796 11.8683 12.0331 11.7149C12.1865 11.5615 12.2727 11.3534 12.2727 11.1364C12.2727 10.9194 12.1865 10.7113 12.0331 10.5578C11.8796 10.4044 11.6715 10.3182 11.4545 10.3182H10.6364C10.4194 10.3182 10.2113 10.4044 10.0578 10.5578C9.90438 10.7113 9.81818 10.9194 9.81818 11.1364V11.9545C9.81818 12.1715 9.90438 12.3796 10.0578 12.5331C10.2113 12.6865 10.4194 12.7727 10.6364 12.7727ZM13.9091 10.3182C13.6921 10.3182 13.484 10.4044 13.3305 10.5578C13.1771 10.7113 13.0909 10.9194 13.0909 11.1364V13.5909C12.8739 13.5909 12.6658 13.6771 12.5124 13.8305C12.3589 13.984 12.2727 14.1921 12.2727 14.4091C12.2727 14.6261 12.3589 14.8342 12.5124 14.9876C12.6658 15.1411 12.8739 15.2273 13.0909 15.2273H13.9091C14.1261 15.2273 14.3342 15.1411 14.4876 14.9876C14.6411 14.8342 14.7273 14.6261 14.7273 14.4091V11.1364C14.7273 10.9194 14.6411 10.7113 14.4876 10.5578C14.3342 10.4044 14.1261 10.3182 13.9091 10.3182ZM10.6364 13.5909C10.4745 13.5909 10.3164 13.6389 10.1818 13.7288C10.0473 13.8187 9.94239 13.9465 9.88046 14.096C9.81854 14.2455 9.80233 14.41 9.8339 14.5687C9.86547 14.7274 9.9434 14.8732 10.0578 14.9876C10.1722 15.1021 10.318 15.18 10.4767 15.2116C10.6355 15.2431 10.8 15.2269 10.9495 15.165C11.099 15.1031 11.2268 14.9982 11.3167 14.8636C11.4066 14.7291 11.4545 14.5709 11.4545 14.4091C11.4545 14.1921 11.3683 13.984 11.2149 13.8305C11.0615 13.6771 10.8534 13.5909 10.6364 13.5909Z" fill="#ED1C24"/>
</svg>
