<svg width="50" height="41" viewBox="0 0 50 41" fill="none" xmlns="http://www.w3.org/2000/svg">
<path d="M11.5 38.5C11.5 39.1375 11.284 39.6722 10.852 40.1042C10.42 40.5362 9.886 40.7515 9.25 40.75H2.5C1.8625 40.75 1.3285 40.534 0.898 40.102C0.4675 39.67 0.2515 39.136 0.25 38.5V31.75C0.25 31.1125 0.466 30.5785 0.898 30.148C1.33 29.7175 1.864 29.5015 2.5 29.5C3.136 29.4985 3.67075 29.7145 4.10425 30.148C4.53775 30.5815 4.753 31.1155 4.75 31.75V36.25H9.25C9.8875 36.25 10.4222 36.466 10.8542 36.898C11.2862 37.33 11.5015 37.864 11.5 38.5ZM47.5 29.5C48.1375 29.5 48.6722 29.716 49.1042 30.148C49.5362 30.58 49.7515 31.114 49.75 31.75V38.5C49.75 39.1375 49.534 39.6722 49.102 40.1042C48.67 40.5362 48.136 40.7515 47.5 40.75H40.75C40.1125 40.75 39.5785 40.534 39.148 40.102C38.7175 39.67 38.5015 39.136 38.5 38.5C38.4985 37.864 38.7145 37.33 39.148 36.898C39.5815 36.466 40.1155 36.25 40.75 36.25H45.25V31.75C45.25 31.1125 45.466 30.5785 45.898 30.148C46.33 29.7175 46.864 29.5015 47.5 29.5ZM8.125 34C7.825 34 7.5625 33.8875 7.3375 33.6625C7.1125 33.4375 7 33.175 7 32.875V8.125C7 7.825 7.1125 7.5625 7.3375 7.3375C7.5625 7.1125 7.825 7 8.125 7H10.375C10.675 7 10.9375 7.1125 11.1625 7.3375C11.3875 7.5625 11.5 7.825 11.5 8.125V32.875C11.5 33.175 11.3875 33.4375 11.1625 33.6625C10.9375 33.8875 10.675 34 10.375 34H8.125ZM14.875 34C14.575 34 14.3125 33.8875 14.0875 33.6625C13.8625 33.4375 13.75 33.175 13.75 32.875V8.125C13.75 7.825 13.8625 7.5625 14.0875 7.3375C14.3125 7.1125 14.575 7 14.875 7C15.175 7 15.4375 7.1125 15.6625 7.3375C15.8875 7.5625 16 7.825 16 8.125V32.875C16 33.175 15.8875 33.4375 15.6625 33.6625C15.4375 33.8875 15.175 34 14.875 34ZM21.625 34C21.325 34 21.0625 33.8875 20.8375 33.6625C20.6125 33.4375 20.5 33.175 20.5 32.875V8.125C20.5 7.825 20.6125 7.5625 20.8375 7.3375C21.0625 7.1125 21.325 7 21.625 7H23.875C24.175 7 24.4375 7.1125 24.6625 7.3375C24.8875 7.5625 25 7.825 25 8.125V32.875C25 33.175 24.8875 33.4375 24.6625 33.6625C24.4375 33.8875 24.175 34 23.875 34H21.625ZM28.375 34C28.075 34 27.8125 33.8875 27.5875 33.6625C27.3625 33.4375 27.25 33.175 27.25 32.875V8.125C27.25 7.825 27.3625 7.5625 27.5875 7.3375C27.8125 7.1125 28.075 7 28.375 7H32.875C33.175 7 33.4375 7.1125 33.6625 7.3375C33.8875 7.5625 34 7.825 34 8.125V32.875C34 33.175 33.8875 33.4375 33.6625 33.6625C33.4375 33.8875 33.175 34 32.875 34H28.375ZM37.375 34C37.075 34 36.8125 33.8875 36.5875 33.6625C36.3625 33.4375 36.25 33.175 36.25 32.875V8.125C36.25 7.825 36.3625 7.5625 36.5875 7.3375C36.8125 7.1125 37.075 7 37.375 7C37.675 7 37.9375 7.1125 38.1625 7.3375C38.3875 7.5625 38.5 7.825 38.5 8.125V32.875C38.5 33.175 38.3875 33.4375 38.1625 33.6625C37.9375 33.8875 37.675 34 37.375 34ZM41.875 34C41.575 34 41.3125 33.8875 41.0875 33.6625C40.8625 33.4375 40.75 33.175 40.75 32.875V8.125C40.75 7.825 40.8625 7.5625 41.0875 7.3375C41.3125 7.1125 41.575 7 41.875 7C42.175 7 42.4375 7.1125 42.6625 7.3375C42.8875 7.5625 43 7.825 43 8.125V32.875C43 33.175 42.8875 33.4375 42.6625 33.6625C42.4375 33.8875 42.175 34 41.875 34ZM11.5 2.5C11.5 3.1375 11.284 3.67225 10.852 4.10425C10.42 4.53625 9.886 4.7515 9.25 4.75H4.75V9.25C4.75 9.8875 4.534 10.4222 4.102 10.8542C3.67 11.2862 3.136 11.5015 2.5 11.5C1.864 11.4985 1.33 11.2825 0.898 10.852C0.466 10.4215 0.25 9.8875 0.25 9.25V2.5C0.25 1.8625 0.466 1.3285 0.898 0.898C1.33 0.4675 1.864 0.2515 2.5 0.25H9.25C9.8875 0.25 10.4222 0.466 10.8542 0.898C11.2862 1.33 11.5015 1.864 11.5 2.5ZM38.5 2.5C38.5 1.8625 38.716 1.3285 39.148 0.898C39.58 0.4675 40.114 0.2515 40.75 0.25H47.5C48.1375 0.25 48.6722 0.466 49.1042 0.898C49.5362 1.33 49.7515 1.864 49.75 2.5V9.25C49.75 9.8875 49.534 10.4222 49.102 10.8542C48.67 11.2862 48.136 11.5015 47.5 11.5C46.864 11.4985 46.33 11.2825 45.898 10.852C45.466 10.4215 45.25 9.8875 45.25 9.25V4.75H40.75C40.1125 4.75 39.5785 4.534 39.148 4.102C38.7175 3.67 38.5015 3.136 38.5 2.5Z" fill="#263238"/>
</svg>
