<svg width="15" height="14" viewBox="0 0 15 14" fill="none" xmlns="http://www.w3.org/2000/svg">
<path d="M14.0522 7H5.30071M2.21166 7H0.947998M2.21166 7C2.21166 6.59047 2.37435 6.1977 2.66394 5.90811C2.95353 5.61853 3.34629 5.45584 3.75583 5.45584C4.16537 5.45584 4.55813 5.61853 4.84772 5.90811C5.13731 6.1977 5.3 6.59047 5.3 7C5.3 7.40954 5.13731 7.80231 4.84772 8.09189C4.55813 8.38148 4.16537 8.54417 3.75583 8.54417C3.34629 8.54417 2.95353 8.38148 2.66394 8.09189C2.37435 7.80231 2.21166 7.40954 2.21166 7ZM14.0522 11.68H9.98066M9.98066 11.68C9.98066 12.0896 9.81758 12.4828 9.52793 12.7725C9.23828 13.0621 8.84542 13.2248 8.43579 13.2248C8.02625 13.2248 7.63349 13.0614 7.3439 12.7719C7.05431 12.4823 6.89162 12.0895 6.89162 11.68M9.98066 11.68C9.98066 11.2703 9.81758 10.8778 9.52793 10.5882C9.23828 10.2985 8.84542 10.1358 8.43579 10.1358C8.02625 10.1358 7.63349 10.2985 7.3439 10.5881C7.05431 10.8777 6.89162 11.2704 6.89162 11.68M6.89162 11.68H0.947998M14.0522 2.32005H11.8528M8.76375 2.32005H0.947998M8.76375 2.32005C8.76375 1.91051 8.92644 1.51774 9.21602 1.22815C9.50561 0.938567 9.89838 0.775879 10.3079 0.775879C10.5107 0.775879 10.7115 0.81582 10.8988 0.893422C11.0862 0.971023 11.2564 1.08477 11.3998 1.22815C11.5432 1.37154 11.6569 1.54177 11.7345 1.72912C11.8121 1.91647 11.8521 2.11726 11.8521 2.32005C11.8521 2.52283 11.8121 2.72363 11.7345 2.91097C11.6569 3.09832 11.5432 3.26855 11.3998 3.41194C11.2564 3.55533 11.0862 3.66907 10.8988 3.74667C10.7115 3.82427 10.5107 3.86421 10.3079 3.86421C9.89838 3.86421 9.50561 3.70152 9.21602 3.41194C8.92644 3.12235 8.76375 2.72958 8.76375 2.32005Z" stroke="#484C52" stroke-width="1.5" stroke-miterlimit="10" stroke-linecap="round"/>
</svg>
