<svg width="37" height="37" viewBox="0 0 37 37" fill="none" xmlns="http://www.w3.org/2000/svg">
<path d="M11.7727 33.6364H5.04545C4.59941 33.6364 4.17163 33.4592 3.85623 33.1438C3.54083 32.8284 3.36364 32.4006 3.36364 31.9545V25.2273C3.36364 24.7812 3.18645 24.3534 2.87104 24.038C2.55564 23.7226 2.12786 23.5455 1.68182 23.5455C1.23577 23.5455 0.807995 23.7226 0.492593 24.038C0.177191 24.3534 0 24.7812 0 25.2273V31.9545C0 33.2927 0.531573 34.576 1.47778 35.5222C2.42399 36.4684 3.70732 37 5.04545 37H11.7727C12.2188 37 12.6465 36.8228 12.962 36.5074C13.2774 36.192 13.4545 35.7642 13.4545 35.3182C13.4545 34.8721 13.2774 34.4444 12.962 34.129C12.6465 33.8136 12.2188 33.6364 11.7727 33.6364ZM35.3182 23.5455C34.8721 23.5455 34.4444 23.7226 34.129 24.038C33.8136 24.3534 33.6364 24.7812 33.6364 25.2273V31.9545C33.6364 32.4006 33.4592 32.8284 33.1438 33.1438C32.8284 33.4592 32.4006 33.6364 31.9545 33.6364H25.2273C24.7812 33.6364 24.3534 33.8136 24.038 34.129C23.7226 34.4444 23.5455 34.8721 23.5455 35.3182C23.5455 35.7642 23.7226 36.192 24.038 36.5074C24.3534 36.8228 24.7812 37 25.2273 37H31.9545C33.2927 37 34.576 36.4684 35.5222 35.5222C36.4684 34.576 37 33.2927 37 31.9545V25.2273C37 24.7812 36.8228 24.3534 36.5074 24.038C36.192 23.7226 35.7642 23.5455 35.3182 23.5455ZM31.9545 0H25.2273C24.7812 0 24.3534 0.177191 24.038 0.492593C23.7226 0.807995 23.5455 1.23577 23.5455 1.68182C23.5455 2.12786 23.7226 2.55564 24.038 2.87104C24.3534 3.18645 24.7812 3.36364 25.2273 3.36364H31.9545C32.4006 3.36364 32.8284 3.54083 33.1438 3.85623C33.4592 4.17163 33.6364 4.59941 33.6364 5.04545V11.7727C33.6364 12.2188 33.8136 12.6465 34.129 12.962C34.4444 13.2774 34.8721 13.4545 35.3182 13.4545C35.7642 13.4545 36.192 13.2774 36.5074 12.962C36.8228 12.6465 37 12.2188 37 11.7727V5.04545C37 3.70732 36.4684 2.42399 35.5222 1.47778C34.576 0.531573 33.2927 0 31.9545 0ZM1.68182 13.4545C2.12786 13.4545 2.55564 13.2774 2.87104 12.962C3.18645 12.6465 3.36364 12.2188 3.36364 11.7727V5.04545C3.36364 4.59941 3.54083 4.17163 3.85623 3.85623C4.17163 3.54083 4.59941 3.36364 5.04545 3.36364H11.7727C12.2188 3.36364 12.6465 3.18645 12.962 2.87104C13.2774 2.55564 13.4545 2.12786 13.4545 1.68182C13.4545 1.23577 13.2774 0.807995 12.962 0.492593C12.6465 0.177191 12.2188 0 11.7727 0H5.04545C3.70732 0 2.42399 0.531573 1.47778 1.47778C0.531573 2.42399 0 3.70732 0 5.04545V11.7727C0 12.2188 0.177191 12.6465 0.492593 12.962C0.807995 13.2774 1.23577 13.4545 1.68182 13.4545ZM15.1364 6.72727H8.40909C7.96304 6.72727 7.53527 6.90446 7.21987 7.21987C6.90446 7.53527 6.72727 7.96304 6.72727 8.40909V15.1364C6.72727 15.5824 6.90446 16.0102 7.21987 16.3256C7.53527 16.641 7.96304 16.8182 8.40909 16.8182H15.1364C15.5824 16.8182 16.0102 16.641 16.3256 16.3256C16.641 16.0102 16.8182 15.5824 16.8182 15.1364V8.40909C16.8182 7.96304 16.641 7.53527 16.3256 7.21987C16.0102 6.90446 15.5824 6.72727 15.1364 6.72727ZM13.4545 13.4545H10.0909V10.0909H13.4545V13.4545ZM21.8636 16.8182H28.5909C29.037 16.8182 29.4647 16.641 29.7801 16.3256C30.0955 16.0102 30.2727 15.5824 30.2727 15.1364V8.40909C30.2727 7.96304 30.0955 7.53527 29.7801 7.21987C29.4647 6.90446 29.037 6.72727 28.5909 6.72727H21.8636C21.4176 6.72727 20.9898 6.90446 20.6744 7.21987C20.359 7.53527 20.1818 7.96304 20.1818 8.40909V15.1364C20.1818 15.5824 20.359 16.0102 20.6744 16.3256C20.9898 16.641 21.4176 16.8182 21.8636 16.8182ZM23.5455 10.0909H26.9091V13.4545H23.5455V10.0909ZM15.1364 20.1818H8.40909C7.96304 20.1818 7.53527 20.359 7.21987 20.6744C6.90446 20.9898 6.72727 21.4176 6.72727 21.8636V28.5909C6.72727 29.037 6.90446 29.4647 7.21987 29.7801C7.53527 30.0955 7.96304 30.2727 8.40909 30.2727H15.1364C15.5824 30.2727 16.0102 30.0955 16.3256 29.7801C16.641 29.4647 16.8182 29.037 16.8182 28.5909V21.8636C16.8182 21.4176 16.641 20.9898 16.3256 20.6744C16.0102 20.359 15.5824 20.1818 15.1364 20.1818ZM13.4545 26.9091H10.0909V23.5455H13.4545V26.9091ZM21.8636 25.2273C22.3097 25.2273 22.7375 25.0501 23.0529 24.7347C23.3683 24.4193 23.5455 23.9915 23.5455 23.5455C23.9915 23.5455 24.4193 23.3683 24.7347 23.0529C25.0501 22.7375 25.2273 22.3097 25.2273 21.8636C25.2273 21.4176 25.0501 20.9898 24.7347 20.6744C24.4193 20.359 23.9915 20.1818 23.5455 20.1818H21.8636C21.4176 20.1818 20.9898 20.359 20.6744 20.6744C20.359 20.9898 20.1818 21.4176 20.1818 21.8636V23.5455C20.1818 23.9915 20.359 24.4193 20.6744 24.7347C20.9898 25.0501 21.4176 25.2273 21.8636 25.2273ZM28.5909 20.1818C28.1449 20.1818 27.7171 20.359 27.4017 20.6744C27.0863 20.9898 26.9091 21.4176 26.9091 21.8636V26.9091C26.463 26.9091 26.0353 27.0863 25.7199 27.4017C25.4045 27.7171 25.2273 28.1449 25.2273 28.5909C25.2273 29.037 25.4045 29.4647 25.7199 29.7801C26.0353 30.0955 26.463 30.2727 26.9091 30.2727H28.5909C29.037 30.2727 29.4647 30.0955 29.7801 29.7801C30.0955 29.4647 30.2727 29.037 30.2727 28.5909V21.8636C30.2727 21.4176 30.0955 20.9898 29.7801 20.6744C29.4647 20.359 29.037 20.1818 28.5909 20.1818ZM21.8636 26.9091C21.531 26.9091 21.2058 27.0077 20.9293 27.1925C20.6527 27.3773 20.4371 27.64 20.3098 27.9473C20.1825 28.2546 20.1492 28.5928 20.2141 28.919C20.279 29.2453 20.4392 29.5449 20.6744 29.7801C20.9096 30.0153 21.2093 30.1755 21.5355 30.2404C21.8618 30.3053 22.1999 30.272 22.5072 30.1447C22.8146 30.0174 23.0772 29.8019 23.262 29.5253C23.4468 29.2487 23.5455 28.9235 23.5455 28.5909C23.5455 28.1449 23.3683 27.7171 23.0529 27.4017C22.7375 27.0863 22.3097 26.9091 21.8636 26.9091Z" fill="white"/>
</svg>
