<svg width="17" height="19" viewBox="0 0 17 19" fill="none" xmlns="http://www.w3.org/2000/svg">
<path d="M13.875 18.25C13.1458 18.25 12.526 17.9948 12.0156 17.4844C11.5052 16.974 11.25 16.3542 11.25 15.625C11.25 15.5375 11.2719 15.3333 11.3156 15.0125L5.16875 11.425C4.93542 11.6438 4.66563 11.8153 4.35938 11.9395C4.05312 12.0638 3.725 12.1256 3.375 12.125C2.64583 12.125 2.02604 11.8698 1.51562 11.3594C1.00521 10.849 0.75 10.2292 0.75 9.5C0.75 8.77083 1.00521 8.15104 1.51562 7.64062C2.02604 7.13021 2.64583 6.875 3.375 6.875C3.725 6.875 4.05312 6.93713 4.35938 7.06138C4.66563 7.18563 4.93542 7.35683 5.16875 7.575L11.3156 3.9875C11.2865 3.88542 11.2684 3.78712 11.2614 3.69263C11.2544 3.59812 11.2506 3.49225 11.25 3.375C11.25 2.64583 11.5052 2.02604 12.0156 1.51562C12.526 1.00521 13.1458 0.75 13.875 0.75C14.6042 0.75 15.224 1.00521 15.7344 1.51562C16.2448 2.02604 16.5 2.64583 16.5 3.375C16.5 4.10417 16.2448 4.72396 15.7344 5.23438C15.224 5.74479 14.6042 6 13.875 6C13.525 6 13.1969 5.93788 12.8906 5.81363C12.5844 5.68937 12.3146 5.51817 12.0813 5.3L5.93438 8.8875C5.96354 8.98958 5.98192 9.08817 5.9895 9.18325C5.99708 9.27833 6.00058 9.38392 6 9.5C5.99942 9.61608 5.99592 9.72196 5.9895 9.81763C5.98308 9.91329 5.96471 10.0116 5.93438 10.1125L12.0813 13.7C12.3146 13.4812 12.5844 13.31 12.8906 13.1864C13.1969 13.0627 13.525 13.0006 13.875 13C14.6042 13 15.224 13.2552 15.7344 13.7656C16.2448 14.276 16.5 14.8958 16.5 15.625C16.5 16.3542 16.2448 16.974 15.7344 17.4844C15.224 17.9948 14.6042 18.25 13.875 18.25Z" fill="#989797"/>
</svg>
