<svg width="18" height="16" viewBox="0 0 18 16" fill="none" xmlns="http://www.w3.org/2000/svg">
<path d="M10.7497 4.66667H9.49967V8.83333L13.0663 10.95L13.6663 9.94167L10.7497 8.20833V4.66667ZM10.333 0.5C8.34388 0.5 6.43623 1.29018 5.02971 2.6967C3.62318 4.10322 2.83301 6.01088 2.83301 8H0.333008L3.63301 11.3583L6.99967 8H4.49967C4.49967 6.4529 5.11426 4.96917 6.20822 3.87521C7.30218 2.78125 8.78591 2.16667 10.333 2.16667C11.8801 2.16667 13.3638 2.78125 14.4578 3.87521C15.5518 4.96917 16.1663 6.4529 16.1663 8C16.1663 9.5471 15.5518 11.0308 14.4578 12.1248C13.3638 13.2188 11.8801 13.8333 10.333 13.8333C8.72467 13.8333 7.26634 13.175 6.21634 12.1167L5.03301 13.3C5.72601 14.0004 6.55162 14.5556 7.46161 14.9334C8.3716 15.3111 9.34774 15.5037 10.333 15.5C12.3221 15.5 14.2298 14.7098 15.6363 13.3033C17.0428 11.8968 17.833 9.98912 17.833 8C17.833 6.01088 17.0428 4.10322 15.6363 2.6967C14.2298 1.29018 12.3221 0.5 10.333 0.5Z" fill="#484C52"/>
</svg>
