<svg width="25" height="23" viewBox="0 0 25 23" fill="none" xmlns="http://www.w3.org/2000/svg">
<path d="M21.8335 20.6395V7.96021L12.5002 2.36021L3.16683 7.96021V20.6395H7.8335V17.4312C7.8335 16.1935 8.32516 15.0065 9.20033 14.1314C10.0755 13.2562 11.2625 12.7645 12.5002 12.7645C13.7378 12.7645 14.9248 13.2562 15.8 14.1314C16.6752 15.0065 17.1668 16.1935 17.1668 17.4312V20.6395H21.8335ZM14.8335 22.9729V17.4312C14.8335 16.8124 14.5877 16.2189 14.1501 15.7813C13.7125 15.3437 13.119 15.0979 12.5002 15.0979C11.8813 15.0979 11.2878 15.3437 10.8502 15.7813C10.4127 16.2189 10.1668 16.8124 10.1668 17.4312V22.9729H3.16683C2.54799 22.9729 1.9545 22.727 1.51691 22.2895C1.07933 21.8519 0.833496 21.2584 0.833496 20.6395V7.96021C0.833492 7.55728 0.937832 7.16121 1.13635 6.81057C1.33488 6.45994 1.62082 6.16669 1.96633 5.95938L11.2997 0.359378C11.6623 0.141793 12.0773 0.0268555 12.5002 0.0268555C12.9231 0.0268555 13.338 0.141793 13.7007 0.359378L23.034 5.95938C23.3795 6.16669 23.6654 6.45994 23.864 6.81057C24.0625 7.16121 24.1668 7.55728 24.1668 7.96021V20.6395C24.1668 21.2584 23.921 21.8519 23.4834 22.2895C23.0458 22.727 22.4523 22.9729 21.8335 22.9729H14.8335Z" fill="#484C52"/>
</svg>
