<svg width="24" height="22" viewBox="0 0 24 22" fill="none" xmlns="http://www.w3.org/2000/svg">
<path fill-rule="evenodd" clip-rule="evenodd" d="M2.05156 2.86885C3.24219 1.56104 4.94219 0.842285 6.9375 0.842285C8.75625 0.842285 10.6984 1.70166 12 3.38291C13.2937 1.70322 15.2281 0.842285 17.0625 0.842285C19.0531 0.842285 20.75 1.55791 21.9438 2.8626C23.125 4.15635 23.7188 5.92822 23.7188 7.89385C23.7188 11.2782 21.9797 14.0017 19.7781 16.1188C17.5828 18.2313 14.825 19.8423 12.5391 21.0251C12.3716 21.1117 12.1858 21.1566 11.9973 21.1561C11.8088 21.1556 11.6232 21.1095 11.4563 21.022C9.17031 19.8267 6.4125 18.2282 4.21719 16.1267C2.01562 14.0157 0.28125 11.3017 0.28125 7.89541C0.28125 5.93447 0.871875 4.1626 2.05156 2.86885ZM3.78438 4.44697C3.07344 5.22822 2.625 6.39541 2.625 7.89541C2.625 10.4329 3.9 12.5767 5.83906 14.4329C7.62969 16.1485 9.90156 17.5345 12.0031 18.6595C14.0891 17.5501 16.3625 16.1532 18.1547 14.4298C20.0969 12.5595 21.375 10.4063 21.375 7.89541C21.375 6.39072 20.925 5.22354 20.2125 4.44229C19.5125 3.67822 18.4688 3.1876 17.0625 3.1876C15.5375 3.1876 13.7922 4.16885 13.1141 6.23447C13.0374 6.4695 12.8883 6.67425 12.6882 6.81944C12.4881 6.96463 12.2472 7.04282 12 7.04282C11.7528 7.04282 11.5119 6.96463 11.3118 6.81944C11.1117 6.67425 10.9626 6.4695 10.8859 6.23447C10.2094 4.17197 8.44531 3.1876 6.9375 3.1876C5.52656 3.1876 4.48438 3.67822 3.78438 4.44697Z" fill="#484C52"/>
</svg>
