<svg width="25" height="26" viewBox="0 0 25 26" fill="none" xmlns="http://www.w3.org/2000/svg">
<path d="M1.0628 0C0.780929 0 0.510602 0.114137 0.311288 0.317301C0.111974 0.520466 0 0.796016 0 1.08333C0 1.37065 0.111974 1.6462 0.311288 1.84937C0.510602 2.05253 0.780929 2.16667 1.0628 2.16667H1.5857C1.81648 2.16707 2.04086 2.24404 2.22493 2.38593C2.409 2.52782 2.54276 2.72693 2.60599 2.95317L5.9772 14.9782C6.16787 15.6568 6.57011 16.2537 7.12311 16.6786C7.67611 17.1035 8.3498 17.3333 9.04232 17.3333H18.7542C19.3916 17.3334 20.0143 17.1388 20.5421 16.7746C21.0699 16.4105 21.4785 15.8934 21.7152 15.2902L24.8483 7.30383C24.9771 6.97521 25.025 6.61942 24.9877 6.26758C24.9505 5.91574 24.8293 5.57855 24.6347 5.28549C24.4401 4.99243 24.178 4.75242 23.8714 4.58644C23.5648 4.42046 23.2229 4.33356 22.8757 4.33333H5.20348L4.64869 2.35733C4.45851 1.67867 4.05675 1.08157 3.50414 0.656276C2.95154 0.230982 2.27813 0.000616131 1.5857 0H1.0628ZM8.02203 14.3802L5.8114 6.5H22.8757L19.7405 14.4863C19.6615 14.6872 19.5254 14.8593 19.3496 14.9805C19.1738 15.1018 18.9664 15.1666 18.7542 15.1667H9.04232C8.81154 15.1663 8.58716 15.0893 8.40309 14.9474C8.21902 14.8055 8.08526 14.6064 8.02203 14.3802ZM9.56521 26C9.98392 26 10.3985 25.9159 10.7854 25.7526C11.1722 25.5893 11.5237 25.3499 11.8198 25.0481C12.1158 24.7463 12.3507 24.388 12.5109 23.9937C12.6711 23.5994 12.7536 23.1768 12.7536 22.75C12.7536 22.3232 12.6711 21.9006 12.5109 21.5063C12.3507 21.112 12.1158 20.7537 11.8198 20.4519C11.5237 20.1501 11.1722 19.9107 10.7854 19.7474C10.3985 19.5841 9.98392 19.5 9.56521 19.5C8.7196 19.5 7.90861 19.8424 7.31067 20.4519C6.71273 21.0614 6.37681 21.888 6.37681 22.75C6.37681 23.612 6.71273 24.4386 7.31067 25.0481C7.90861 25.6576 8.7196 26 9.56521 26ZM9.56521 23.8333C9.28334 23.8333 9.01301 23.7192 8.8137 23.516C8.61439 23.3129 8.50241 23.0373 8.50241 22.75C8.50241 22.4627 8.61439 22.1871 8.8137 21.984C9.01301 21.7808 9.28334 21.6667 9.56521 21.6667C9.84709 21.6667 10.1174 21.7808 10.3167 21.984C10.516 22.1871 10.628 22.4627 10.628 22.75C10.628 23.0373 10.516 23.3129 10.3167 23.516C10.1174 23.7192 9.84709 23.8333 9.56521 23.8333ZM18.0676 26C18.4863 26 18.9009 25.9159 19.2878 25.7526C19.6746 25.5893 20.0261 25.3499 20.3222 25.0481C20.6182 24.7463 20.8531 24.388 21.0133 23.9937C21.1736 23.5994 21.256 23.1768 21.256 22.75C21.256 22.3232 21.1736 21.9006 21.0133 21.5063C20.8531 21.112 20.6182 20.7537 20.3222 20.4519C20.0261 20.1501 19.6746 19.9107 19.2878 19.7474C18.9009 19.5841 18.4863 19.5 18.0676 19.5C17.222 19.5 16.411 19.8424 15.8131 20.4519C15.2151 21.0614 14.8792 21.888 14.8792 22.75C14.8792 23.612 15.2151 24.4386 15.8131 25.0481C16.411 25.6576 17.222 26 18.0676 26ZM18.0676 23.8333C17.7858 23.8333 17.5154 23.7192 17.3161 23.516C17.1168 23.3129 17.0048 23.0373 17.0048 22.75C17.0048 22.4627 17.1168 22.1871 17.3161 21.984C17.5154 21.7808 17.7858 21.6667 18.0676 21.6667C18.3495 21.6667 18.6198 21.7808 18.8191 21.984C19.0185 22.1871 19.1304 22.4627 19.1304 22.75C19.1304 23.0373 19.0185 23.3129 18.8191 23.516C18.6198 23.7192 18.3495 23.8333 18.0676 23.8333Z" fill="#484C52"/>
</svg>
